<svg width="58" height="58" viewBox="0 0 58 58" fill="none" xmlns="http://www.w3.org/2000/svg">
<g id="Group">
<path id="Vector" d="M20.8972 3.90873C18.0524 6.25172 16.2354 9.79989 16.2354 13.7646V24.1558H19.6156V13.7646C19.6156 8.59008 23.8254 4.38028 29.0001 4.38028C34.1747 4.38028 38.3844 8.59008 38.3844 13.7646V24.1558H41.7647V13.7646C41.7646 6.7262 36.0384 1 29 1C27.1229 1 25.3394 1.40744 23.7327 2.13825" stroke="#646B82" stroke-width="1.5" stroke-miterlimit="10" stroke-linecap="round" stroke-linejoin="round"/>
<path id="Vector_2" d="M40.1523 57.0001H45.0319C47.521 57.0001 49.5389 54.9821 49.5389 52.493V28.663C49.5389 26.1739 47.521 24.156 45.0319 24.156H12.968C10.4789 24.156 8.46094 26.1739 8.46094 28.663V52.493C8.46094 54.9821 10.4789 57.0001 12.968 57.0001H36.7898" stroke="#646B82" stroke-width="1.5" stroke-miterlimit="10" stroke-linecap="round" stroke-linejoin="round"/>
<path id="Vector_3" d="M32.6909 37.3449C32.6909 35.2504 31.0039 33.5499 28.9147 33.528C26.8678 33.5065 25.1435 35.1396 25.0599 37.1851C25.0048 38.5339 25.6503 39.7347 26.6619 40.4551C26.9559 40.6645 27.1273 41.0056 27.1273 41.3665V45.882C27.1273 46.8465 27.9093 47.6284 28.8738 47.6284C29.8383 47.6284 30.6202 46.8465 30.6202 45.882V41.3668C30.6202 41.0083 30.7877 40.6666 31.0801 40.4592C32.0546 39.7675 32.6909 38.6308 32.6909 37.3449Z" stroke="#646B82" stroke-width="1.5" stroke-miterlimit="10" stroke-linecap="round" stroke-linejoin="round"/>
<g id="Group_2">
<g id="Group_3">
<g id="Group_4">
<path id="Vector_4" d="M36.3335 38.7201H38.1203C38.4191 38.7201 38.7058 38.6013 38.917 38.3901L42.2717 35.0354C42.483 34.8241 42.7697 34.7053 43.0685 34.7053H52.6881" stroke="#646B82" stroke-width="1.5" stroke-miterlimit="10" stroke-linecap="round" stroke-linejoin="round"/>
<path id="Vector_5" d="M36.3335 45.2234H38.1203C38.4191 45.2234 38.7058 45.3421 38.917 45.5534L42.2717 48.9081C42.483 49.1194 42.7697 49.2382 43.0685 49.2382H52.5754" stroke="#646B82" stroke-width="1.5" stroke-miterlimit="10" stroke-linecap="round" stroke-linejoin="round"/>
</g>
<path id="Vector_6" d="M34.8311 41.9719H41.9672" stroke="#646B82" stroke-width="1.5" stroke-miterlimit="10" stroke-linecap="round" stroke-linejoin="round"/>
</g>
<g id="Group_5">
<g id="Group_6">
<path id="Vector_7" d="M21.6669 45.2234H19.8801C19.5813 45.2234 19.2946 45.3421 19.0834 45.5534L15.7287 48.9081C15.5174 49.1194 15.2307 49.2382 14.9319 49.2382H5.56787" stroke="#646B82" stroke-width="1.5" stroke-miterlimit="10" stroke-linecap="round" stroke-linejoin="round"/>
<path id="Vector_8" d="M21.6669 38.7201H19.8801C19.5813 38.7201 19.2946 38.6013 19.0834 38.3901L15.7287 35.0354C15.5174 34.8241 15.2307 34.7053 14.9319 34.7053H5.56787" stroke="#646B82" stroke-width="1.5" stroke-miterlimit="10" stroke-linecap="round" stroke-linejoin="round"/>
</g>
<path id="Vector_9" d="M23.1689 41.9719H15.9858" stroke="#646B82" stroke-width="1.5" stroke-miterlimit="10" stroke-linecap="round" stroke-linejoin="round"/>
</g>
</g>
<g id="Group_7">
<path id="Vector_10" d="M3.15121 36.8566C4.33929 36.8566 5.30242 35.8935 5.30242 34.7054C5.30242 33.5173 4.33929 32.5542 3.15121 32.5542C1.96313 32.5542 1 33.5173 1 34.7054C1 35.8935 1.96313 36.8566 3.15121 36.8566Z" stroke="#646B82" stroke-width="1.5" stroke-miterlimit="10" stroke-linecap="round" stroke-linejoin="round"/>
</g>
<g id="Group_8">
<path id="Vector_11" d="M3.15121 51.3893C4.33929 51.3893 5.30242 50.4262 5.30242 49.2381C5.30242 48.05 4.33929 47.0869 3.15121 47.0869C1.96313 47.0869 1 48.05 1 49.2381C1 50.4262 1.96313 51.3893 3.15121 51.3893Z" stroke="#646B82" stroke-width="1.5" stroke-miterlimit="10" stroke-linecap="round" stroke-linejoin="round"/>
</g>
<g id="Group_9">
<path id="Vector_12" d="M54.849 36.8566C56.037 36.8566 57.0002 35.8935 57.0002 34.7054C57.0002 33.5173 56.037 32.5542 54.849 32.5542C53.6609 32.5542 52.6978 33.5173 52.6978 34.7054C52.6978 35.8935 53.6609 36.8566 54.849 36.8566Z" stroke="#646B82" stroke-width="1.5" stroke-miterlimit="10" stroke-linecap="round" stroke-linejoin="round"/>
</g>
<g id="Group_10">
<path id="Vector_13" d="M54.849 51.3893C56.037 51.3893 57.0002 50.4262 57.0002 49.2381C57.0002 48.05 56.037 47.0869 54.849 47.0869C53.6609 47.0869 52.6978 48.05 52.6978 49.2381C52.6978 50.4262 53.6609 51.3893 54.849 51.3893Z" stroke="#646B82" stroke-width="1.5" stroke-miterlimit="10" stroke-linecap="round" stroke-linejoin="round"/>
</g>
<g id="Group_11">
<g id="Group_12">
<path id="Vector_14" d="M13.8265 44.123C15.0146 44.123 15.9777 43.1599 15.9777 41.9718C15.9777 40.7837 15.0146 39.8206 13.8265 39.8206C12.6384 39.8206 11.6753 40.7837 11.6753 41.9718C11.6753 43.1599 12.6384 44.123 13.8265 44.123Z" stroke="#646B82" stroke-width="1.5" stroke-miterlimit="10" stroke-linecap="round" stroke-linejoin="round"/>
</g>
<g id="Group_13">
<path id="Vector_15" d="M44.1737 44.123C45.3618 44.123 46.3249 43.1599 46.3249 41.9718C46.3249 40.7837 45.3618 39.8206 44.1737 39.8206C42.9856 39.8206 42.0225 40.7837 42.0225 41.9718C42.0225 43.1599 42.9856 44.123 44.1737 44.123Z" stroke="#646B82" stroke-width="1.5" stroke-miterlimit="10" stroke-linecap="round" stroke-linejoin="round"/>
</g>
</g>
</g>
</svg>
