<svg width="24" height="24" viewBox="0 0 24 24" fill="none" xmlns="http://www.w3.org/2000/svg">
<g id="virus-off 2" clip-path="url(#clip0_0_829)">
<path id="Vector" d="M3 3L21 21" stroke="#D41434" stroke-width="2" stroke-linecap="round" stroke-linejoin="round"/>
<path id="Vector_2" d="M8.46901 8.46C7.53576 9.39724 7.01189 10.6661 7.01209 11.9887C7.01228 13.3114 7.53653 14.58 8.47006 15.517C9.40358 16.454 10.6703 16.9829 11.993 16.9879C13.3156 16.993 14.5863 16.4738 15.527 15.544" stroke="#D41434" stroke-width="2" stroke-linecap="round" stroke-linejoin="round"/>
<path id="Vector_3" d="M16.913 12.936C17.0655 12.1367 17.0207 11.3122 16.7824 10.5342C16.544 9.75613 16.1194 9.048 15.5453 8.47128C14.9713 7.89455 14.2651 7.46665 13.4882 7.22472C12.7112 6.98279 11.887 6.93414 11.087 7.083" stroke="#D41434" stroke-width="2" stroke-linecap="round" stroke-linejoin="round"/>
<path id="Vector_4" d="M12 7V3" stroke="#D41434" stroke-width="2" stroke-linecap="round" stroke-linejoin="round"/>
<path id="Vector_5" d="M11 3H13" stroke="#D41434" stroke-width="2" stroke-linecap="round" stroke-linejoin="round"/>
<path id="Vector_6" d="M15.536 8.464L18.364 5.636" stroke="#D41434" stroke-width="2" stroke-linecap="round" stroke-linejoin="round"/>
<path id="Vector_7" d="M17.657 4.929L19.071 6.343" stroke="#D41434" stroke-width="2" stroke-linecap="round" stroke-linejoin="round"/>
<path id="Vector_8" d="M17 12H21" stroke="#D41434" stroke-width="2" stroke-linecap="round" stroke-linejoin="round"/>
<path id="Vector_9" d="M21 11V13" stroke="#D41434" stroke-width="2" stroke-linecap="round" stroke-linejoin="round"/>
<path id="Vector_10" d="M18.364 18.363L17.657 19.07" stroke="#D41434" stroke-width="2" stroke-linecap="round" stroke-linejoin="round"/>
<path id="Vector_11" d="M12 17V21" stroke="#D41434" stroke-width="2" stroke-linecap="round" stroke-linejoin="round"/>
<path id="Vector_12" d="M13 21H11" stroke="#D41434" stroke-width="2" stroke-linecap="round" stroke-linejoin="round"/>
<path id="Vector_13" d="M8.46499 15.536L5.63599 18.364" stroke="#D41434" stroke-width="2" stroke-linecap="round" stroke-linejoin="round"/>
<path id="Vector_14" d="M6.34299 19.071L4.92999 17.657" stroke="#D41434" stroke-width="2" stroke-linecap="round" stroke-linejoin="round"/>
<path id="Vector_15" d="M7 12H3" stroke="#D41434" stroke-width="2" stroke-linecap="round" stroke-linejoin="round"/>
<path id="Vector_16" d="M3 13V11" stroke="#D41434" stroke-width="2" stroke-linecap="round" stroke-linejoin="round"/>
<path id="Vector_17" d="M5.63602 5.637L4.92902 6.344" stroke="#D41434" stroke-width="2" stroke-linecap="round" stroke-linejoin="round"/>
</g>
<defs>
<clipPath id="clip0_0_829">
<rect width="24" height="24" fill="white"/>
</clipPath>
</defs>
</svg>
