<svg width="25" height="24" viewBox="0 0 25 24" fill="none" xmlns="http://www.w3.org/2000/svg">
<g id="brand-google-big-query 2" clip-path="url(#clip0_0_748)">
<path id="Vector" d="M18.23 19.875C18.0345 20.2187 17.751 20.5041 17.4086 20.7018C17.0663 20.8995 16.6774 21.0025 16.282 21H8.99899C8.60044 20.9993 8.20939 20.8915 7.86684 20.6878C7.52429 20.484 7.24284 20.1919 7.052 19.842L2.78 13.092C2.59626 12.7574 2.49994 12.3818 2.49994 12C2.49994 11.6182 2.59626 11.2426 2.78 10.908L7.052 4.158C7.24301 3.80846 7.52436 3.51661 7.86666 3.31292C8.20896 3.10923 8.59967 3.00116 8.998 3H16.283C17.092 3 17.837 3.443 18.23 4.158L22.21 10.908C22.4 11.2525 22.4996 11.6396 22.4996 12.033C22.4996 12.4264 22.4 12.8135 22.21 13.158L18.23 19.908V19.875Z" stroke="#D41434" stroke-width="2" stroke-linecap="round" stroke-linejoin="round"/>
<path id="Vector_2" d="M8.5 11.5C8.5 12.4283 8.86875 13.3185 9.52513 13.9749C10.1815 14.6313 11.0717 15 12 15C12.9283 15 13.8185 14.6313 14.4749 13.9749C15.1313 13.3185 15.5 12.4283 15.5 11.5C15.5 10.5717 15.1313 9.6815 14.4749 9.02513C13.8185 8.36875 12.9283 8 12 8C11.0717 8 10.1815 8.36875 9.52513 9.02513C8.86875 9.6815 8.5 10.5717 8.5 11.5Z" stroke="#D41434" stroke-width="2" stroke-linecap="round" stroke-linejoin="round"/>
<path id="Vector_3" d="M14.5 14L16.5 16" stroke="#D41434" stroke-width="2" stroke-linecap="round" stroke-linejoin="round"/>
</g>
<defs>
<clipPath id="clip0_0_748">
<rect width="24" height="24" fill="white" transform="translate(0.5)"/>
</clipPath>
</defs>
</svg>
