<svg width="25" height="24" viewBox="0 0 25 24" fill="none" xmlns="http://www.w3.org/2000/svg">
<g id="video 2" clip-path="url(#clip0_0_739)">
<path id="Vector" d="M15.5 10L20.053 7.724C20.2054 7.64783 20.3748 7.61188 20.545 7.61954C20.7152 7.62721 20.8806 7.67824 21.0256 7.7678C21.1706 7.85736 21.2902 7.98247 21.3733 8.13127C21.4563 8.28006 21.4999 8.44761 21.5 8.618V15.382C21.4999 15.5524 21.4563 15.7199 21.3733 15.8687C21.2902 16.0175 21.1706 16.1426 21.0256 16.2322C20.8806 16.3218 20.7152 16.3728 20.545 16.3805C20.3748 16.3881 20.2054 16.3522 20.053 16.276L15.5 14V10Z" stroke="#D41434" stroke-width="2" stroke-linecap="round" stroke-linejoin="round"/>
<path id="Vector_2" d="M3.5 8C3.5 7.46957 3.71071 6.96086 4.08579 6.58579C4.46086 6.21071 4.96957 6 5.5 6H13.5C14.0304 6 14.5391 6.21071 14.9142 6.58579C15.2893 6.96086 15.5 7.46957 15.5 8V16C15.5 16.5304 15.2893 17.0391 14.9142 17.4142C14.5391 17.7893 14.0304 18 13.5 18H5.5C4.96957 18 4.46086 17.7893 4.08579 17.4142C3.71071 17.0391 3.5 16.5304 3.5 16V8Z" stroke="#D41434" stroke-width="2" stroke-linecap="round" stroke-linejoin="round"/>
</g>
<defs>
<clipPath id="clip0_0_739">
<rect width="24" height="24" fill="white" transform="translate(0.5)"/>
</clipPath>
</defs>
</svg>
