<svg width="57" height="38" viewBox="0 0 57 38" fill="none" xmlns="http://www.w3.org/2000/svg">
<path fill-rule="evenodd" clip-rule="evenodd" d="M35.0565 35.4397L35.0377 35.4269C33.2227 34.1927 31.7819 32.5283 30.7118 30.4594L30.7055 30.4472C29.6292 28.2945 29.1 25.9056 29.1 23.3C29.1 19.1417 30.4413 14.9921 33.0552 10.8649L33.0615 10.8549C35.7738 6.68227 39.7849 3.242 45.039 0.512565L45.4965 0.274902L56.2827 5.79342L54.5608 6.68747C51.1666 8.44987 48.3522 10.4275 46.1021 12.6121C44.251 14.4647 42.9488 16.5911 42.186 19.0014C44.5691 19.279 46.5702 20.0302 48.123 21.3175C50.065 22.8022 51 24.9477 51 27.6C51 30.1163 50.1403 32.3506 48.449 34.2625C46.6911 36.2497 44.2629 37.2 41.3 37.2C39.0513 37.2 36.9694 36.6169 35.0759 35.4516L35.0565 35.4397ZM47.5 22.1C46.0977 20.9314 44.2346 20.2237 41.9106 19.9769C41.5829 19.9421 41.246 19.9165 40.9 19.9C40.9798 19.5662 41.0687 19.2371 41.1667 18.9128C41.969 16.2575 43.3801 13.9199 45.4 11.9C47.4885 9.87119 50.0309 8.02933 53.0273 6.37441C53.3786 6.18036 53.7362 5.98888 54.1 5.79997L45.5 1.39997C40.3667 4.06663 36.5 7.39997 33.9 11.4C31.3667 15.4 30.1 19.3666 30.1 23.3C30.1 25.7666 30.6 28 31.6 30C32.6 31.9333 33.9333 33.4666 35.6 34.6C37.3333 35.6666 39.2333 36.2 41.3 36.2C44.0333 36.2 46.1667 35.3333 47.7 33.6C49.2333 31.8666 50 29.8666 50 27.6C50 25.2 49.1667 23.3666 47.5 22.1ZM6.15653 35.4397L6.1377 35.4269C4.32267 34.1927 2.88191 32.5283 1.81179 30.4594L1.8055 30.4472C0.729156 28.2945 0.200012 25.9056 0.200012 23.3C0.200012 19.1417 1.54133 14.9921 4.15519 10.8649L4.16151 10.8549C6.87375 6.68227 10.8849 3.242 16.139 0.512565L16.5965 0.274902L27.3827 5.79342L25.6608 6.68747C22.2665 8.44989 19.4522 10.4275 17.202 12.6122C15.3509 14.4648 14.0488 16.5911 13.286 19.0014C15.6691 19.279 17.6702 20.0302 19.223 21.3175C21.165 22.8022 22.1 24.9477 22.1 27.6C22.1 30.1163 21.2403 32.3506 19.549 34.2625C17.7911 36.2497 15.3629 37.2 12.4 37.2C10.1513 37.2 8.06941 36.6169 6.17591 35.4516L6.15653 35.4397ZM18.6 22.1C17.1977 20.9314 15.3346 20.2237 13.0106 19.9769C12.6829 19.9421 12.346 19.9165 12 19.9C12.0798 19.5662 12.1687 19.2371 12.2667 18.9128C13.069 16.2575 14.4801 13.9199 16.5 11.9C18.5885 9.87119 21.1309 8.02933 24.1273 6.37441C24.4786 6.18036 24.8362 5.98888 25.2 5.79997L16.6 1.39997C11.4667 4.06663 7.60001 7.39997 5.00001 11.4C2.46668 15.4 1.20001 19.3666 1.20001 23.3C1.20001 25.7666 1.70001 28 2.70001 30C3.70001 31.9333 5.03335 33.4666 6.70001 34.6C8.43335 35.6666 10.3333 36.2 12.4 36.2C15.1333 36.2 17.2667 35.3333 18.8 33.6C20.3333 31.8666 21.1 29.8666 21.1 27.6C21.1 25.2 20.2667 23.3666 18.6 22.1Z" fill="#9E9E9E"/>
</svg>
