<svg width="57" height="74" viewBox="0 0 57 74" fill="none" xmlns="http://www.w3.org/2000/svg">
<g id="Group">
<g id="Group_2">
<path id="Vector" d="M24.1244 4.92911C24.1866 4.92911 24.254 4.92911 24.3163 4.93942C24.6844 4.95488 25.0526 4.9755 25.4363 5.00642C27.1629 5.13012 28.8325 5.38266 30.4088 5.7486V1.76453C28.7962 1.35736 27.0696 1.0842 25.2755 0.955349C24.617 0.903808 23.917 0.872884 23.1963 0.857422C23.0044 0.857422 22.8126 0.857422 22.6155 0.857422H22.6C19.2296 0.857422 15.766 1.30067 12.2971 2.1717C8.3564 3.15612 4.5816 4.67656 1.34607 6.57325V46.0532C4.50382 44.3369 8.07121 42.9607 11.7786 42.033C14.7082 41.3011 17.6585 40.8527 20.5467 40.7033H20.5726H20.583C20.6089 40.7033 20.6348 40.7033 20.6556 40.7033C21.1533 40.6775 21.6459 40.662 22.154 40.6569V36.6161C18.4259 36.6522 14.5993 37.1573 10.7778 38.1108C9.40378 38.4561 8.07121 38.8478 6.82159 39.2704L5.41124 39.7498V8.96472L6.01789 8.67609C8.28898 7.5989 10.7364 6.72787 13.2875 6.08877C15.8126 5.45482 18.3326 5.07342 20.78 4.94457C20.8318 4.94457 20.8733 4.93942 20.9044 4.93942C21.4696 4.91365 22.04 4.89818 22.6 4.89818C22.8074 4.89818 23.0096 4.89819 23.2118 4.90334H23.2377C23.5333 4.90849 23.8289 4.9188 24.1244 4.93426V4.92911Z" fill="#BCCBD6"/>
<path id="Vector_2" d="M34.1525 9.09354C33.2192 9.09354 32.291 9.06262 31.3992 8.99561C30.3155 8.9183 29.237 8.78945 28.1999 8.61422C27.5673 8.50598 26.9451 8.38228 26.3385 8.24312V47.2746C28.7236 47.8777 31.3473 48.1869 34.1525 48.1869C37.5176 48.1869 40.9865 47.7436 44.4606 46.8778C48.3961 45.8882 52.1709 44.3729 55.4116 42.4762V3.69727C52.2538 5.41356 48.6864 6.78969 44.9842 7.71741C41.3391 8.62968 37.6939 9.09354 34.1577 9.09354H34.1525ZM49.9309 9.76872L51.3412 9.29455V40.0796L50.7346 40.3682C48.4687 41.4403 46.0213 42.3113 43.4598 42.9504C40.3124 43.739 37.1806 44.141 34.1525 44.141C33.214 44.141 32.2806 44.0997 31.3784 44.0224L30.4036 43.94V40.2136H30.4088V13.4075V12.2736L31.5444 12.3457C32.3688 12.3973 33.2243 12.423 34.1525 12.423C38.031 12.423 42.008 11.918 45.9746 10.9232C47.3072 10.5882 48.6398 10.1965 49.9361 9.76357L49.9309 9.76872Z" fill="#BCCBD6"/>
</g>
<path id="Vector_3" d="M4.09916 59.5258C3.69472 59.1032 3.16582 58.8918 2.51768 58.8918C2.18583 58.8918 1.8799 58.9485 1.60509 59.0619C1.33028 59.1753 1.09177 59.3299 0.89473 59.5258C0.697694 59.7216 0.542148 59.9587 0.43326 60.2267C0.324372 60.4947 0.272522 60.7885 0.272522 61.1029V66.3755C0.272522 66.8136 0.339926 67.1744 0.479925 67.4578C0.619923 67.7413 0.796218 67.9733 1.01399 68.1485C1.23177 68.3289 1.47547 68.4526 1.7451 68.5247C2.01473 68.5969 2.28436 68.633 2.54362 68.633C2.84954 68.633 3.13471 68.5711 3.40434 68.4526C3.66878 68.334 3.90212 68.1691 4.09916 67.9629C4.2962 67.7568 4.45175 67.5197 4.56582 67.2568C4.67989 66.994 4.73692 66.7105 4.73692 66.4167V65.824H3.35767V66.293C3.35767 66.4837 3.33174 66.6384 3.27471 66.7621C3.22286 66.8857 3.15027 66.9888 3.0725 67.0558C2.98435 67.128 2.88583 67.1795 2.78213 67.2105C2.67843 67.2414 2.57991 67.2568 2.49176 67.2568C2.17547 67.2568 1.95768 67.1641 1.83324 66.9734C1.7088 66.7827 1.65177 66.5507 1.65177 66.2724V61.3761C1.65177 61.0514 1.7088 60.7885 1.82287 60.5772C1.93695 60.3659 2.1651 60.2628 2.50732 60.2628C2.76657 60.2628 2.97397 60.3607 3.12952 60.5566C3.28508 60.7525 3.35767 60.9895 3.35767 61.2575V61.7163H4.73692V61.1802C4.73692 60.8504 4.67989 60.5411 4.56582 60.2577C4.45175 59.9742 4.2962 59.732 4.09916 59.5258Z" fill="#BCCBD6"/>
<path id="Vector_4" d="M12.3801 59.4742C12.1519 59.2835 11.903 59.1444 11.6282 59.0413C11.3534 58.9434 11.0734 58.8918 10.7934 58.8918C10.5134 58.8918 10.2386 58.9434 9.9586 59.0413C9.68379 59.1392 9.44008 59.2835 9.22231 59.4742C8.99416 59.6701 8.81788 59.9175 8.68306 60.2164C8.54825 60.5102 8.48083 60.8555 8.48083 61.2369V66.293C8.48083 66.6951 8.54825 67.0404 8.68306 67.329C8.81788 67.6176 8.99935 67.8547 9.22231 68.0403C9.44008 68.2361 9.68379 68.3856 9.9586 68.4835C10.2334 68.5814 10.5134 68.633 10.7934 68.633C11.0734 68.633 11.3482 68.5814 11.6282 68.4835C11.903 68.3856 12.1519 68.2361 12.3801 68.0403C12.5978 67.8496 12.7741 67.6125 12.909 67.329C13.0438 67.0404 13.1112 66.6951 13.1112 66.293V61.2369C13.1112 60.8504 13.0438 60.5102 12.909 60.2164C12.7741 59.9226 12.5978 59.6753 12.3801 59.4742ZM11.7319 66.293C11.7319 66.6229 11.6386 66.8703 11.4519 67.0249C11.2653 67.1795 11.0475 67.262 10.7934 67.262C10.5393 67.262 10.3216 67.1847 10.1349 67.0249C9.94823 66.8703 9.86008 66.6229 9.86008 66.293V61.2369C9.86008 60.9071 9.95342 60.6597 10.1349 60.5051C10.3216 60.3504 10.5393 60.268 10.7934 60.268C11.0475 60.268 11.2653 60.3453 11.4519 60.5051C11.6386 60.6597 11.7319 60.9071 11.7319 61.2369V66.293Z" fill="#BCCBD6"/>
<path id="Vector_5" d="M23.2637 68.5506V58.9744H21.9207L20.163 64.0459H20.137L18.3637 58.9744H17.0363V68.5506H18.4156V62.7265H18.4467L19.8 66.8446H20.4896L21.8533 62.7265H21.8844V68.5506H23.2637Z" fill="#BCCBD6"/>
<path id="Vector_6" d="M31.1244 59.6496C30.891 59.397 30.6266 59.2218 30.3414 59.1238C30.051 59.0259 29.7192 58.9744 29.3407 58.9744H27.2718V68.5506H28.651V64.8087H29.3562C29.8696 64.8087 30.2844 64.7211 30.6007 64.5459C30.917 64.3706 31.171 64.1284 31.3577 63.814C31.5184 63.5563 31.6273 63.278 31.674 62.9791C31.7258 62.6853 31.7466 62.3193 31.7466 61.8916C31.7466 61.3195 31.6999 60.8607 31.6118 60.5257C31.5236 60.1907 31.3577 59.8969 31.1244 59.6444V59.6496ZM30.4296 62.5667C30.414 62.7626 30.3725 62.9275 30.2999 63.0667C30.2273 63.211 30.1132 63.3244 29.9629 63.4017C29.8073 63.4842 29.5947 63.5202 29.3147 63.5202H28.651V60.2629H29.3666C29.6362 60.2629 29.8436 60.3041 29.9888 60.3814C30.134 60.4639 30.2429 60.5773 30.3155 60.7319C30.3881 60.8865 30.4295 61.0618 30.4347 61.2628C30.4451 61.4638 30.4503 61.6751 30.4503 61.9019C30.4503 62.1441 30.4451 62.3657 30.4296 62.5616V62.5667Z" fill="#BCCBD6"/>
<path id="Vector_7" d="M37.6628 58.9744H36.5117L34.3599 68.5506H35.7391L36.1436 66.4941H38.0258L38.4302 68.5506H39.8095L37.6576 58.9744H37.6628ZM36.3925 65.2004L37.0665 61.7318H37.0925L37.7717 65.2004H36.3925Z" fill="#BCCBD6"/>
<path id="Vector_8" d="M46.5813 64.7469H46.5502L44.4709 58.9744H43.1435V68.5506H44.5228V62.7935H44.5487L46.6591 68.5506H47.9605V58.9744H46.5813V64.7469Z" fill="#BCCBD6"/>
<path id="Vector_9" d="M55.0123 58.9744L53.9027 62.7832H53.8716L52.7619 58.9744H51.2997L53.1975 64.5047V68.5506H54.5767V64.5047L56.4693 58.9744H55.0123Z" fill="#BCCBD6"/>
<path id="Vector_10" d="M0.252014 71.2564H0.920902V73.1015H1.36682V71.2564H2.03051V70.8801H0.252014V71.2564Z" fill="#BCCBD6"/>
<path id="Vector_11" d="M5.84159 70.8801L4.97049 73.1015H5.44751L5.63419 72.5964H6.53121L6.72307 73.1015H7.21565L6.31863 70.8801H5.84159ZM5.76899 72.2253L6.07493 71.4007L6.38085 72.2253H5.76899Z" fill="#BCCBD6"/>
<path id="Vector_12" d="M11.369 72.282H11.8875V72.5655C11.7267 72.6892 11.5453 72.751 11.3534 72.751C11.146 72.751 10.9852 72.6789 10.8764 72.5397C10.7675 72.4005 10.7104 72.2047 10.7104 71.9625C10.7104 71.4677 10.9282 71.2203 11.3586 71.2203C11.6282 71.2203 11.7941 71.3388 11.8667 71.5759L12.3127 71.4934C12.2193 71.0553 11.8978 70.8389 11.3586 70.8389C11.0475 70.8389 10.7882 70.9368 10.5704 71.1275C10.3527 71.3182 10.249 71.6017 10.249 71.9831C10.249 72.3232 10.3475 72.6015 10.5393 72.818C10.7312 73.0345 11.0164 73.1427 11.3897 73.1427C11.763 73.1427 12.0949 73.0293 12.3438 72.7974V71.9109H11.369V72.282Z" fill="#BCCBD6"/>
<path id="Vector_13" d="M17.726 70.8801H17.2748V73.1015H18.8459V72.7253H17.726V70.8801Z" fill="#BCCBD6"/>
<path id="Vector_14" d="M22.5011 70.8801H22.0452V73.1015H22.5011V70.8801Z" fill="#BCCBD6"/>
<path id="Vector_15" d="M27.1629 72.3645L26.2451 70.8801H25.8044V73.1015H26.2244V71.6532L27.1318 73.1015H27.5829V70.8801H27.1629V72.3645Z" fill="#BCCBD6"/>
<path id="Vector_16" d="M31.3836 72.1223H32.5036V71.746H31.3836V71.2564H32.5917V70.8801H30.9273V73.1015H32.6332V72.7253H31.3836V72.1223Z" fill="#BCCBD6"/>
<path id="Vector_17" d="M40.9035 71.7563H40.0169V70.8801H39.5658V73.1015H40.0169V72.1326H40.9035V73.1015H41.3495V70.8801H40.9035V71.7563Z" fill="#BCCBD6"/>
<path id="Vector_18" d="M45.145 72.1223H46.265V71.746H45.145V71.2564H46.3531V70.8801H44.6939V73.1015H46.3946V72.7253H45.145V72.1223Z" fill="#BCCBD6"/>
<path id="Vector_19" d="M50.9005 72.1223C51.2946 72.0656 51.4916 71.8594 51.4916 71.5038C51.4916 71.2615 51.419 71.0966 51.2738 71.009C51.1286 70.9214 50.9109 70.8801 50.6153 70.8801H49.6613V73.1015H50.1124V72.1738H50.2005C50.3301 72.1738 50.4235 72.1893 50.4805 72.2253C50.5375 72.2563 50.5946 72.3129 50.6412 72.3851L51.1286 73.1015H51.6679L51.3931 72.6686C51.2116 72.3851 51.0457 72.1996 50.8953 72.1223H50.9005ZM50.4442 71.8182H50.1072V71.2564H50.4598C50.7035 71.2564 50.8538 71.277 50.9212 71.3131C50.9886 71.3491 51.0198 71.4213 51.0198 71.5347C51.0198 71.6532 50.9783 71.7305 50.9005 71.7666C50.8227 71.8027 50.6672 71.8233 50.439 71.8233L50.4442 71.8182Z" fill="#BCCBD6"/>
<path id="Vector_20" d="M55.2405 72.1223H56.3605V71.746H55.2405V71.2564H56.4486V70.8801H54.7842V73.1015H56.4901V72.7253H55.2405V72.1223Z" fill="#BCCBD6"/>
</g>
</svg>
