<svg width="79" height="64" viewBox="0 0 79 64" fill="none" xmlns="http://www.w3.org/2000/svg">
<g id="Group">
<g id="Group_2">
<path id="Vector" d="M9.41034 61.4245H10.0118V63.6408H10.4007V61.4245H10.997V61.0586H9.41034V61.4245Z" fill="#BCCBD6"/>
<path id="Vector_2" d="M14.3518 63.6406H14.7718L15.0622 63.0118H16.1718L16.4466 63.6406H16.877L15.6377 60.8987L14.3518 63.6406ZM15.2281 62.6459L15.6325 61.7697L16.0162 62.6459H15.2281Z" fill="#BCCBD6"/>
<path id="Vector_3" d="M21.7613 61.3779C22.0672 61.3779 22.3265 61.5171 22.5391 61.8006L22.8191 61.5325C22.6584 61.347 22.4925 61.213 22.3213 61.1305C22.145 61.0481 21.9584 61.0068 21.751 61.0068C21.3725 61.0068 21.051 61.1357 20.7866 61.3985C20.5221 61.6614 20.3925 61.9758 20.3925 62.352C20.3925 62.7283 20.5221 63.0324 20.7814 63.2952C21.0406 63.5581 21.3517 63.6869 21.7147 63.6869C22.0776 63.6869 22.3939 63.5529 22.6324 63.2798C22.7413 63.1612 22.814 63.0324 22.8606 62.8932C22.9073 62.7437 22.928 62.5737 22.928 62.3778V62.2902H21.8547V62.6561H22.5028C22.4873 62.8365 22.3991 62.9963 22.2436 63.1251C22.088 63.254 21.9169 63.321 21.725 63.321C21.4969 63.321 21.2895 63.2334 21.0925 63.0633C20.8851 62.8778 20.7814 62.6407 20.7814 62.352C20.7814 62.0634 20.8747 61.8418 21.0613 61.6562C21.248 61.4655 21.4762 61.3728 21.751 61.3728L21.7613 61.3779Z" fill="#BCCBD6"/>
<path id="Vector_4" d="M27.4183 61.0586V63.6408H28.5746V63.2748H27.8072V61.0586H27.4183Z" fill="#BCCBD6"/>
<path id="Vector_5" d="M32.7846 61.0586H32.3909V63.6408H32.7846V61.0586Z" fill="#BCCBD6"/>
<path id="Vector_6" d="M39.1368 63.7953V61.0585H38.7427V62.8521L36.8502 60.8833V63.6407H37.239V61.8316L39.1368 63.7953Z" fill="#BCCBD6"/>
<path id="Vector_7" d="M44.633 61.4245V61.0586H43.2019V63.6408H44.633V63.2748H43.5908V62.409H44.6019V62.043H43.5908V61.4245H44.633Z" fill="#BCCBD6"/>
<path id="Vector_8" d="M53.5203 63.6408V61.0586H53.1263V62.0688H52.0063V61.0586H51.6174V63.6408H52.0063V62.4347H53.1263V63.6408H53.5203Z" fill="#BCCBD6"/>
<path id="Vector_9" d="M59.0218 61.4245V61.0586H57.5855V63.6408H59.0218V63.2748H57.9796V62.409H58.9907V62.043H57.9796V61.4245H59.0218Z" fill="#BCCBD6"/>
<path id="Vector_10" d="M64.4351 61.8162C64.4351 61.5843 64.3521 61.3936 64.181 61.2493C64.0306 61.1204 63.7817 61.0586 63.4395 61.0586H62.9781V63.6408H63.3721V62.5842H63.4447L64.1862 63.6408H64.6633L63.8595 62.543C64.0306 62.5069 64.1707 62.4244 64.2744 62.2904C64.3781 62.1564 64.4351 62.0018 64.4351 61.8214V61.8162ZM63.4966 62.244H63.3721V61.4245H63.5121C63.8751 61.4245 64.0514 61.5585 64.0514 61.8214C64.0514 62.1049 63.8647 62.244 63.4966 62.244Z" fill="#BCCBD6"/>
<path id="Vector_11" d="M68.495 63.6408H69.9313V63.2748H68.8891V62.409H69.9002V62.043H68.8891V61.4245H69.9313V61.0586H68.495V63.6408Z" fill="#BCCBD6"/>
<path id="Vector_12" d="M6.3978 56.4251C6.26817 56.5952 6.11774 56.7447 5.94663 56.8787C5.77552 57.0075 5.57334 57.1106 5.34001 57.1879C5.10668 57.2652 4.85262 57.3064 4.57262 57.3064C4.20448 57.3064 3.86741 57.2343 3.56667 57.09C3.26593 56.9457 3.00668 56.7447 2.7889 56.4818C2.57112 56.2189 2.40002 55.92 2.28077 55.5747C2.16151 55.2294 2.10449 54.8531 2.10449 54.4408C2.10449 53.9718 2.1615 53.5492 2.27558 53.1678C2.38965 52.7864 2.54522 52.4771 2.74225 52.2297C2.94966 51.9772 3.19851 51.7813 3.48369 51.6525C3.76887 51.5236 4.08 51.4566 4.41185 51.4566C4.70222 51.4566 4.96148 51.5133 5.18962 51.6319C5.41777 51.7504 5.60962 51.9102 5.77555 52.1163C5.92073 52.2967 6.05035 52.5183 6.15924 52.7812C6.26813 53.0441 6.35108 53.2863 6.40812 53.5131H6.82815L6.7815 51.2092H6.37185L6.15924 51.5185C5.8948 51.3742 5.62 51.2659 5.32444 51.1886C5.03407 51.1113 4.70741 51.0701 4.34963 51.0701C3.86741 51.0701 3.41112 51.1525 2.98594 51.3175C2.56076 51.4824 2.19261 51.7143 1.8815 52.0133C1.56521 52.3173 1.32154 52.6781 1.14006 53.1008C0.963765 53.5234 0.870422 53.9873 0.870422 54.5078C0.870422 55.0284 0.958585 55.4871 1.14525 55.8994C1.32673 56.3117 1.57039 56.657 1.87631 56.9457C2.18223 57.2291 2.54003 57.4508 2.93929 57.6002C3.33855 57.7497 3.75337 57.827 4.18893 57.827C4.86299 57.827 5.43853 57.6878 5.92594 57.4147C6.41334 57.1415 6.80223 56.6828 7.09778 56.0437L6.71409 55.8788C6.63113 56.0798 6.52743 56.2653 6.3978 56.4354V56.4251Z" fill="#BCCBD6"/>
<path id="Vector_13" d="M18.6036 55.8374C18.7902 55.42 18.8836 54.9509 18.8836 54.4407C18.8836 53.9304 18.7902 53.4666 18.6088 53.044C18.4273 52.6213 18.1732 52.2657 17.8517 51.9668C17.5406 51.6781 17.1673 51.4514 16.7421 51.2864C16.3118 51.1267 15.8555 51.0442 15.3732 51.0442C14.891 51.0442 14.4607 51.1215 14.0355 51.2813C13.6103 51.4411 13.2318 51.6678 12.9103 51.9616C12.5836 52.2605 12.3296 52.6162 12.1429 53.0285C11.9562 53.4408 11.8629 53.9098 11.8629 54.4304C11.8629 54.9097 11.951 55.3581 12.1273 55.7807C12.3036 56.2034 12.5473 56.559 12.8533 56.8528C13.1644 57.1517 13.5325 57.3888 13.9629 57.5537C14.3933 57.7238 14.8599 57.8063 15.368 57.8063C15.8451 57.8063 16.2962 57.729 16.7162 57.5692C17.1362 57.4094 17.5095 57.1878 17.8258 56.894C18.1525 56.6002 18.4117 56.2446 18.5984 55.8271L18.6036 55.8374ZM17.5043 55.6107C17.4162 55.9611 17.2762 56.2704 17.0844 56.5487C16.8977 56.8219 16.6592 57.0332 16.3636 57.1878C16.0681 57.3373 15.7362 57.4146 15.3732 57.4146C14.9844 57.4146 14.6473 57.3373 14.3673 57.1878C14.0874 57.0383 13.854 56.827 13.6673 56.5642C13.4755 56.291 13.3355 55.9766 13.2473 55.6261C13.1592 55.2757 13.1125 54.8788 13.1125 54.4407C13.1125 54.0438 13.154 53.6676 13.237 53.312C13.3199 52.9563 13.4495 52.6419 13.6207 52.3739C13.8021 52.0956 14.0355 51.874 14.3258 51.7039C14.6162 51.539 14.9636 51.4514 15.3732 51.4514C15.7414 51.4514 16.068 51.5235 16.348 51.6678C16.6332 51.8121 16.8717 52.0132 17.0584 52.2709C17.2451 52.5337 17.3902 52.8481 17.4888 53.2192C17.5873 53.5903 17.634 53.9975 17.634 54.4407C17.634 54.8839 17.5925 55.2602 17.5043 55.6107Z" fill="#BCCBD6"/>
<path id="Vector_14" d="M24.8828 56.7292C24.8361 56.9044 24.7584 57.0333 24.6339 57.1209C24.5406 57.1879 24.411 57.2394 24.2398 57.2704C24.0687 57.3013 23.908 57.3271 23.7525 57.3374V57.6621H26.6976V57.3374C26.625 57.3374 26.4694 57.3064 26.2361 57.2446C25.9976 57.1879 25.8421 57.1261 25.7695 57.0642C25.6606 56.9817 25.5776 56.8374 25.5258 56.6467C25.4739 56.4509 25.448 56.1674 25.448 55.7963V51.9411H25.5154L27.885 57.559H28.1443L30.6332 52.0596H30.7109V56.755C30.7109 56.8684 30.685 56.9611 30.6384 57.0333C30.5865 57.1054 30.5087 57.1724 30.405 57.2291C30.3376 57.2601 30.208 57.2858 30.0265 57.3064C29.845 57.3271 29.6946 57.3374 29.5754 57.3374V57.6621H32.8005V57.3374C32.7072 57.3374 32.5828 57.3219 32.4272 57.2961C32.2717 57.2704 32.1576 57.2446 32.1005 57.2137C31.9865 57.157 31.9035 57.0951 31.862 57.023C31.8206 56.9508 31.7998 56.8632 31.7998 56.755V52.1009C31.7998 52.0029 31.8206 51.9102 31.862 51.8226C31.9035 51.7401 31.9813 51.6782 32.1005 51.6422C32.1679 51.6215 32.2768 51.5958 32.4272 51.5752C32.5776 51.5494 32.6968 51.5391 32.7953 51.5339V51.2092H30.4154C30.4154 51.2659 30.3894 51.3742 30.3428 51.5339C30.2961 51.6989 30.2391 51.8535 30.1769 52.0029L28.3931 56.0592L26.3035 51.2144H23.8147V51.5391C23.9651 51.5442 24.1206 51.57 24.271 51.6061C24.4214 51.6422 24.5562 51.704 24.6599 51.7865C24.7584 51.8638 24.8309 51.9617 24.8828 52.0803C24.9346 52.204 24.9606 52.3586 24.9606 52.5493V55.853C24.9606 56.2653 24.9398 56.5591 24.8932 56.7343L24.8828 56.7292Z" fill="#BCCBD6"/>
<path id="Vector_15" d="M43.3575 53.6935C43.5078 53.4358 43.5805 53.1368 43.5805 52.8018C43.5805 52.3173 43.3679 51.9359 42.9427 51.6422C42.5175 51.3535 41.9679 51.2092 41.2886 51.2092H37.9546V51.5339C38.0479 51.5391 38.1568 51.5494 38.2864 51.57C38.4161 51.5855 38.5457 51.6164 38.6753 51.6525C38.7998 51.6937 38.8827 51.7607 38.919 51.8432C38.9553 51.9256 38.9709 52.0236 38.9709 52.1318V56.791C38.9709 56.9096 38.9501 57.0075 38.9034 57.0848C38.8568 57.1621 38.7842 57.2188 38.6805 57.2601C38.6182 57.2858 38.5093 57.3064 38.3538 57.3168C38.1982 57.3322 38.079 57.3425 37.996 57.3477V57.6724H41.1279V57.3477C40.9983 57.3477 40.853 57.3322 40.6975 57.3168C40.5419 57.2961 40.433 57.2807 40.3708 57.2601C40.2464 57.2188 40.1634 57.157 40.1271 57.0745C40.0857 56.9921 40.0701 56.8993 40.0701 56.7962V54.8377H40.8893C41.2367 54.8377 41.5686 54.7964 41.8797 54.7191C42.1908 54.6418 42.476 54.5181 42.7405 54.348C43.0049 54.178 43.2123 53.9615 43.3627 53.7038L43.3575 53.6935ZM42.2478 53.4461C42.2115 53.6007 42.1338 53.7553 42.0145 53.8996C41.8953 54.0491 41.7242 54.1779 41.4908 54.281C41.2575 54.3841 40.9568 54.4357 40.5886 54.4357H40.0649V51.5803H40.7908C41.0812 51.5803 41.3249 51.6215 41.522 51.6989C41.719 51.7762 41.8745 51.8896 41.9938 52.0287C42.1078 52.1627 42.1857 52.3173 42.2323 52.4977C42.279 52.6781 42.2997 52.8534 42.2997 53.0234C42.2997 53.1471 42.2789 53.2863 42.2426 53.4461H42.2478Z" fill="#BCCBD6"/>
<path id="Vector_16" d="M55.4389 57.3425C55.3507 57.3425 55.247 57.3219 55.1226 57.2961C54.9981 57.2652 54.8944 57.2343 54.8115 57.1879C54.6974 57.1158 54.6041 57.0487 54.5367 56.9766C54.4693 56.9044 54.4122 56.8065 54.3604 56.688L51.9285 51.1165H51.5189C51.1715 51.905 50.7774 52.807 50.3367 53.8172C49.896 54.8274 49.4915 55.7396 49.1233 56.5488C49.0507 56.7086 48.9782 56.8323 48.9004 56.9199C48.8226 57.0075 48.7189 57.0951 48.5789 57.1776C48.4908 57.224 48.3819 57.2652 48.2523 57.2961C48.1226 57.3271 48.0086 57.3425 47.9204 57.3477V57.6724H50.6685V57.3477C50.3989 57.3374 50.1552 57.2961 49.9374 57.2291C49.7197 57.1621 49.616 57.0694 49.616 56.9457C49.616 56.8941 49.6263 56.8271 49.6418 56.7447C49.6574 56.6622 49.6885 56.5591 49.7352 56.4251C49.7819 56.2911 49.8389 56.1468 49.8959 55.987C49.9581 55.8272 50.036 55.6417 50.1293 55.4304H52.6907L53.2974 56.8787C53.313 56.9096 53.3233 56.9457 53.3285 56.9817C53.3337 57.023 53.3389 57.0539 53.3389 57.0797C53.3389 57.1467 53.2507 57.2034 53.0744 57.2498C52.8981 57.2961 52.6752 57.3271 52.4108 57.3425V57.6672H55.4441V57.3425H55.4389ZM50.3056 55.0284L51.3944 52.5235L52.4989 55.0284H50.3056Z" fill="#BCCBD6"/>
<path id="Vector_17" d="M66.2239 57.7291V53.0028C66.2239 52.673 66.2447 52.3998 66.2862 52.1833C66.3277 51.9669 66.4107 51.8226 66.5351 51.7452C66.6232 51.6989 66.7632 51.6473 66.9603 51.6061C67.1573 51.5597 67.3076 51.5339 67.401 51.5339V51.2092H64.4351V51.5339C64.5492 51.5391 64.7151 51.57 64.9328 51.6267C65.1506 51.6834 65.3062 51.7349 65.4047 51.7968C65.5084 51.8638 65.5862 51.9978 65.6432 52.1988C65.7002 52.3998 65.7262 52.6884 65.7262 53.0647V56.1365L61.6247 51.2144H59.5403V51.5391C59.67 51.5442 59.8411 51.5855 60.0537 51.6576C60.2663 51.7298 60.4322 51.8122 60.5566 51.9153C60.6499 51.9926 60.7225 52.1009 60.7795 52.24C60.8366 52.3792 60.8625 52.5184 60.8625 52.6575V55.8376C60.8625 56.2602 60.8418 56.5591 60.7951 56.7292C60.7484 56.9044 60.6707 57.0333 60.5462 57.1157C60.4892 57.157 60.3544 57.2085 60.1366 57.2601C59.9188 57.3116 59.7633 57.3425 59.67 57.3477V57.6724H62.6617V57.3477C62.584 57.3477 62.4181 57.3168 62.1744 57.2549C61.9255 57.1982 61.7647 57.1364 61.6869 57.0694C61.578 56.9869 61.4951 56.8426 61.4433 56.6416C61.3914 56.4406 61.3655 56.1571 61.3655 55.7809V52.4513L65.7884 57.7342H66.2343L66.2239 57.7291Z" fill="#BCCBD6"/>
<path id="Vector_18" d="M75.9253 51.2039V51.5286C76.0239 51.5389 76.1327 51.544 76.2468 51.5543C76.3609 51.5595 76.4698 51.5801 76.5735 51.6007C76.672 51.6265 76.7446 51.6574 76.8068 51.6986C76.8638 51.7399 76.895 51.7966 76.895 51.8687C76.895 51.9512 76.7549 52.2089 76.4697 52.6418C76.1846 53.0696 75.7749 53.6675 75.2409 54.4354C74.9712 54.0025 74.7535 53.6572 74.5824 53.3892C74.4165 53.1212 74.2505 52.8531 74.0898 52.58C74.0327 52.4872 73.9757 52.3893 73.9135 52.2862C73.8513 52.1831 73.7994 52.0955 73.7527 52.013C73.7164 51.9409 73.6854 51.8842 73.6646 51.843C73.6439 51.8017 73.6335 51.7656 73.6335 51.7502C73.6335 51.6832 73.7061 51.6316 73.8513 51.5956C73.9965 51.5595 74.2401 51.5389 74.5927 51.5337V51.209H71.4764V51.5337C71.5698 51.5389 71.6735 51.5543 71.7876 51.5801C71.9017 51.6059 72.0002 51.6368 72.0831 51.6832C72.1972 51.7502 72.2957 51.8275 72.3838 51.9151C72.472 52.0027 72.5705 52.1316 72.6846 52.3068C72.8713 52.6006 73.0891 52.9459 73.338 53.3582C73.5868 53.7654 73.815 54.1468 74.0224 54.5024C74.1157 54.6622 74.1935 54.8014 74.2609 54.9302C74.3283 55.0591 74.3594 55.1467 74.3594 55.1982V56.7702C74.3594 56.8836 74.3387 56.9815 74.292 57.064C74.2453 57.1413 74.1624 57.2032 74.0379 57.2495C73.9602 57.2753 73.8305 57.3011 73.6387 57.3165C73.4468 57.332 73.3017 57.3423 73.2083 57.3526V57.6773H76.6253V57.3526C76.5112 57.3526 76.3609 57.332 76.1794 57.2959C75.9927 57.2599 75.8631 57.2341 75.7957 57.2083C75.6764 57.1619 75.5883 57.0949 75.5416 57.0125C75.4898 56.93 75.469 56.8372 75.469 56.729V55.4972C75.469 55.2704 75.4898 55.1003 75.5313 54.9818C75.5727 54.8632 75.6557 54.7086 75.7853 54.5127C76.1224 53.987 76.4075 53.5489 76.6357 53.2088C76.8638 52.8635 77.1075 52.5284 77.3771 52.1934C77.5119 52.0285 77.6053 51.9254 77.6572 51.8842C77.7038 51.843 77.7972 51.7863 77.932 51.7141C77.989 51.678 78.0772 51.642 78.2068 51.6007C78.3313 51.5646 78.4245 51.544 78.4868 51.5389V51.2142H75.9512L75.9253 51.2039Z" fill="#BCCBD6"/>
</g>
<path id="Vector_19" d="M78.9846 13.6981H54.8995L66.9446 0.204834H12.4021L24.4472 13.6981H0.367432L13.7036 28.6448L27.6361 44.2564L39.6812 30.7631L51.7262 44.2564L64.8343 29.5674L64.8499 29.5519L79.0001 13.6981H78.9846ZM36.5286 3.02924L27.6257 13.0023L18.7228 3.02924H36.5234H36.5286ZM72.6587 16.5225L63.7558 26.4956L54.8581 16.5225H72.6587ZM27.6309 17.2595L36.4871 27.1914H18.7695L27.6309 17.2595ZM30.7782 16.5225H48.5737L39.676 26.4956L30.7782 16.5225ZM51.7159 17.2595L60.5721 27.1862H42.8545L51.7107 17.2595H51.7159ZM30.8146 13.6929L39.6708 3.76627L48.527 13.6929H30.8094H30.8146ZM51.7159 13.0023L42.813 3.02924H60.6136L51.7107 13.0023H51.7159ZM24.4835 16.5225L15.5858 26.4956L6.68809 16.5225H24.4835ZM36.5286 30.0158L27.6257 39.9888L18.7228 30.0158H36.5234H36.5286ZM60.6136 30.0158L51.7107 39.9888L42.8078 30.0158H60.6084H60.6136Z" fill="#BCCBD6"/>
</g>
</svg>
