<svg width="70" height="80" viewBox="0 0 70 80" fill="none" xmlns="http://www.w3.org/2000/svg">
<g id="Group">
<g id="Group_2">
<path id="Vector" d="M1.52941 79.539H1.99606V76.895H2.84124V76.4827H0.689423V76.895H1.52941V79.539Z" fill="#BCCBD6"/>
<path id="Vector_2" d="M7.92271 76.4775H7.53382L6.41904 79.5339H6.91163L7.14494 78.8535H8.31159L8.55012 79.5339H9.04272L7.9279 76.4775H7.92271ZM7.27976 78.4412L7.7257 77.1063H7.73086L8.17681 78.4412H7.27457H7.27976Z" fill="#BCCBD6"/>
<path id="Vector_3" d="M13.699 77.1425C13.7508 77.0807 13.813 77.0292 13.8908 76.9828C13.9686 76.9415 14.0619 76.9209 14.176 76.9158C14.3264 76.9158 14.4508 76.9622 14.5545 77.0446C14.653 77.1322 14.7256 77.2353 14.7619 77.359H15.2545C15.2027 77.1013 15.0886 76.89 14.9019 76.7148C14.7153 76.5447 14.4716 76.4571 14.176 76.4519C13.9323 76.4519 13.7301 76.5138 13.5693 76.622C13.4034 76.7302 13.2842 76.8591 13.2116 76.9982C13.1649 77.0704 13.1286 77.1683 13.1078 77.292C13.0871 77.4105 13.0767 77.6476 13.0767 78.0033C13.0767 78.3589 13.0871 78.5908 13.1078 78.7145C13.1182 78.7815 13.1338 78.8331 13.1493 78.8795C13.1701 78.9207 13.1856 78.9671 13.2116 79.0135C13.2842 79.1526 13.4034 79.2815 13.5693 79.3846C13.7301 79.4979 13.9323 79.5546 14.176 79.5598C14.4871 79.5546 14.7516 79.4464 14.9538 79.2454C15.1612 79.0392 15.2649 78.7815 15.2701 78.4774V77.8538H14.176V78.2919H14.8034V78.4517C14.8034 78.6424 14.7412 78.797 14.6219 78.9155C14.5027 79.0392 14.3523 79.1011 14.1708 79.1011C14.0619 79.1011 13.9686 79.0805 13.8856 79.0341C13.8078 78.9928 13.7404 78.9465 13.6938 78.8795C13.6316 78.8124 13.5953 78.73 13.5745 78.6217C13.5538 78.5135 13.5382 78.3125 13.5382 78.0136C13.5382 77.7146 13.5486 77.5085 13.5745 77.4002C13.5953 77.2972 13.6367 77.2147 13.6938 77.1477L13.699 77.1425Z" fill="#BCCBD6"/>
<path id="Vector_4" d="M21.0826 76.4827V79.539H23.0478V79.1009H21.5493V76.4827H21.0826Z" fill="#BCCBD6"/>
<path id="Vector_5" d="M27.8385 76.4827H27.3722V79.539H27.8385V76.4827Z" fill="#BCCBD6"/>
<path id="Vector_6" d="M32.3759 76.4827V79.539H32.8425V77.364H32.8477L34.2425 79.539H34.6833V76.4827H34.2166V78.6525H34.2062L32.8166 76.4827H32.3759Z" fill="#BCCBD6"/>
<path id="Vector_7" d="M41.1802 76.9208V76.4827H39.2203V79.539H41.1802V79.1009H39.6869V78.2041H40.9625V77.7918H39.6869V76.9208H41.1802Z" fill="#BCCBD6"/>
<path id="Vector_8" d="M50.5757 79.539V76.4827H50.1142V77.7918H48.8957V76.4827H48.4291V79.539H48.8957V78.2041H50.1142V79.539H50.5757Z" fill="#BCCBD6"/>
<path id="Vector_9" d="M57.0779 76.9208V76.4827H55.1179V79.539H57.0779V79.1009H55.5846V78.2041H56.8601V77.7918H55.5846V76.9208H57.0779Z" fill="#BCCBD6"/>
<path id="Vector_10" d="M62.9423 78.1784C63.3312 78.0289 63.5334 77.7454 63.5386 77.3331C63.5282 77.0496 63.4297 76.8332 63.2327 76.6786C63.0667 76.5445 62.8593 76.4775 62.6052 76.4775H61.4075V79.5339H61.8741V78.2299H62.4704L63.1082 79.5339H63.663L62.9475 78.1784H62.9423ZM61.8741 77.8176V76.8899H62.6052C62.7556 76.8899 62.8697 76.9208 62.9475 76.9878C63.046 77.0599 63.0978 77.1733 63.103 77.3331C63.103 77.462 63.0615 77.5754 62.9734 77.6681C62.8904 77.7661 62.7556 77.8176 62.5845 77.8176H61.8793H61.8741Z" fill="#BCCBD6"/>
<path id="Vector_11" d="M69.8904 76.9208V76.4827H67.9304V79.539H69.8904V79.1009H68.397V78.2041H69.6726V77.7918H68.397V76.9208H69.8904Z" fill="#BCCBD6"/>
<path id="Vector_12" d="M3.94049 72.8801C4.64566 72.8801 5.27306 72.6946 5.8175 72.3235C6.36713 71.9524 6.74566 71.437 6.96343 70.7773H5.12271C4.8842 71.236 4.49532 71.4679 3.96644 71.4679C3.43755 71.4679 3.01754 71.303 2.7168 70.9731C2.41088 70.6433 2.2605 70.2052 2.2605 69.6537C2.2605 69.1022 2.41088 68.6641 2.7168 68.3342C3.02272 68.0044 3.43755 67.8395 3.96644 67.8395C4.49532 67.8395 4.8842 68.0714 5.12271 68.5301H6.96343C6.74566 67.8704 6.36194 67.355 5.8175 66.9839C5.26788 66.6128 4.64048 66.4272 3.94049 66.4272C3.03309 66.4272 2.26052 66.7313 1.63312 67.3395C1.00572 67.9477 0.689423 68.7156 0.689423 69.6537C0.689423 70.5917 1.00572 71.3597 1.63312 71.9678C2.26052 72.576 3.03309 72.8801 3.94049 72.8801Z" fill="#BCCBD6"/>
<path id="Vector_13" d="M17.7019 69.6588C17.7019 68.7259 17.3908 67.9528 16.7686 67.3446C16.1464 66.7365 15.379 66.4324 14.4664 66.4324C13.5538 66.4324 12.7812 66.7365 12.1538 67.3446C11.5264 67.9528 11.2101 68.7208 11.2101 69.6588C11.2101 70.5968 11.5264 71.3648 12.1538 71.9781C12.7812 72.5863 13.5538 72.8955 14.4612 72.8955C15.3686 72.8955 16.136 72.5914 16.7634 71.9781C17.3908 71.3699 17.7019 70.5968 17.7019 69.6588ZM15.6745 70.9782C15.3686 71.3081 14.9642 71.473 14.456 71.473C13.9479 71.473 13.5382 71.3081 13.2375 70.9782C12.9316 70.6484 12.7812 70.2103 12.7812 69.6588C12.7812 69.1073 12.9316 68.6692 13.2375 68.3394C13.5434 68.0095 13.9479 67.8446 14.456 67.8446C14.9642 67.8446 15.3738 68.0095 15.6745 68.3394C15.9804 68.6692 16.1308 69.1073 16.1308 69.6588C16.1308 70.2103 15.9804 70.6484 15.6745 70.9782Z" fill="#BCCBD6"/>
<path id="Vector_14" d="M29.4877 66.52H27.7196L25.9048 70.87L24.0796 66.52H22.3063V72.8286H23.8515V69.2723L25.3241 72.8286H26.47L27.9426 69.2723V72.8286H29.4877V66.52Z" fill="#BCCBD6"/>
<path id="Vector_15" d="M36.0055 70.3752H36.9647C37.4054 70.3752 37.784 70.3134 38.1054 70.1845C38.4269 70.0557 38.6706 69.8908 38.8314 69.6846C39.1373 69.2877 39.2928 68.8806 39.2928 68.4528C39.2928 67.9219 39.0854 67.4632 38.681 67.087C38.2714 66.7107 37.701 66.52 36.9647 66.52H34.4603V72.8234H36.0055V70.3701V70.3752ZM36.0055 67.69H36.9647C37.1928 67.69 37.3795 67.7621 37.5143 67.9065C37.6543 68.0508 37.7217 68.2363 37.7217 68.4579C37.7217 68.6796 37.6543 68.8651 37.5195 68.9991C37.3847 69.1383 37.198 69.2053 36.9647 69.2053H36.0055V67.69Z" fill="#BCCBD6"/>
<path id="Vector_16" d="M45.4424 66.5046L43.2387 72.8286H44.8824L45.235 71.7669H47.5113L47.8639 72.8286H49.5179L47.3246 66.5046H45.4476H45.4424ZM45.6239 70.6021L46.3757 68.3549L47.1276 70.6021H45.6291H45.6239Z" fill="#BCCBD6"/>
<path id="Vector_17" d="M59.5667 72.8286V66.5046H58.0216V70.4836L55.4394 66.5046H53.8942V72.8286H55.4394V68.8497L58.0216 72.8286H59.5667Z" fill="#BCCBD6"/>
<path id="Vector_18" d="M66.1882 70.7979V72.8286H67.7333V70.7979L69.9267 66.52H68.1741L66.966 69.3702L65.7474 66.52H63.9949L66.1882 70.7979Z" fill="#BCCBD6"/>
</g>
<g id="Group_3">
<path id="Vector_19" d="M39.5314 8.06299C40.5062 9.42365 41.2943 10.9235 41.8595 12.5315C42.5647 12.6243 43.2647 12.7532 43.9439 12.9129C44.058 12.9387 44.172 12.9696 44.2861 12.9954C44.312 13.0006 44.3432 13.0109 44.3691 13.016C44.5143 13.0521 44.6594 13.0933 44.8046 13.1346C44.8046 13.1346 44.8046 13.1346 44.8098 13.1346C44.9498 13.1706 45.0898 13.2119 45.2246 13.2583C45.3439 13.2943 45.4631 13.3304 45.5824 13.3716C45.7068 13.4129 45.8261 13.4541 45.9506 13.4953C46.0646 13.5314 46.1787 13.5727 46.2928 13.619C46.4068 13.6603 46.5157 13.7015 46.6298 13.7479C47.2883 14.0004 47.9313 14.2891 48.5535 14.6086C48.7039 14.6859 48.8491 14.7581 48.9942 14.8405C49.2431 14.9745 49.4868 15.1137 49.7305 15.258C49.8342 15.3199 49.9379 15.3817 50.0365 15.4436C50.0831 15.4693 50.135 15.5003 50.1816 15.5312C50.2905 15.5982 50.3994 15.6703 50.5031 15.7425C50.6068 15.8095 50.7105 15.8765 50.809 15.9487C52.0016 16.7578 53.1009 17.6959 54.0964 18.7318C54.2157 18.8504 54.3246 18.9689 54.4334 19.0926C54.5268 19.1905 54.6149 19.2936 54.7031 19.3916C54.8483 19.5565 54.9883 19.7214 55.1283 19.8915C55.2164 19.9894 55.2942 20.0925 55.3771 20.1956C55.486 20.3347 55.5949 20.4739 55.6986 20.6131C55.7971 20.7471 55.8957 20.8811 55.989 21.0151C56.0875 21.1491 56.1808 21.2831 56.2742 21.4222C56.4608 21.6954 56.6371 21.9686 56.8083 22.252C56.8964 22.3912 56.9794 22.5355 57.0623 22.6798C57.1453 22.8241 57.2283 22.9685 57.306 23.1128C57.4771 23.4272 57.6431 23.7467 57.7934 24.0663C57.8557 24.1951 57.9179 24.324 57.9749 24.4528C58.0319 24.5817 58.089 24.7105 58.146 24.8394C58.1979 24.9528 58.2445 25.0662 58.2912 25.1847C58.3327 25.2929 58.3793 25.396 58.4208 25.5042C58.5245 25.7723 58.6282 26.0454 58.7164 26.3186C58.7734 26.4784 58.8253 26.6381 58.8719 26.7979C58.8719 26.7979 58.8719 26.8082 58.8771 26.8185C58.9238 26.9731 58.9705 27.1278 59.0119 27.2824C59.1416 27.7256 59.2505 28.174 59.349 28.6276C59.3749 28.741 59.3956 28.8595 59.4216 28.9729C59.4319 29.0399 59.4475 29.1069 59.4579 29.1688C59.4734 29.2564 59.489 29.344 59.5045 29.4368C59.5253 29.5656 59.546 29.6893 59.5667 29.8182C59.5875 29.947 59.6082 30.0759 59.6238 30.2047C59.629 30.2614 59.6393 30.3181 59.6445 30.3748C59.6549 30.4676 59.6653 30.5655 59.6756 30.6583C59.686 30.751 59.6964 30.8387 59.7016 30.9314C59.7171 31.0706 59.7275 31.2098 59.7379 31.3489C59.7482 31.5138 59.7586 31.6788 59.769 31.8437C59.7793 32.0189 59.7845 32.1942 59.7897 32.3694C59.7897 32.5447 59.7949 32.7199 59.7949 32.8951C59.7949 44.2134 50.529 53.4236 39.1425 53.4236C38.9662 53.4236 38.7847 53.4237 38.6084 53.4185C38.4321 53.4185 38.2558 53.4082 38.0795 53.3979C37.9084 53.3927 37.7321 53.3824 37.561 53.367H37.5403C37.3795 53.3566 37.2188 53.3412 37.058 53.3257C36.918 53.3103 36.7832 53.2948 36.6432 53.2793C36.5551 53.269 36.4721 53.2587 36.384 53.2484C36.2595 53.233 36.1403 53.2175 36.021 53.1969C36.0106 53.1969 36.0003 53.1969 35.9899 53.1969C35.8654 53.1814 35.7462 53.1608 35.627 53.1402C35.5233 53.1247 35.4195 53.1041 35.321 53.0835C35.1706 53.0577 35.0203 53.0268 34.8751 52.9959C34.0714 52.8258 33.2781 52.6093 32.5055 52.3465C32.3551 52.2949 32.2048 52.2434 32.0544 52.1867C31.9092 52.1351 31.764 52.0784 31.6136 52.0218C31.4166 51.9444 31.2196 51.862 31.0225 51.7795C30.8981 51.728 30.7736 51.6764 30.6544 51.6197C30.5248 51.563 30.3899 51.496 30.2551 51.4342C30.0892 51.3517 29.9181 51.2744 29.7522 51.1868C29.6174 51.1146 29.4774 51.0476 29.3426 50.9703C29.187 50.8827 29.0314 50.8002 28.8759 50.7075C28.7307 50.625 28.5907 50.5425 28.4455 50.4549C28.4455 50.4549 28.4403 50.4549 28.4352 50.4549C28.1707 50.3003 27.9166 50.1354 27.6626 49.9653C27.6418 49.955 27.6211 49.9395 27.6055 49.9241C27.4707 49.8313 27.3359 49.7385 27.2011 49.6457C27.0663 49.553 26.9315 49.455 26.8018 49.3571C26.667 49.2592 26.5374 49.1613 26.4078 49.0582C26.2989 48.9757 26.1952 48.8933 26.0915 48.8056C25.9255 48.6716 25.7596 48.5325 25.5937 48.3933C25.4848 48.3005 25.3759 48.2026 25.2722 48.1098C25.1478 47.9965 25.0285 47.8882 24.9092 47.7697C24.79 47.6563 24.6707 47.5429 24.5515 47.4244C24.3233 47.1976 24.1004 46.9656 23.8826 46.7286C23.7685 46.5997 23.6493 46.4709 23.5404 46.342C23.3226 46.0946 23.1152 45.8472 22.913 45.5895C22.7885 45.4349 22.6693 45.2751 22.55 45.1153C22.4774 45.0226 22.41 44.9298 22.3426 44.8319C22.3219 44.8009 22.296 44.77 22.2752 44.7391C22.1922 44.6206 22.1093 44.502 22.0263 44.3835C21.9433 44.2649 21.8707 44.1515 21.793 44.033C21.6841 43.8681 21.5752 43.698 21.4715 43.5279C21.3056 43.2547 21.1448 42.9764 20.9893 42.6929C20.6885 42.1518 20.4189 41.59 20.17 41.0127C20.113 40.8787 20.056 40.7499 20.0041 40.6159C20.0041 40.6159 20.0041 40.6056 19.9989 40.5953C19.9574 40.4922 19.916 40.3943 19.8797 40.2963C19.8434 40.2036 19.8071 40.1108 19.7708 40.018C19.7345 39.9201 19.6982 39.8222 19.6671 39.7242C19.6152 39.5851 19.5686 39.4459 19.5219 39.3067C19.4752 39.1676 19.4286 39.0233 19.3871 38.879C19.3819 38.8687 19.3767 38.8532 19.3767 38.8377C19.3352 38.7037 19.2937 38.5594 19.2523 38.4203C19.2108 38.2708 19.1693 38.1213 19.1278 37.9719C19.0138 37.5183 18.91 37.0596 18.8271 36.6009C18.8012 36.4463 18.7752 36.2916 18.7493 36.137C18.7234 35.9824 18.7026 35.8278 18.6819 35.668C17.0641 35.1114 15.5501 34.3279 14.176 33.3641C14.4094 46.8729 25.5004 57.753 39.1477 57.753C52.795 57.753 64.1245 46.6409 64.1245 32.9261C64.1245 19.2112 53.1423 8.30007 39.521 8.10422L39.5314 8.06299ZM18.6041 30.9366C18.6197 30.7871 18.6352 30.6325 18.6508 30.483C18.6663 30.3336 18.6871 30.179 18.7078 30.0295C18.7286 29.88 18.7493 29.7306 18.7752 29.5811C18.796 29.4316 18.8271 29.2822 18.853 29.1378C18.9671 28.5451 19.1019 27.9576 19.2626 27.3855C19.2989 27.2463 19.3456 27.102 19.3871 26.9577C19.4182 26.8443 19.4545 26.7361 19.4908 26.6227C19.5012 26.5763 19.5167 26.5247 19.5374 26.4835C19.5789 26.3598 19.6204 26.2361 19.6671 26.1124C19.7034 26.0042 19.7397 25.896 19.7863 25.7877C19.8122 25.7207 19.8382 25.6537 19.8641 25.5867C19.9574 25.3445 20.0508 25.1125 20.1493 24.8755C20.2685 24.6023 20.3878 24.3291 20.5226 24.0611C20.5849 23.9323 20.6471 23.8034 20.7093 23.6797C20.7456 23.5973 20.7922 23.5199 20.8337 23.4375C20.8804 23.3395 20.9322 23.2468 20.9841 23.154C20.9996 23.1231 21.0204 23.087 21.0411 23.0561C21.1086 22.9272 21.1811 22.8035 21.2537 22.6747C21.3211 22.5613 21.3885 22.4479 21.4508 22.3345C21.513 22.2366 21.57 22.1387 21.6322 22.0459C21.6893 21.9583 21.7463 21.8706 21.8033 21.7779C22.0419 21.4119 22.2908 21.0512 22.55 20.7058C22.6382 20.5873 22.7263 20.4739 22.8145 20.3554C22.8819 20.2677 22.9493 20.1801 23.0219 20.0925C23.2293 19.8348 23.4419 19.5771 23.6648 19.3297C23.753 19.2266 23.8463 19.1235 23.9396 19.0256C24.1367 18.8092 24.3389 18.603 24.5463 18.3968C24.6293 18.3144 24.7122 18.2319 24.8004 18.1494C24.9352 18.0206 25.0648 17.8917 25.1996 17.7732C25.2981 17.6804 25.3967 17.5928 25.5004 17.5052C25.6818 17.3454 25.8685 17.1908 26.05 17.0362C26.1433 16.9589 26.2418 16.8815 26.3352 16.8042C26.75 16.4744 27.1804 16.16 27.6211 15.8662C27.7455 15.7786 27.8752 15.6961 28.0048 15.6136C28.1085 15.5466 28.207 15.4848 28.3107 15.423C28.3885 15.3766 28.4663 15.325 28.544 15.2838C28.6581 15.2116 28.7722 15.1446 28.8914 15.0828C29.0366 14.9952 29.1818 14.9179 29.327 14.8405C29.4722 14.7581 29.6225 14.6808 29.7677 14.6086C29.9129 14.5313 30.0633 14.4591 30.2137 14.387C30.224 14.387 30.2292 14.3818 30.2396 14.3767C30.504 14.2478 30.7736 14.1293 31.0433 14.0107C31.2455 13.9231 31.4477 13.8407 31.6551 13.7634C31.7899 13.7067 31.9248 13.6551 32.0648 13.6087C32.184 13.5623 32.3084 13.5211 32.4277 13.4799C32.4899 13.4593 32.5522 13.4386 32.6144 13.4129C32.7492 13.3716 32.884 13.3253 33.0188 13.284C33.1796 13.2325 33.3403 13.1861 33.5062 13.1397C33.667 13.0933 33.8329 13.0469 33.9988 13.0057C34.144 12.9696 34.2892 12.9336 34.4343 12.8975C34.5432 12.8717 34.6573 12.8459 34.7662 12.8253C34.8129 12.815 34.8647 12.8047 34.9114 12.7944C34.9944 12.7789 35.0773 12.7635 35.1655 12.7429C35.3107 12.7171 35.461 12.6862 35.6062 12.6604C35.7151 12.6449 35.8188 12.6243 35.9225 12.6088C36.0366 12.5882 36.1455 12.5728 36.2595 12.5573C36.5499 12.5161 36.8403 12.48 37.1358 12.4542C36.4099 10.9853 35.4195 9.66074 34.2373 8.53716C24.3648 10.5008 16.5923 18.2422 14.653 28.0658C15.7834 29.2409 17.116 30.215 18.5989 30.9366H18.6041Z" fill="#BCCBD6"/>
<path id="Vector_20" d="M42.5802 15.2065C41.4706 14.9952 40.3299 14.8818 39.158 14.8818C38.7951 14.8818 38.4321 14.8921 38.0795 14.9127C38.3958 16.0672 38.5669 17.2836 38.5669 18.5308C38.5669 26.1382 32.3396 32.3282 24.6863 32.3282C23.4418 32.3282 22.2337 32.1633 21.0878 31.854C21.0722 32.1942 21.0619 32.5292 21.0619 32.8745C21.0619 34.0548 21.176 35.2093 21.3989 36.3277C22.4671 36.5236 23.5663 36.6215 24.6967 36.6215C34.7507 36.6215 42.9017 28.5194 42.9017 18.5257C42.9017 17.3867 42.7928 16.2785 42.5958 15.1962L42.5802 15.2065ZM24.6811 0.440186C14.6271 0.440186 6.47607 8.54233 6.47607 18.536C6.47607 23.4736 8.46715 27.9473 11.6871 31.2098C11.8064 29.2358 12.1331 27.303 12.6619 25.4373C11.4745 23.4066 10.8005 21.046 10.8005 18.536C10.8005 10.9286 17.0278 4.73865 24.6811 4.73865C27.1959 4.73865 29.5603 5.40352 31.5929 6.57349C33.4699 6.04262 35.4092 5.71276 37.3951 5.58907C34.1181 2.40387 29.6277 0.440186 24.6811 0.440186Z" fill="#BCCBD6"/>
</g>
</g>
</svg>
