<svg width="69" height="88" viewBox="0 0 69 88" fill="none" xmlns="http://www.w3.org/2000/svg">
<g id="Group">
<path id="Vector" d="M1.50194 87.7475H2.13457V84.1706H3.099V83.5779H0.537506V84.1706H1.50194V87.7475Z" fill="#BCCBD6"/>
<path id="Vector_2" d="M6.4175 87.7474L6.88412 86.7372H8.67822L9.11894 87.7474H9.81373L7.81228 83.3149L5.73822 87.7474H6.42269H6.4175ZM7.8019 84.7271L8.42415 86.1445H7.14856L7.8019 84.7271Z" fill="#BCCBD6"/>
<path id="Vector_3" d="M14.9263 84.0932C15.4189 84.0932 15.8389 84.32 16.1863 84.7787L16.6374 84.3509C16.373 84.052 16.1085 83.8355 15.8337 83.7015C15.5485 83.5675 15.2426 83.5005 14.916 83.5005C14.3041 83.5005 13.7856 83.7118 13.3604 84.1344C12.9352 84.5571 12.7226 85.0673 12.7226 85.6755C12.7226 86.2837 12.93 86.7733 13.35 87.1959C13.77 87.6186 14.273 87.8299 14.8589 87.8299C15.4448 87.8299 15.9529 87.6134 16.347 87.1753C16.5181 86.9795 16.6426 86.7733 16.7152 86.5465C16.7878 86.3043 16.8241 86.026 16.8241 85.7167V85.5776H15.0922V86.1703H16.1396C16.1085 86.4641 15.9737 86.7166 15.7248 86.9279C15.4759 87.1392 15.1959 87.2423 14.8848 87.2423C14.5167 87.2423 14.1797 87.1032 13.8686 86.8248C13.5315 86.5259 13.3655 86.1394 13.3655 85.6755C13.3655 85.2116 13.5159 84.8508 13.8167 84.5519C14.1174 84.2478 14.4907 84.0932 14.9315 84.0932H14.9263Z" fill="#BCCBD6"/>
<path id="Vector_4" d="M20.8996 83.5779V87.7475H22.7662V87.1548H21.5321V83.5779H20.8996Z" fill="#BCCBD6"/>
<path id="Vector_5" d="M26.7842 83.5779H26.1521V87.7475H26.7842V83.5779Z" fill="#BCCBD6"/>
<path id="Vector_6" d="M30.5699 87.7475H31.2076V84.8303L34.2669 88.0001V83.5779H33.6291V86.4745L30.5699 83.2944V87.7475Z" fill="#BCCBD6"/>
<path id="Vector_7" d="M38.0521 87.7475H40.3646V87.1548H38.6846V85.7632H40.318V85.1705H38.6846V84.1706H40.3646V83.5779H38.0521V87.7475Z" fill="#BCCBD6"/>
<path id="Vector_8" d="M49.6512 85.2117H47.8416V83.5779H47.209V87.7475H47.8416V85.7993H49.6512V87.7475H50.2838V83.5779H49.6512V85.2117Z" fill="#BCCBD6"/>
<path id="Vector_9" d="M56.3815 84.1706V83.5779H54.0689V87.7475H56.3815V87.1548H54.7015V85.7632H56.3348V85.1705H54.7015V84.1706H56.3815Z" fill="#BCCBD6"/>
<path id="Vector_10" d="M61.4163 85.9694C61.6963 85.9075 61.9193 85.7735 62.0904 85.5571C62.2615 85.3457 62.3444 85.0932 62.3444 84.7943C62.3444 84.418 62.2096 84.1139 61.94 83.882C61.6911 83.6758 61.2919 83.5728 60.737 83.5728H59.9955V87.7424H60.6281V86.0364H60.7422L61.94 87.7424H62.7177L61.4215 85.9694H61.4163ZM60.6281 85.4901V84.1655H60.8563C61.437 84.1655 61.7326 84.3819 61.7326 84.8046C61.7326 85.2581 61.4318 85.4901 60.8303 85.4901H60.6281Z" fill="#BCCBD6"/>
<path id="Vector_11" d="M68.4422 84.1706V83.5779H66.1295V87.7475H68.4422V87.1548H66.7622V85.7632H68.3955V85.1705H66.7622V84.1706H68.4422Z" fill="#BCCBD6"/>
<g id="Group_2">
<path id="Vector_12" d="M14.5426 38.7377L42.3764 11.0657V0L14.5426 27.6772V38.7377Z" fill="#BCCBD6"/>
<path id="Vector_13" d="M14.5426 62.7864L42.3764 35.1144V26.1721L14.5426 53.8441V62.7864Z" fill="#BCCBD6"/>
<path id="Vector_14" d="M26.6032 38.7377L54.4423 11.0657V1.76782L26.6032 29.4398V38.7377Z" fill="#BCCBD6"/>
<path id="Vector_15" d="M54.4423 25.8167L26.6032 53.4887V62.7865L54.4423 35.1145V25.8167Z" fill="#BCCBD6"/>
</g>
<path id="Vector_16" d="M1.68328 78.2588C2.04105 78.6041 2.46102 78.8721 2.95361 79.0628C3.4462 79.2535 3.98546 79.3463 4.57656 79.3463C5.16767 79.3463 5.66547 79.2381 6.15806 79.0268C6.65583 78.8103 7.07579 78.4701 7.41801 78.0011L6.298 77.2074C6.04393 77.5269 5.77433 77.764 5.48396 77.9083C5.19359 78.0526 4.89287 78.13 4.58694 78.13C4.19287 78.13 3.83506 78.0578 3.51358 77.9135C3.1921 77.7692 2.91731 77.5733 2.68916 77.3259C2.46102 77.0785 2.27952 76.7796 2.15508 76.4394C2.03063 76.0993 1.96842 75.723 1.96842 75.3159C1.96842 74.9396 2.03063 74.584 2.15508 74.2541C2.27952 73.9243 2.45583 73.6408 2.68916 73.3934C2.91731 73.146 3.1921 72.9553 3.51358 72.8161C3.83506 72.677 4.19287 72.6048 4.58694 72.6048C4.85139 72.6048 5.11584 72.6564 5.38029 72.7543C5.64473 72.8522 5.91433 73.0532 6.19432 73.3522L7.25211 72.5791C6.8736 72.1461 6.45879 71.8369 6.01805 71.6513C5.57731 71.4709 5.09508 71.3782 4.58175 71.3782C3.99065 71.3782 3.45139 71.4709 2.9588 71.6616C2.46621 71.8523 2.04106 72.1204 1.68847 72.4708C1.33069 72.8213 1.05582 73.2439 0.853602 73.7387C0.651382 74.2335 0.552887 74.785 0.552887 75.3932C0.552887 76.0013 0.651382 76.5271 0.853602 77.0115C1.05582 77.496 1.33069 77.9135 1.68847 78.2588H1.68328Z" fill="#BCCBD6"/>
<path id="Vector_17" d="M11.219 78.2588C11.5767 78.6041 11.9967 78.8721 12.4893 79.0628C12.9819 79.2535 13.5211 79.3463 14.1122 79.3463C14.7085 79.3411 15.253 79.238 15.7508 79.0422C16.2485 78.8463 16.6737 78.5732 17.0315 78.2227C17.3893 77.8722 17.6692 77.4547 17.8715 76.9703C18.0737 76.4858 18.1722 75.9446 18.1722 75.3519C18.1722 74.7592 18.0737 74.1974 17.8715 73.7026C17.6692 73.2078 17.3893 72.7903 17.0315 72.4399C16.6737 72.0894 16.2434 71.8265 15.7508 71.641C15.253 71.4606 14.7085 71.373 14.1122 71.3781C13.5211 71.3781 12.9819 71.4709 12.4893 71.6616C11.9967 71.8523 11.5715 72.1203 11.219 72.4708C10.8612 72.8213 10.5863 73.2439 10.3841 73.7387C10.1819 74.2335 10.0834 74.785 10.0834 75.3931C10.0834 76.0013 10.1819 76.527 10.3841 77.0115C10.5863 77.496 10.8612 77.9135 11.219 78.2588ZM11.6908 74.2489C11.8152 73.9191 11.9915 73.6356 12.2248 73.3882C12.453 73.1408 12.7278 72.9501 13.0493 72.811C13.3707 72.6718 13.7285 72.5996 14.1226 72.5996C14.5167 72.5996 14.8744 72.6718 15.2011 72.811C15.5226 72.9501 15.8026 73.1408 16.0307 73.3882C16.2589 73.6356 16.4404 73.9242 16.5648 74.2489C16.6892 74.5788 16.7515 74.9293 16.7515 75.3107C16.7515 75.7178 16.6892 76.0941 16.5648 76.4343C16.4404 76.7744 16.2589 77.0734 16.0307 77.3207C15.8026 77.5681 15.5226 77.7691 15.2011 77.9083C14.8796 78.0526 14.5167 78.1248 14.1226 78.1248C13.7285 78.1248 13.3707 78.0526 13.0493 77.9083C12.7278 77.764 12.453 77.5681 12.2248 77.3207C11.9967 77.0734 11.8152 76.7744 11.6908 76.4343C11.5663 76.0941 11.5041 75.7178 11.5041 75.3107C11.5041 74.9344 11.5663 74.5788 11.6908 74.2489Z" fill="#BCCBD6"/>
<path id="Vector_18" d="M23.7203 71.574H21.6515V79.1556H22.9426V72.8573H22.9633L25.2811 79.1556H26.2299L28.5477 72.8573H28.5684V79.1556H29.8595V71.574H27.8114L25.7529 76.8826L23.7203 71.574Z" fill="#BCCBD6"/>
<path id="Vector_19" d="M35.1069 76.0168H36.0765C36.4809 76.0168 36.8646 75.9859 37.2328 75.9292C37.6009 75.8725 37.9276 75.7642 38.2076 75.6045C38.4876 75.4447 38.7105 75.2179 38.8765 74.9241C39.0424 74.6303 39.1253 74.2438 39.1253 73.7696C39.1253 73.347 39.0476 72.9965 38.892 72.713C38.7365 72.4296 38.529 72.2079 38.275 72.0379C38.0157 71.8678 37.715 71.7492 37.3779 71.6771C37.0357 71.6049 36.6831 71.5688 36.315 71.5688H33.7535V79.1504H35.112V76.0116L35.1069 76.0168ZM35.1069 72.7285H36.0765C36.258 72.7285 36.4446 72.7388 36.6364 72.7594C36.8283 72.78 37.0046 72.8264 37.1653 72.9037C37.3209 72.9811 37.4505 73.0841 37.5542 73.2233C37.6527 73.3625 37.7046 73.548 37.7046 73.7851C37.7046 74.0428 37.6475 74.2438 37.5387 74.383C37.4246 74.5273 37.2846 74.6303 37.1083 74.7025C36.932 74.7747 36.7402 74.8159 36.5328 74.8314C36.3254 74.8468 36.1231 74.852 35.9313 74.852H35.112V72.7234L35.1069 72.7285Z" fill="#BCCBD6"/>
<path id="Vector_20" d="M43.0454 77.4187H46.3534L47.0638 79.1556H48.6142L45.3268 71.574H44.1549L40.8365 79.1556H42.3557L43.0454 77.4187ZM44.7046 73.1769L45.8764 76.259H43.5068L44.7046 73.1769Z" fill="#BCCBD6"/>
<path id="Vector_21" d="M51.6163 71.574V79.1556H52.9748V73.3418H52.9956L56.7652 79.1556H58.4918V71.574H57.1333V77.2022H57.1126L53.4156 71.574H51.6163Z" fill="#BCCBD6"/>
<path id="Vector_22" d="M64.2111 79.1556H65.5696V75.9085L68.4318 71.574H66.8192L64.9215 74.5942L63.0496 71.574H61.3437L64.2111 75.9085V79.1556Z" fill="#BCCBD6"/>
</g>
</svg>
