<svg width="88" height="82" viewBox="0 0 88 82" fill="none" xmlns="http://www.w3.org/2000/svg">
<g id="Group">
<path id="Vector" d="M26.6158 56.9671V56.962L24.4795 53.2871L7.56043 24.1514H3.28786L22.3433 56.962V56.9671H22.3484H26.6106H26.6158Z" fill="#BCCBD6"/>
<path id="Vector_2" d="M43.6853 56.9671V56.962L41.549 53.2871L39.4179 49.6123L37.2817 45.9426L35.1506 42.2678L33.0143 38.593L24.6299 24.1514H20.3625L30.878 42.2678L33.0143 45.9426L35.1506 49.6123L37.2817 53.2871L39.4179 56.962L39.4127 56.9671H39.4179H43.6801H43.6853Z" fill="#BCCBD6"/>
<path id="Vector_3" d="M50.0838 53.2871L47.9527 49.6123L45.8164 45.9426L43.6853 42.2678L41.549 38.593L39.4179 34.9181L37.2817 31.2433L33.1647 24.1514H28.8973L35.1454 34.9181L39.4179 42.2678L41.549 45.9426L43.6853 49.6123L45.8164 53.2871L47.9527 56.962L47.9475 56.9671H47.9527H52.2149H52.2201V56.962L50.0838 53.2871Z" fill="#BCCBD6"/>
<path id="Vector_4" d="M59.2822 0.716064H55.0148L39.4387 27.5325L41.5698 31.2073L59.2822 0.716064Z" fill="#BCCBD6"/>
<path id="Vector_5" d="M30.8832 56.9671H35.1454H35.1506V56.962L33.0143 53.2871L30.8832 49.6123L28.7469 45.9426L16.0952 24.1514H11.8278L26.6106 49.6123L28.7469 53.2871L30.8832 56.962L30.878 56.9671H30.8832Z" fill="#BCCBD6"/>
<path id="Vector_6" d="M45.8371 38.557L67.817 0.716064H63.5496L43.7061 34.8822L43.7268 34.9182L45.8371 38.557Z" fill="#BCCBD6"/>
<path id="Vector_7" d="M50.1045 45.9015L76.3517 0.716064H72.0843L47.9734 42.2267L47.9942 42.2679L50.1045 45.9015Z" fill="#BCCBD6"/>
<path id="Vector_8" d="M84.8865 0.716064H80.6191L52.2408 49.5763L52.2615 49.6124L54.3719 53.2511L84.8865 0.716064Z" fill="#BCCBD6"/>
<path id="Vector_9" d="M6.02025 72.3056C5.60025 72.6921 5.02469 72.9292 4.40247 72.9292C3.08026 72.9292 2.01213 71.8778 2.01213 70.5635C2.01213 69.2492 3.08026 68.1978 4.40247 68.1978C5.0195 68.1978 5.60025 68.44 6.02025 68.8317L7.14541 67.703C6.42986 67.0227 5.46543 66.6104 4.40766 66.6104C2.21434 66.6104 0.430664 68.3833 0.430664 70.5635C0.430664 72.7437 2.21434 74.5166 4.40766 74.5166C5.46543 74.5166 6.43505 74.0992 7.14541 73.424L6.02025 72.3056Z" fill="#BCCBD6"/>
<path id="Vector_10" d="M17.6248 66.6155C15.4315 66.6155 13.6478 68.3885 13.6478 70.5686C13.6478 72.7488 15.4315 74.5218 17.6248 74.5218C19.8181 74.5218 21.6018 72.7488 21.6018 70.5686C21.6018 68.3885 19.8181 66.6155 17.6248 66.6155ZM17.6248 72.9446C16.3026 72.9446 15.2344 71.8829 15.2344 70.5686C15.2344 69.2543 16.3026 68.2029 17.6248 68.2029C18.947 68.2029 20.0048 69.2647 20.0048 70.5686C20.0048 71.8726 18.9366 72.9446 17.6248 72.9446Z" fill="#BCCBD6"/>
<path id="Vector_11" d="M32.6669 72.3931L30.3387 66.6155H28.6277V74.5166H30.2143V70.5686L31.8061 74.5166H33.5172L35.1143 70.5686V74.5166H36.6957V66.6155H34.9846L32.6669 72.3931Z" fill="#BCCBD6"/>
<path id="Vector_12" d="M45.9512 66.6155H43.7268V74.5218H45.3134V71.3623H45.9616C47.2734 71.3623 48.3312 70.3006 48.3312 68.9966C48.3312 67.6927 47.2734 66.6206 45.9512 66.6206V66.6155ZM45.9512 69.7749H45.3134V68.1978H45.9512C46.392 68.1978 46.7497 68.5534 46.7497 68.9915C46.7497 69.4296 46.392 69.7749 45.9512 69.7749Z" fill="#BCCBD6"/>
<path id="Vector_13" d="M57.1874 66.6155L54.3149 74.5218H56.0052L56.8141 72.3107H59.2563L60.0652 74.5218H61.7555L58.883 66.6155H57.1926H57.1874ZM57.3845 70.7232L58.0222 68.9399L58.6704 70.7232H57.3793H57.3845Z" fill="#BCCBD6"/>
<path id="Vector_14" d="M75.1902 66.6155H73.6088V71.8932L70.4303 66.6155H68.5688V74.5166H70.1555V69.2543L73.3443 74.5166H75.1902V66.6155Z" fill="#BCCBD6"/>
<path id="Vector_15" d="M85.6746 74.5166V70.7542L87.7487 66.6155H85.9753L84.8864 68.8059L83.782 66.6155H82.0087L84.0879 70.7542V74.5166H85.6746Z" fill="#BCCBD6"/>
<path id="Vector_16" d="M0.415298 78.3564H1.33306V81.253H1.84639V78.3564H2.76934V77.9028H0.415298V78.3564Z" fill="#BCCBD6"/>
<path id="Vector_17" d="M6.49227 77.9028L5.26859 81.253H5.80784L6.0671 80.5056H7.34264L7.6019 81.253H8.14116L6.91746 77.9028H6.49227ZM6.21746 80.0521L6.70486 78.5883H6.71524L7.20265 80.0521H6.21746Z" fill="#BCCBD6"/>
<path id="Vector_18" d="M12.3567 79.8925H13.0411V80.0677C13.0411 80.279 12.9737 80.4491 12.8441 80.5779C12.7145 80.7119 12.5485 80.7789 12.3515 80.7789C12.2322 80.7789 12.1285 80.7532 12.0404 80.7016C11.9522 80.6604 11.8797 80.6037 11.8278 80.5316C11.7604 80.4594 11.7189 80.3666 11.6982 80.2481C11.6722 80.1295 11.6619 79.9079 11.6619 79.5781C11.6619 79.2482 11.6722 79.0266 11.6982 78.9029C11.7189 78.7895 11.7656 78.6967 11.8278 78.6246C11.8797 78.5576 11.9522 78.4957 12.0404 78.4545C12.1285 78.4081 12.2322 78.3875 12.3515 78.3823C12.5174 78.3823 12.6522 78.4339 12.7663 78.5215C12.8752 78.6142 12.953 78.7328 12.9945 78.8668H13.5337C13.4819 78.5885 13.3522 78.3514 13.1448 78.1607C12.9374 77.97 12.673 77.8772 12.3515 77.8721C12.0871 77.8721 11.8641 77.9391 11.6878 78.0628C11.5063 78.1813 11.3767 78.3205 11.2937 78.4751C11.2419 78.5576 11.2056 78.6606 11.1797 78.7946C11.1589 78.9286 11.1434 79.1863 11.1434 79.5781C11.1434 79.9698 11.1537 80.2223 11.1797 80.3563C11.19 80.4285 11.2056 80.4903 11.2263 80.5367C11.2471 80.5831 11.2678 80.6295 11.2937 80.681C11.3767 80.8356 11.5063 80.9696 11.6878 81.0882C11.8641 81.2119 12.0871 81.2737 12.3515 81.2789C12.6937 81.2737 12.9789 81.1552 13.207 80.9336C13.43 80.7068 13.5493 80.4233 13.5545 80.0883V79.408H12.3567V79.8873V79.8925Z" fill="#BCCBD6"/>
<path id="Vector_19" d="M17.5003 77.9028H16.987V81.253H19.1388V80.7736H17.5003V77.9028Z" fill="#BCCBD6"/>
<path id="Vector_20" d="M22.9754 77.9028H22.4625V81.253H22.9754V77.9028Z" fill="#BCCBD6"/>
<path id="Vector_21" d="M28.5395 80.284H28.5291L27.0047 77.9028H26.5225V81.253H27.0306V78.8769H27.041L28.5654 81.253H29.0477V77.9028H28.5395V80.284Z" fill="#BCCBD6"/>
<path id="Vector_22" d="M32.5995 81.253H34.7513V80.7736H33.1128V79.7892H34.5128V79.3408H33.1128V78.3873H34.7513V77.9028H32.5995V81.253Z" fill="#BCCBD6"/>
<path id="Vector_23" d="M43.1409 79.8925H43.8253V80.0677C43.8253 80.279 43.7579 80.4491 43.6283 80.5779C43.4986 80.7119 43.3327 80.7789 43.1357 80.7789C43.0164 80.7789 42.9127 80.7532 42.8246 80.7016C42.7364 80.6604 42.6638 80.6037 42.612 80.5316C42.5446 80.4594 42.5031 80.3666 42.4824 80.2481C42.4564 80.1295 42.4461 79.9079 42.4461 79.5781C42.4461 79.2482 42.4564 79.0266 42.4824 78.9029C42.5031 78.7895 42.5498 78.6967 42.612 78.6246C42.6638 78.5576 42.7364 78.4957 42.8246 78.4545C42.9127 78.4081 43.0164 78.3875 43.1357 78.3823C43.2964 78.3823 43.4364 78.4339 43.5505 78.5215C43.6594 78.6142 43.7372 78.7328 43.7787 78.8668H44.3179C44.266 78.5885 44.1364 78.3514 43.929 78.1607C43.7216 77.97 43.4572 77.8772 43.1357 77.8721C42.8713 77.8721 42.6483 77.9391 42.472 78.0628C42.2905 78.1813 42.1609 78.3205 42.0779 78.4751C42.0261 78.5576 41.9898 78.6606 41.9639 78.7946C41.9431 78.9286 41.9276 79.1863 41.9276 79.5781C41.9276 79.9698 41.9379 80.2223 41.9639 80.3563C41.9742 80.4285 41.9898 80.4903 42.0105 80.5367C42.0312 80.5831 42.052 80.6295 42.0779 80.681C42.1609 80.8356 42.2905 80.9696 42.472 81.0882C42.6483 81.2119 42.8713 81.2737 43.1357 81.2789C43.4779 81.2737 43.7631 81.1552 43.9912 80.9336C44.2142 80.7068 44.3334 80.4233 44.3386 80.0883V79.408H43.1409V79.8873V79.8925Z" fill="#BCCBD6"/>
<path id="Vector_24" d="M49.9178 78.4802C49.8401 78.3256 49.7104 78.1864 49.5342 78.0679C49.3579 77.9442 49.1297 77.8824 48.8653 77.8772C48.6008 77.8772 48.3779 77.9442 48.2016 78.0679C48.0201 78.1864 47.8905 78.3256 47.8075 78.4802C47.7556 78.5627 47.7194 78.6658 47.6934 78.7998C47.6727 78.9338 47.6571 79.1915 47.6571 79.5832C47.6571 79.9749 47.6675 80.2274 47.6934 80.3614C47.7038 80.4336 47.7193 80.4954 47.7401 80.5418C47.7608 80.5882 47.7816 80.6346 47.8075 80.6861C47.8905 80.8408 48.0201 80.9748 48.2016 81.0933C48.3779 81.217 48.6008 81.2789 48.8653 81.284C49.1349 81.2789 49.3579 81.2119 49.5342 81.0933C49.7104 80.9748 49.8401 80.8408 49.9178 80.6861C49.9749 80.6037 50.0164 80.4955 50.0371 80.3614C50.0579 80.2274 50.0682 79.9697 50.0682 79.5832C50.0682 79.1966 50.0579 78.9338 50.0371 78.7998C50.0164 78.6658 49.9749 78.5627 49.9178 78.4802ZM49.5186 80.2481C49.4927 80.3666 49.446 80.4594 49.3838 80.5315C49.3319 80.5985 49.2645 80.6552 49.1816 80.7016C49.0934 80.7531 48.9845 80.7789 48.8653 80.7789C48.746 80.7789 48.6423 80.7531 48.5542 80.7016C48.466 80.6604 48.3934 80.6037 48.3416 80.5315C48.2742 80.4594 48.2327 80.3666 48.2119 80.2481C48.186 80.1295 48.1756 79.9079 48.1756 79.578C48.1756 79.2482 48.186 79.0265 48.2119 78.9029C48.2327 78.7895 48.2794 78.6967 48.3416 78.6245C48.3934 78.5575 48.466 78.4957 48.5542 78.4544C48.6423 78.4081 48.746 78.3874 48.8653 78.3823C48.9845 78.3823 49.0934 78.4081 49.1816 78.4544C49.2645 78.5008 49.3319 78.5575 49.3838 78.6245C49.4512 78.6967 49.4979 78.7895 49.5186 78.9029C49.5394 79.0214 49.5549 79.2482 49.5549 79.578C49.5549 79.9079 49.5445 80.1295 49.5186 80.2481Z" fill="#BCCBD6"/>
<path id="Vector_25" d="M53.5008 81.253H55.6526V80.7736H54.0141V79.7892H55.4141V79.3408H54.0141V78.3873H55.6526V77.9028H53.5008V81.253Z" fill="#BCCBD6"/>
<path id="Vector_26" d="M60.2259 79.3461C60.0652 79.3255 59.9407 79.31 59.8474 79.2945C59.6815 79.2636 59.5622 79.2069 59.4844 79.1296C59.4067 79.0523 59.3704 78.9647 59.3704 78.8667C59.3704 78.707 59.4274 78.5833 59.5415 78.506C59.6452 78.4286 59.7748 78.3874 59.9356 78.3874C60.2415 78.3926 60.5163 78.4802 60.7704 78.6451L61.0556 78.2276C60.7445 78.006 60.3815 77.8875 59.9615 77.8823C59.6141 77.8823 59.3444 77.9751 59.1526 78.1555C58.9556 78.3359 58.857 78.573 58.857 78.8616C58.857 79.1038 58.9348 79.31 59.0904 79.4801C59.2407 79.645 59.4637 79.7532 59.7541 79.7996C59.9148 79.8202 60.0652 79.8409 60.2 79.8615C60.4956 79.913 60.6407 80.0625 60.6407 80.3099C60.6355 80.614 60.4126 80.7686 59.977 80.7737C59.6089 80.7737 59.2874 80.6603 59.0178 80.4387L58.6808 80.8201C59.0385 81.1242 59.4689 81.2788 59.9667 81.2788C60.7392 81.2685 61.1333 80.9438 61.1489 80.3047C61.1489 80.0676 61.0763 79.8615 60.9259 79.6811C60.7756 79.5007 60.5422 79.3873 60.2259 79.3409V79.3461Z" fill="#BCCBD6"/>
<path id="Vector_27" d="M70.3473 79.3408H69.0147V77.9028H68.5066V81.253H69.0147V79.7892H70.3473V81.253H70.8606V77.9028H70.3473V79.3408Z" fill="#BCCBD6"/>
<path id="Vector_28" d="M74.4124 81.253H76.5643V80.7736H74.9258V79.7892H76.3258V79.3408H74.9258V78.3873H76.5643V77.9028H74.4124V81.253Z" fill="#BCCBD6"/>
<path id="Vector_29" d="M82.2213 78.8409C82.2109 78.5316 82.102 78.2945 81.8843 78.1245C81.708 77.9801 81.4798 77.9028 81.1998 77.9028H79.8828V81.253H80.3961V79.8201H81.0495L81.7443 81.253H82.3509L81.568 79.7686C81.9984 79.6037 82.2109 79.2944 82.2213 78.8409ZM80.3961 79.3717V78.3564H81.1946C81.3554 78.3564 81.485 78.3925 81.568 78.4595C81.6769 78.5368 81.7339 78.6656 81.7391 78.8409C81.7391 78.9852 81.6924 79.1089 81.5991 79.2068C81.5058 79.315 81.3606 79.3666 81.1687 79.3717H80.3961Z" fill="#BCCBD6"/>
<path id="Vector_30" d="M85.6124 81.253H87.7642V80.7736H86.1205V79.7892H87.5257V79.3408H86.1205V78.3873H87.7642V77.9028H85.6124V81.253Z" fill="#BCCBD6"/>
</g>
</svg>
