<svg width="79" height="82" viewBox="0 0 79 82" fill="none" xmlns="http://www.w3.org/2000/svg">
<g id="Group">
<path id="Vector" d="M3.57763 75.6068C4.52651 75.6068 5.39243 75.2306 6.03539 74.6224L5.02947 73.6225C4.65096 73.9679 4.13763 74.1843 3.58282 74.1843C2.39542 74.1843 1.43617 73.2411 1.43617 72.0609C1.43617 70.8806 2.39542 69.9374 3.58282 69.9374C4.13763 69.9374 4.65614 70.1539 5.02947 70.5095L6.03539 69.4993C5.39762 68.8911 4.5317 68.5149 3.57763 68.5149C1.61246 68.5149 0.0102539 70.1023 0.0102539 72.0609C0.0102539 74.0194 1.60728 75.6068 3.57763 75.6068Z" fill="#BCCBD6"/>
<path id="Vector_2" d="M18.9984 72.0609C18.9984 70.1075 17.4013 68.5149 15.431 68.5149C13.4606 68.5149 11.8636 70.1023 11.8636 72.0609C11.8636 74.0194 13.4606 75.6068 15.431 75.6068C17.4013 75.6068 18.9984 74.0194 18.9984 72.0609ZM15.431 74.1946C14.2436 74.1946 13.2843 73.2411 13.2843 72.0609C13.2843 70.8806 14.2436 69.9374 15.431 69.9374C16.6184 69.9374 17.5673 70.8909 17.5673 72.0609C17.5673 73.2308 16.608 74.1946 15.431 74.1946Z" fill="#BCCBD6"/>
<path id="Vector_3" d="M32.5368 75.6068V68.52H31.002L28.9227 73.6998L26.8331 68.52H25.3035V75.6068H26.7242V72.0608L28.1501 75.6068H29.6849L31.116 72.0608V75.6068H32.5368Z" fill="#BCCBD6"/>
<path id="Vector_4" d="M40.2626 72.7721H40.8486C42.0256 72.7721 42.9745 71.8186 42.9745 70.6487C42.9745 69.4787 42.0256 68.5149 40.8382 68.5149H38.8419V75.6017H40.2626V72.767V72.7721ZM40.2626 69.9374H40.8382C41.2323 69.9374 41.5537 70.257 41.5537 70.6487C41.5537 71.0404 41.2323 71.3496 40.8382 71.3496H40.2626V69.9374Z" fill="#BCCBD6"/>
<path id="Vector_5" d="M52.427 68.52H50.9129L48.3359 75.6068H49.85L50.5759 73.6225H52.7692L53.4951 75.6068H55.0092L52.4322 68.52H52.427ZM51.0892 72.2052L51.6648 70.6074L52.2507 72.2052H51.0944H51.0892Z" fill="#BCCBD6"/>
<path id="Vector_6" d="M67.0543 75.6068V68.52H65.6335V73.2514L62.7817 68.52H61.1173V75.6068H62.538V70.8857L65.4002 75.6068H67.0543Z" fill="#BCCBD6"/>
<path id="Vector_7" d="M74.7594 68.52H73.1727L75.0342 72.2309V75.6068H76.4549V72.2309L78.3164 68.52H76.7246L75.7497 70.4837L74.7594 68.52Z" fill="#BCCBD6"/>
<path id="Vector_8" d="M0.829623 81.6474H1.28592V79.0498H2.11554V78.6426H0V79.0498H0.829623V81.6474Z" fill="#BCCBD6"/>
<path id="Vector_9" d="M5.45478 78.6426L4.35553 81.6474H4.84293L5.07626 80.9774H6.22218L6.45551 81.6474H6.93773L5.83848 78.6426H5.45478ZM5.20589 80.5702L5.64145 79.2559H5.65182L6.08737 80.5702H5.20589Z" fill="#BCCBD6"/>
<path id="Vector_10" d="M10.2355 79.2919C10.2821 79.23 10.3495 79.1785 10.4273 79.1373C10.5051 79.096 10.5984 79.0754 10.7073 79.0754C10.8525 79.0754 10.9769 79.1218 11.0807 79.1991C11.1792 79.2867 11.2466 79.3846 11.2829 79.5083H11.7703C11.7236 79.2558 11.6044 79.0445 11.4229 78.8744C11.2414 78.7043 11.0029 78.6219 10.7073 78.6167C10.4688 78.6167 10.2718 78.6734 10.111 78.7868C9.95029 78.895 9.83103 79.0187 9.75844 79.1579C9.71177 79.23 9.68066 79.328 9.65474 79.4465C9.634 79.565 9.62363 79.797 9.62363 80.1474C9.62363 80.4979 9.634 80.7247 9.65474 80.8432C9.66511 80.9102 9.68066 80.9618 9.69622 81.003C9.71177 81.0442 9.73251 81.0855 9.75844 81.1319C9.83103 81.271 9.95029 81.3947 10.111 81.4978C10.2718 81.606 10.4688 81.6679 10.7073 81.673C11.0132 81.6679 11.2725 81.5648 11.4747 81.3638C11.6769 81.1628 11.7806 80.9102 11.7858 80.6062V79.9928H10.7125V80.4258H11.3295V80.5804C11.3295 80.7711 11.2673 80.9205 11.1532 81.0339C11.0392 81.1525 10.8888 81.2143 10.7125 81.2143C10.6036 81.2143 10.5103 81.1937 10.4325 81.1473C10.3547 81.1112 10.2925 81.0597 10.2407 80.9979C10.1836 80.9309 10.1421 80.8484 10.1214 80.7453C10.1007 80.6422 10.0903 80.4412 10.0903 80.1474C10.0903 79.8537 10.1007 79.6527 10.1214 79.5444C10.1421 79.4413 10.1784 79.3589 10.2407 79.297L10.2355 79.2919Z" fill="#BCCBD6"/>
<path id="Vector_11" d="M14.8658 78.6426V81.6474H16.7947V81.2144H15.3221V78.6426H14.8658Z" fill="#BCCBD6"/>
<path id="Vector_12" d="M20.2269 78.6426H19.7709V81.6474H20.2269V78.6426Z" fill="#BCCBD6"/>
<path id="Vector_13" d="M25.2205 80.7763H25.2102L23.8413 78.6426H23.4109V81.6474H23.8724V79.5136H23.8776L25.2465 81.6474H25.6768V78.6426H25.2205V80.7763Z" fill="#BCCBD6"/>
<path id="Vector_14" d="M30.7946 79.0755V78.6426H28.8605V81.6474H30.7946V81.2144H29.322V80.3331H30.5768V79.9311H29.322V79.0755H30.7946Z" fill="#BCCBD6"/>
<path id="Vector_15" d="M37.7167 78.7868C37.556 78.895 37.4367 79.0187 37.3641 79.1578C37.3175 79.23 37.2863 79.3279 37.2604 79.4465C37.2397 79.565 37.2293 79.7969 37.2293 80.1474C37.2293 80.4979 37.2397 80.7247 37.2604 80.8432C37.2708 80.9102 37.2863 80.9618 37.3019 81.003C37.3175 81.0442 37.3382 81.0855 37.3641 81.1318C37.4367 81.271 37.556 81.3947 37.7167 81.4978C37.8774 81.606 38.0745 81.6679 38.313 81.673C38.6189 81.6679 38.8782 81.5648 39.0804 81.3638C39.2826 81.1628 39.3863 80.9102 39.3915 80.6061V79.9928H38.3182V80.4257H38.9352V80.5804C38.9352 80.7711 38.873 80.9205 38.7589 81.0339C38.6449 81.1525 38.4945 81.2143 38.3182 81.2143C38.2093 81.2143 38.116 81.1937 38.0382 81.1473C37.9604 81.1112 37.8982 81.0597 37.8463 80.9978C37.7893 80.9308 37.7478 80.8484 37.7271 80.7453C37.7063 80.6422 37.696 80.4412 37.696 80.1474C37.696 79.8536 37.7063 79.6526 37.7271 79.5444C37.7478 79.4413 37.7841 79.3589 37.8463 79.297C37.893 79.2352 37.9604 79.1836 38.0382 79.1424C38.116 79.1011 38.2093 79.0805 38.3182 79.0805C38.4634 79.0805 38.5878 79.1269 38.6915 79.2042C38.79 79.2919 38.8574 79.3898 38.8937 79.5135H39.3811C39.3345 79.2609 39.2152 79.0496 39.0337 78.8795C38.8523 78.7094 38.6137 78.627 38.3182 78.6218C38.0797 78.6218 37.8826 78.6785 37.7219 78.7919L37.7167 78.7868Z" fill="#BCCBD6"/>
<path id="Vector_16" d="M44.39 81.1319C44.4419 81.0597 44.4781 80.9618 44.4937 80.8432C44.5093 80.7247 44.5196 80.4928 44.5196 80.1474C44.5196 79.8021 44.5093 79.565 44.4937 79.4465C44.473 79.328 44.4367 79.2352 44.39 79.1579C44.3174 79.0187 44.2033 78.895 44.0478 78.7868C43.887 78.6785 43.6848 78.6219 43.4463 78.6167C43.2078 78.6167 43.0108 78.6734 42.85 78.7868C42.6893 78.895 42.57 79.0187 42.4974 79.1579C42.4508 79.23 42.4196 79.328 42.3937 79.4465C42.373 79.565 42.3626 79.797 42.3626 80.1474C42.3626 80.4979 42.373 80.7247 42.3937 80.8432C42.4041 80.9102 42.4196 80.9618 42.4352 81.003C42.4508 81.0442 42.4715 81.0855 42.4974 81.1319C42.57 81.271 42.6893 81.3947 42.85 81.4978C43.0108 81.606 43.2078 81.6679 43.4463 81.673C43.6848 81.6679 43.887 81.6112 44.0478 81.4978C44.2085 81.3947 44.3226 81.271 44.39 81.1319ZM43.913 80.9979C43.8663 81.0597 43.8041 81.1112 43.7315 81.1473C43.6537 81.1937 43.5552 81.2143 43.4463 81.2143C43.3374 81.2143 43.2441 81.1937 43.1663 81.1473C43.0885 81.1112 43.0263 81.0597 42.9745 80.9979C42.9174 80.9309 42.8759 80.8484 42.8552 80.7453C42.8345 80.6422 42.8241 80.4412 42.8241 80.1474C42.8241 79.8537 42.8345 79.6527 42.8552 79.5444C42.8759 79.4413 42.9122 79.3589 42.9745 79.297C43.0211 79.2352 43.0885 79.1836 43.1663 79.1424C43.2441 79.1012 43.3374 79.0806 43.4463 79.0806C43.5552 79.0806 43.6485 79.1063 43.7315 79.1424C43.8093 79.1836 43.8663 79.2352 43.913 79.297C43.97 79.364 44.0115 79.4465 44.0374 79.5444C44.0582 79.6527 44.0685 79.8537 44.0685 80.1474C44.0685 80.4412 44.0582 80.6422 44.0374 80.7453C44.0167 80.8484 43.9752 80.936 43.913 80.9979Z" fill="#BCCBD6"/>
<path id="Vector_17" d="M49.5337 79.0755V78.6426H47.6048V81.6474H49.5337V81.2144H48.0611V80.3331H49.3211V79.9311H48.0611V79.0755H49.5337Z" fill="#BCCBD6"/>
<path id="Vector_18" d="M53.407 81.2143C53.0751 81.2143 52.7899 81.1112 52.5514 80.9154L52.2507 81.2556C52.5722 81.5287 52.9559 81.6679 53.407 81.6679C54.1018 81.6576 54.4544 81.369 54.4699 80.7969C54.4699 80.5855 54.4025 80.3948 54.2677 80.2351C54.1329 80.0701 53.9255 79.9722 53.6403 79.931C53.4951 79.9155 53.381 79.8949 53.2981 79.8846C53.1477 79.8588 53.0388 79.8073 52.9714 79.7351C52.904 79.663 52.8677 79.5857 52.8677 79.498C52.8677 79.3537 52.9196 79.2455 53.0181 79.1733C53.1114 79.1012 53.2307 79.0702 53.3707 79.0702C53.6403 79.0754 53.8944 79.1527 54.1173 79.3022L54.3714 78.9259C54.0914 78.7249 53.7647 78.6219 53.3914 78.6167C53.0803 78.6167 52.8366 78.6992 52.6655 78.8589C52.4892 79.0187 52.401 79.23 52.401 79.4929C52.401 79.7094 52.4684 79.8949 52.6084 80.0495C52.7433 80.199 52.9403 80.2918 53.1996 80.3381C53.3447 80.3588 53.4796 80.3794 53.5988 80.3948C53.8633 80.4412 53.9929 80.5752 53.9929 80.7969C53.9877 81.07 53.7907 81.2092 53.3966 81.2143H53.407Z" fill="#BCCBD6"/>
<path id="Vector_19" d="M63.1706 81.6474V78.6426H62.7143V79.9311H61.5165V78.6426H61.0602V81.6474H61.5165V80.3331H62.7143V81.6474H63.1706Z" fill="#BCCBD6"/>
<path id="Vector_20" d="M68.2883 79.0755V78.6426H66.3543V81.6474H68.2883V81.2144H66.8158V80.3331H68.0706V79.9311H66.8158V79.0755H68.2883Z" fill="#BCCBD6"/>
<path id="Vector_21" d="M71.7209 80.364H72.3068L72.929 81.6474H73.4735L72.7735 80.3125C73.1572 80.163 73.3542 79.8899 73.3594 79.4775C73.349 79.1992 73.2505 78.9879 73.0586 78.8384C72.8979 78.7044 72.6957 78.6426 72.4416 78.6426H71.2646V81.6474H71.7209V80.364ZM71.7209 79.0498H72.4364C72.5816 79.0498 72.6957 79.0807 72.7735 79.1425C72.872 79.2147 72.9238 79.3281 72.9238 79.4827C72.9238 79.6115 72.8823 79.7249 72.7994 79.8125C72.7112 79.9105 72.5868 79.9569 72.4157 79.962H71.7209V79.0498Z" fill="#BCCBD6"/>
<path id="Vector_22" d="M78.3268 79.0755V78.6426H76.3979V81.6474H78.3268V81.2144H76.8594V80.3331H78.1142V79.9311H76.8594V79.0755H78.3268Z" fill="#BCCBD6"/>
<path id="Vector_23" d="M9.95546 25.1539V25.1797L9.94509 25.2157C9.93472 25.2673 9.92954 25.3188 9.92435 25.3652V25.3755C9.92435 25.3755 9.92435 25.3961 9.92435 25.4064C9.92435 25.4374 9.91398 25.4683 9.91398 25.4992L9.90361 25.5765V25.592L9.89843 25.6178V25.6332V25.6435V25.6487V25.6744V25.6951V25.7105C9.88806 25.8085 9.8725 25.9064 9.86213 26.0043C9.85176 26.0919 9.84139 26.1795 9.83102 26.2672C9.83102 26.3032 9.82583 26.3342 9.82065 26.3651V26.3702C9.81028 26.4785 9.79472 26.5867 9.78435 26.6898C9.77398 26.7671 9.7688 26.8496 9.76361 26.932V26.9423L9.75324 27.0197C9.75324 27.0506 9.74806 27.0815 9.74287 27.1124C9.74287 27.1433 9.73769 27.1794 9.7325 27.2104C9.7325 27.2258 9.7325 27.2464 9.7325 27.2619C9.7325 27.2877 9.7325 27.3134 9.72732 27.3392C9.72732 27.3701 9.72732 27.4011 9.72213 27.4371C9.72213 27.4526 9.72213 27.4681 9.72213 27.4835C9.71176 27.5917 9.70658 27.7051 9.69621 27.8391C9.69621 27.901 9.69102 27.9577 9.68583 28.0092C9.68583 28.0659 9.68065 28.1278 9.67546 28.1845V28.1948V28.2051C9.67546 28.2051 9.67546 28.2205 9.67546 28.2309C9.67546 28.2463 9.67546 28.2566 9.67546 28.2721V28.2875V28.3082C9.67546 28.3752 9.67028 28.437 9.66509 28.504C9.66509 28.5298 9.66509 28.5607 9.66509 28.5865C9.66509 28.705 9.65472 28.8184 9.65472 28.9318C9.65472 28.9473 9.65472 28.9679 9.65472 28.9885V29.0297C9.65472 29.1225 9.65472 29.2204 9.65472 29.3132V29.3647V29.3905V29.4884C9.65472 29.5194 9.65472 29.5451 9.65472 29.5761C9.65472 29.5967 9.65472 29.6173 9.65472 29.6379C9.65472 29.6585 9.65472 29.6791 9.65472 29.6998C9.65472 29.7255 9.65472 29.7564 9.65472 29.7822V29.9523C9.73769 35.5393 11.9932 40.7809 15.9962 44.7031C20.0043 48.6357 25.3139 50.8004 30.9449 50.8004C31.8419 50.8004 32.7286 50.7437 33.6049 50.6354C34.0042 50.5839 34.3982 50.5324 34.7923 50.4602C31.8782 48.7078 29.3583 46.3627 27.3775 43.5435C26.6568 42.523 26.0242 41.4509 25.4798 40.348C25.3553 40.1006 25.2413 39.848 25.1272 39.5955C25.1168 39.5697 25.1013 39.5388 25.0909 39.513C23.7116 36.4258 22.9909 33.0808 22.9909 29.6379C22.9909 24.6333 24.5102 19.8246 27.3827 15.7323C28.0412 14.7943 28.762 13.9078 29.5397 13.078C32.0597 10.3773 35.1501 8.28473 38.6345 6.94469C39.6923 6.53752 40.7656 6.20766 41.8648 5.94996C43.69 5.52217 45.567 5.31086 47.47 5.31086C51.9188 5.31086 56.1914 6.48598 59.9247 8.68675C59.9247 8.68675 59.9247 8.68675 59.9195 8.68159C59.8884 8.65067 59.8469 8.61459 59.8158 8.57852C59.7691 8.53213 59.7225 8.4909 59.6758 8.44451C59.6602 8.42905 59.6447 8.41874 59.6343 8.40328L59.6239 8.39297L59.6188 8.38266C59.5773 8.34658 59.5306 8.30535 59.4891 8.26412C59.4425 8.22289 59.401 8.18165 59.3543 8.13527V8.12496L59.3439 8.11465C59.3439 8.11465 59.3284 8.09919 59.318 8.09404C59.2662 8.04765 59.2143 7.99611 59.1625 7.94972L59.1521 7.93941L59.0847 7.87757C59.0847 7.87757 59.0639 7.85695 59.0484 7.84664C58.9706 7.77964 58.898 7.71264 58.8254 7.64563C58.7373 7.56832 58.6543 7.49617 58.5765 7.42916C58.5506 7.40855 58.5247 7.38278 58.4936 7.36216C58.4365 7.31578 58.3795 7.26424 58.3225 7.21785L58.2084 7.12508L58.1462 7.07354L58.0995 7.0323L58.0736 7.01169C58.0062 6.95499 57.9388 6.90345 57.8714 6.84676L57.861 6.83645L57.8558 6.82614H57.8454C57.7936 6.77976 57.7469 6.73852 57.6951 6.70245C57.5343 6.57359 57.3684 6.44474 57.2025 6.32105V6.31589C57.1558 6.27981 57.1143 6.24889 57.0677 6.21281L57.0106 6.17158L56.9795 6.14581C56.9795 6.14581 56.964 6.1355 56.9588 6.13035C56.9588 6.13035 56.9588 6.13035 56.9536 6.12519L56.9484 6.12004L56.938 6.10973L56.8447 6.04273L56.8084 6.01696L56.6788 5.92419C56.6788 5.92419 56.6529 5.90357 56.6373 5.89326C56.6114 5.8778 56.5906 5.85718 56.5647 5.84172L56.5129 5.80564C56.461 5.76957 56.4143 5.73349 56.3625 5.69741C56.3521 5.6871 56.3366 5.68195 56.3262 5.67164L56.3106 5.66133L56.3003 5.65102C56.1758 5.5634 56.0566 5.48094 55.9321 5.39332C55.8751 5.35209 55.8232 5.31601 55.7662 5.27478C55.7506 5.26447 55.7403 5.25416 55.7247 5.24901C55.6418 5.19747 55.5588 5.14077 55.4758 5.08408C55.4758 5.08408 55.4655 5.07892 55.4603 5.07377H55.4551H55.4447C55.4447 5.07377 55.4084 5.048 55.3929 5.03254C55.3306 4.99131 55.2736 4.95523 55.2114 4.91915H55.201V4.914H55.1906C55.1025 4.84699 55.0092 4.79545 54.921 4.73876H54.9106V4.7336L54.9003 4.7233C54.8069 4.6666 54.7136 4.60475 54.6203 4.55321L54.4699 4.46559C54.4699 4.46559 54.4232 4.43467 54.4025 4.42436C54.3766 4.4089 54.3455 4.38828 54.3144 4.37282H54.3092C54.2936 4.36251 54.2729 4.35221 54.2573 4.3419C54.1899 4.30066 54.1225 4.26459 54.0551 4.22335L54.0033 4.19243C54.0033 4.19243 53.9566 4.16666 53.9358 4.1512C53.8736 4.11512 53.8114 4.07904 53.7492 4.04296C53.744 4.04296 53.7388 4.03781 53.7284 4.03266C53.3084 3.80072 52.8833 3.57395 52.4529 3.36263C52.4425 3.36263 52.4321 3.35232 52.4218 3.34717H52.4114C52.3181 3.29563 52.2247 3.24924 52.1262 3.20286L51.8722 3.08431C51.8722 3.08431 51.8566 3.074 51.8514 3.074C51.8514 3.074 51.841 3.074 51.8359 3.06885H51.8307C51.5299 2.92454 51.2551 2.806 50.9907 2.69261H50.9855L50.9803 2.68745H50.9751H50.9699C50.9077 2.65653 50.8403 2.63076 50.7781 2.60499L50.7522 2.59468L50.7314 2.58437L50.6174 2.53798C50.5759 2.52252 50.5344 2.50706 50.4929 2.48645C50.4722 2.47614 50.4566 2.47098 50.4359 2.46583C50.1507 2.35244 49.9174 2.25967 49.7048 2.18236L49.5751 2.13597H49.5596L49.4248 2.07928C49.0618 1.95043 48.6885 1.82157 48.31 1.70303C48.3048 1.70303 48.2996 1.70303 48.2892 1.69788C48.2166 1.67726 48.144 1.65149 48.0766 1.63087C48.004 1.61026 47.9314 1.58449 47.8537 1.56387C47.8122 1.54841 47.7655 1.5381 47.724 1.52264C47.5581 1.47625 47.4026 1.42987 47.2574 1.38864H47.2522H47.247C47.2263 1.38348 47.2055 1.37833 47.1848 1.37317C47.1537 1.36287 47.1174 1.35771 47.0863 1.3474H47.0655L47.0344 1.33194C46.7233 1.24948 46.407 1.17732 46.0907 1.10001C45.9041 1.05878 45.7174 1.01755 45.5307 0.976313C45.2144 0.90931 44.8981 0.842308 44.5767 0.785613C44.4574 0.764997 44.3381 0.744381 44.2189 0.723765H44.2137C44.0944 0.703149 43.9752 0.682533 43.8559 0.667071C43.7989 0.656762 43.747 0.651608 43.69 0.6413C43.6226 0.630992 43.55 0.620684 43.4826 0.610376C43.1404 0.56399 42.7982 0.522757 42.4559 0.486679C41.7922 0.419677 41.1285 0.373291 40.4597 0.34752C40.0863 0.332058 39.7182 0.326904 39.3448 0.326904C38.7174 0.326904 38.0952 0.34752 37.4678 0.388753C37.4004 0.388753 37.3382 0.393906 37.2708 0.39906C36.5812 0.445447 35.8915 0.517604 35.2123 0.610376C35.0879 0.625838 34.9686 0.646454 34.8441 0.661916C34.8441 0.661916 34.839 0.661916 34.8338 0.661916L9.95546 25.1487V25.159V25.1539Z" fill="#BCCBD6"/>
<path id="Vector_24" d="M68.3817 34.0806V34.06L68.3868 34.0342C68.392 33.993 68.3972 33.9517 68.4024 33.9105V33.9002V33.8847V33.8693C68.4128 33.8177 68.4231 33.761 68.4283 33.7043V33.6683L68.4387 33.6322C68.4387 33.6167 68.4387 33.5961 68.4491 33.5806L68.4698 33.3951L68.4854 33.2714C68.5009 33.1477 68.5165 33.0343 68.5268 32.9209V32.9055C68.5424 32.7972 68.5528 32.6942 68.5631 32.5911C68.5735 32.5035 68.5787 32.421 68.5891 32.3437L68.5994 32.2612C68.6046 32.2045 68.6098 32.1478 68.615 32.0911V32.0705V32.0499C68.6254 31.9777 68.6254 31.9004 68.6305 31.8283V31.7973C68.6409 31.6891 68.6513 31.5757 68.6565 31.4469V31.4366C68.6668 31.3232 68.672 31.2098 68.6772 31.0964V31.0655V31.0191V30.9727C68.6876 30.8799 68.6876 30.7872 68.6928 30.6892C68.6928 30.5604 68.7031 30.4418 68.7031 30.3181V30.3027V30.246C68.7031 30.1584 68.7031 30.0707 68.7031 29.9831V29.8697C68.7031 29.7924 68.7031 29.7203 68.7031 29.643C68.7031 29.5657 68.7031 29.4832 68.7031 29.4059V29.3234C68.6202 23.7364 66.3698 18.4999 62.3669 14.5726C58.3588 10.64 53.0492 8.47534 47.4129 8.47534C46.1115 8.47534 44.8255 8.58873 43.5656 8.82066C46.4796 10.573 49.0048 12.9181 50.9803 15.7374C53.8529 19.8297 55.3721 24.6384 55.3721 29.643C55.3721 34.6475 53.8529 39.4562 50.9803 43.5485C48.1752 47.5429 44.2863 50.5838 39.7286 52.3362C36.9182 53.4185 33.9471 53.97 30.8983 53.97C26.4494 53.97 22.1768 52.7949 18.4435 50.5993H18.4487L18.4643 50.6199L18.4798 50.6353C18.4798 50.6353 18.5161 50.6714 18.5317 50.6869L18.5887 50.7436C18.6354 50.79 18.6821 50.8364 18.7339 50.8827L18.7443 50.893L18.7547 50.9034C18.8324 50.9807 18.9258 51.0683 19.0191 51.1507L19.0346 51.1611L19.045 51.1714C19.1072 51.2281 19.1643 51.2848 19.2265 51.3414L19.2317 51.3518C19.3406 51.4497 19.4443 51.5476 19.5583 51.6404H19.5635L19.5687 51.6507C19.6413 51.7125 19.7139 51.7795 19.7865 51.8414L19.802 51.8517L19.8487 51.8929L20.0613 52.0733L20.1028 52.1094L20.1132 52.1197C20.1702 52.1661 20.2272 52.2125 20.2843 52.2589L20.305 52.2743L20.3257 52.2949C20.3776 52.3362 20.4295 52.3826 20.4917 52.429L20.5124 52.4444L20.5332 52.4599C20.5798 52.496 20.6213 52.532 20.6628 52.5681L20.6783 52.5784L20.6887 52.5887C20.8443 52.7176 21.0102 52.8413 21.1761 52.965C21.2124 52.9959 21.2487 53.0217 21.285 53.0474C21.3265 53.0784 21.368 53.1093 21.4094 53.1402C21.4354 53.1557 21.4561 53.1711 21.4769 53.1917L21.5183 53.2227C21.5857 53.2742 21.648 53.3206 21.7154 53.3721L21.7776 53.4185C21.8087 53.4443 21.845 53.4649 21.8761 53.4907L21.8865 53.501L21.902 53.5113C21.9487 53.5474 22.0006 53.5835 22.0524 53.6195L22.1043 53.6556C22.2235 53.7432 22.348 53.8257 22.4724 53.9133H22.4828L22.4931 53.9288C22.545 53.9649 22.602 54.0009 22.6591 54.037L22.7005 54.0628L22.8354 54.1504L22.9805 54.2483C23.0531 54.2947 23.1309 54.3463 23.2087 54.3926C23.2865 54.4442 23.3642 54.4906 23.4368 54.5369H23.6235L23.9605 54.8565C24.0124 54.8874 24.0642 54.9184 24.1161 54.9493C24.2198 55.0111 24.3235 55.0678 24.4272 55.1245H24.4376L24.4479 55.1348C24.5309 55.1812 24.6087 55.2276 24.6916 55.274C25.1272 55.5214 25.5679 55.7533 26.0139 55.9698C26.1124 56.0162 26.2109 56.0677 26.3042 56.1141C26.3198 56.1244 26.3353 56.1296 26.3457 56.1347C26.439 56.1759 26.5272 56.2223 26.6205 56.2636C26.9005 56.3924 27.1857 56.5213 27.4605 56.6398H27.4657H27.4709C27.5383 56.6707 27.6109 56.7016 27.6783 56.7274C27.699 56.7377 27.7198 56.7429 27.7457 56.7583C27.839 56.7944 27.9324 56.8357 28.0257 56.8717C28.2538 56.9645 28.4975 57.0573 28.7568 57.1552H28.7672L28.7775 57.1604C28.8553 57.1913 28.9383 57.2222 29.016 57.248H29.0264L29.0368 57.2531C29.4153 57.3923 29.7886 57.516 30.1464 57.6294H30.1568L30.1672 57.6397C30.2397 57.6655 30.3123 57.6861 30.3849 57.7118H30.3953H30.4057C30.5146 57.7479 30.6234 57.7788 30.7323 57.8149L30.8257 57.8407C30.9553 57.8768 31.0901 57.9128 31.2197 57.9489C31.2923 57.9695 31.3597 57.985 31.422 58.0056H31.4375C32.2516 58.2272 33.0812 58.4128 33.8953 58.5519H33.9056H33.916C34.0145 58.5674 34.1234 58.588 34.253 58.6086H34.2686C34.3982 58.6344 34.5123 58.6499 34.6108 58.6653H34.6264H34.6419C34.756 58.686 34.8701 58.7014 34.9893 58.7169H34.9997C36.3634 58.9076 37.753 59.0055 39.1323 59.0055C40.5115 59.0055 41.9063 58.9076 43.27 58.722H43.3011C43.41 58.7014 43.5189 58.686 43.6278 58.6705H43.6433H43.6537L68.3454 34.127C68.3454 34.127 68.3454 34.096 68.3505 34.0857L68.3817 34.0806Z" fill="#BCCBD6"/>
</g>
</svg>
