<svg width="75" height="80" viewBox="0 0 75 80" fill="none" xmlns="http://www.w3.org/2000/svg">
<g id="Group">
<g id="Group_2">
<path id="Vector" d="M23.0754 19.9739H24.1436V21.0305V37.3585L28.9709 32.5652V15.1755H12.0881L12.0829 49.3519L16.9103 44.5535V21.0305V19.9739H17.9784H23.0754Z" fill="#BCCBD6"/>
<path id="Vector_2" d="M42.0997 38.879H43.1679V39.9407V45.0071V46.0689H42.0997H20.8925L16.0651 50.8673L47.99 50.8621V34.0806H32.9531L28.1258 38.879H42.0997Z" fill="#BCCBD6"/>
<path id="Vector_3" d="M58.3344 19.1906V20.2523H57.2663H46.8649L42.0427 25.0456H63.1566V4.05835L58.3344 8.8516V19.1906Z" fill="#BCCBD6"/>
<path id="Vector_4" d="M56.81 4.89335L61.6322 0.100098H38.0605V23.5252L42.8879 18.7319V5.95508V4.89335H43.9508H56.81Z" fill="#BCCBD6"/>
</g>
<path id="Vector_5" d="M0.851921 77.0653H1.74375V79.8742H2.24154V77.0653H3.1334V76.6272H0.851921V77.0653Z" fill="#BCCBD6"/>
<path id="Vector_6" d="M7.70667 79.1475H8.94593L9.19999 79.8742H9.7237L8.53631 76.6272H8.12151L6.93409 79.8742H7.45779L7.70667 79.1475ZM8.3237 77.2921H8.33408L8.80592 78.7094H7.85187L8.3237 77.2921Z" fill="#BCCBD6"/>
<path id="Vector_7" d="M14.6703 77.3283C14.7222 77.2613 14.7896 77.2046 14.8777 77.1634C14.9607 77.1221 15.0592 77.0964 15.1785 77.0964C15.3392 77.0964 15.4688 77.1427 15.5829 77.2304C15.6866 77.3231 15.7644 77.4314 15.8007 77.5654H16.3244C16.2725 77.2922 16.1481 77.0654 15.9459 76.8799C15.7488 76.6995 15.4896 76.6067 15.1733 76.6016C14.914 76.6016 14.7014 76.6634 14.5303 76.782C14.354 76.9005 14.2296 77.0345 14.1518 77.184C14.1052 77.2613 14.0637 77.3644 14.0429 77.4932C14.0222 77.6221 14.0118 77.8746 14.0118 78.2509C14.0118 78.6271 14.0222 78.8745 14.0429 79.0033C14.0533 79.0755 14.0688 79.1322 14.0896 79.1786C14.1103 79.225 14.1311 79.2714 14.157 79.3177C14.2348 79.4672 14.3644 79.6012 14.5355 79.7146C14.7066 79.8331 14.9192 79.895 15.1785 79.9001C15.5103 79.895 15.7903 79.7816 16.0081 79.5651C16.2259 79.3435 16.34 79.0755 16.3451 78.7456V78.0859H15.1837V78.5498H15.8474V78.7199C15.8474 78.9209 15.78 79.0858 15.6555 79.2095C15.5311 79.3384 15.3703 79.4054 15.1785 79.4054C15.0644 79.4054 14.9607 79.3796 14.8777 79.3332C14.7948 79.292 14.7222 79.2353 14.6703 79.1683C14.6081 79.0961 14.5615 79.0085 14.5407 78.8951C14.5148 78.7817 14.5044 78.5653 14.5044 78.2457C14.5044 77.9262 14.5148 77.7097 14.5407 77.5911C14.5615 77.4829 14.6029 77.3901 14.6703 77.3231V77.3283Z" fill="#BCCBD6"/>
<path id="Vector_8" d="M22.2043 76.6272V79.8742H24.2888V79.4104H22.6969V76.6272H22.2043Z" fill="#BCCBD6"/>
<path id="Vector_9" d="M29.375 76.6272H28.8828V79.8742H29.375V76.6272Z" fill="#BCCBD6"/>
<path id="Vector_10" d="M36.142 78.9362L34.6643 76.6272H34.1976V79.8742H34.6902V77.5652H34.7005L36.1783 79.8742H36.645V76.6272H36.1524V78.9362H36.142Z" fill="#BCCBD6"/>
<path id="Vector_11" d="M43.5516 77.0911V76.6272H41.4672V79.8742H43.5516V79.4104H41.9597V78.4569H43.3183V78.0188H41.9597V77.0911H43.5516Z" fill="#BCCBD6"/>
<path id="Vector_12" d="M53.8441 79.8742V76.6272H53.3463V78.0188H52.0552V76.6272H51.5574V79.8742H52.0552V78.4569H53.3463V79.8742H53.8441Z" fill="#BCCBD6"/>
<path id="Vector_13" d="M60.7455 77.0911V76.6272H58.6611V79.8742H60.7455V79.4104H59.1588V78.4569H60.5121V78.0188H59.1588V77.0911H60.7455Z" fill="#BCCBD6"/>
<path id="Vector_14" d="M66.9729 78.4311C67.3877 78.2713 67.6003 77.9775 67.6054 77.5343C67.5951 77.2353 67.4862 77.0034 67.284 76.8436C67.1077 76.7045 66.8899 76.6323 66.6151 76.6323H65.3395V79.8794H65.8321V78.4878H66.4647L67.1388 79.8794H67.7299L66.9729 78.4362V78.4311ZM65.8321 78.0497V77.0653H66.6099C66.7706 77.0653 66.8899 77.0962 66.9729 77.1632C67.0818 77.2353 67.1336 77.359 67.1388 77.5291C67.1388 77.6683 67.0921 77.7868 67.0039 77.8848C66.9106 77.9878 66.7707 78.0394 66.5892 78.0445H65.8373L65.8321 78.0497Z" fill="#BCCBD6"/>
<path id="Vector_15" d="M72.2721 79.8742H74.3565V79.4104H72.7646V78.4569H74.1231V78.0188H72.7646V77.0911H74.3565V76.6272H72.2721V79.8742Z" fill="#BCCBD6"/>
<path id="Vector_16" d="M5.56004 70.5711C5.30597 71.0608 4.89634 71.3082 4.33116 71.3082C3.76598 71.3082 3.32525 71.1329 3.00377 70.7825C2.68229 70.432 2.52152 69.963 2.52152 69.3806C2.52152 68.7982 2.68229 68.3291 3.00377 67.9787C3.32525 67.6282 3.77117 67.453 4.33116 67.453C4.89116 67.453 5.30597 67.7003 5.56004 68.1848H7.52001C7.29186 67.4839 6.88225 66.9376 6.30151 66.5458C5.72077 66.1541 5.05187 65.9531 4.30521 65.9531C3.34078 65.9531 2.52153 66.2778 1.85265 66.9221C1.18377 67.5663 0.851921 68.3858 0.851921 69.3806C0.851921 70.3753 1.18377 71.1896 1.85265 71.839C2.52153 72.4833 3.34078 72.808 4.30521 72.808C5.05187 72.808 5.72077 72.6121 6.30151 72.2153C6.88225 71.8236 7.29186 71.2721 7.52001 70.5763H5.56004V70.5711Z" fill="#BCCBD6"/>
<path id="Vector_17" d="M18.9221 69.3806C18.9221 68.391 18.5903 67.5715 17.9266 66.9221C17.2629 66.2778 16.4488 65.9531 15.4792 65.9531C14.5096 65.9531 13.6903 66.2778 13.0214 66.9221C12.3526 67.5663 12.0207 68.3858 12.0207 69.3806C12.0207 70.3753 12.3526 71.1948 13.0214 71.839C13.6903 72.4884 14.5096 72.8131 15.474 72.8131C16.4385 72.8131 17.2577 72.4884 17.9214 71.839C18.5851 71.1896 18.9169 70.3701 18.9169 69.3806H18.9221ZM16.7703 70.7825C16.4488 71.1329 16.0133 71.3082 15.474 71.3082C14.9348 71.3082 14.4992 71.1329 14.1778 70.7825C13.8563 70.432 13.6955 69.963 13.6955 69.3806C13.6955 68.7982 13.8563 68.3291 14.1778 67.9787C14.4992 67.6282 14.9348 67.453 15.474 67.453C16.0133 67.453 16.4488 67.6282 16.7703 67.9787C17.0918 68.3291 17.2525 68.7982 17.2525 69.3806C17.2525 69.963 17.0918 70.432 16.7703 70.7825Z" fill="#BCCBD6"/>
<path id="Vector_18" d="M31.4443 66.051H29.5621L27.6332 70.669L25.6939 66.051H23.8117V72.7461H25.4554V68.9682L27.0213 72.7461H28.2399L29.8006 68.9682V72.7461H31.4443V66.051Z" fill="#BCCBD6"/>
<path id="Vector_19" d="M38.3612 70.1434H39.3775C39.8442 70.1434 40.2486 70.0764 40.5909 69.9372C40.9331 69.798 41.1923 69.6228 41.3634 69.4063C41.6901 68.9888 41.8509 68.5508 41.8509 68.0972C41.8509 67.5303 41.6331 67.0458 41.1975 66.6489C40.762 66.2469 40.1553 66.0459 39.3723 66.0459H36.7124V72.741H38.3509V70.1382L38.3612 70.1434ZM38.3612 67.2932H39.3775C39.6212 67.2932 39.8131 67.3705 39.9635 67.52C40.1086 67.6746 40.1864 67.8704 40.1864 68.1075C40.1864 68.3446 40.1138 68.5404 39.9686 68.6848C39.8235 68.8291 39.6264 68.9064 39.3775 68.9064H38.3612V67.2932Z" fill="#BCCBD6"/>
<path id="Vector_20" d="M50.3856 66.0305H48.3893L46.0508 72.7462H47.7982L48.1715 71.6175H50.5878L50.9663 72.7462H52.7189L50.3908 66.0305H50.3856ZM48.5812 70.3805L49.3797 67.9994L50.1782 70.3805H48.5863H48.5812Z" fill="#BCCBD6"/>
<path id="Vector_21" d="M63.3899 72.7462V66.0305H61.7462V70.2568L59.0033 66.0305H57.3596V72.7462H59.0033V68.5199L61.7462 72.7462H63.3899Z" fill="#BCCBD6"/>
<path id="Vector_22" d="M71.2454 69.0713L69.9543 66.051H68.0929L70.421 70.5917V72.7461H72.0647V70.5917L74.3928 66.051H72.5313L71.2454 69.0713Z" fill="#BCCBD6"/>
</g>
</svg>
