<svg width="154" height="44" viewBox="0 0 154 44" fill="none" xmlns="http://www.w3.org/2000/svg">
<g id="Group 168">
<g id="Group">
<path id="Vector" d="M72.7812 14.9072C72.2909 17.8728 69.7888 19.4544 66.1201 19.4544C61.9612 19.4544 59.1886 17.222 59.1886 13.5398C59.1886 9.85763 61.9105 7.6582 66.1032 7.6582C69.6282 7.6582 72.2994 9.09977 72.7474 12.1312H69.6113C69.2478 10.6237 67.9376 9.79997 66.1201 9.79997C63.4574 9.79997 62.2655 11.6122 62.2655 13.5563C62.2655 15.6322 63.6349 17.3291 66.1371 17.3291C67.9376 17.3291 69.2393 16.5053 69.6113 14.9072H72.7812Z" fill="black"/>
<path id="Vector_2" d="M78.0559 14.7836L72.8657 7.97119H76.3822L79.5014 12.4442L82.5952 7.97119H86.0357L80.8708 14.7836V19.1578H78.0559V14.7836Z" fill="black"/>
<path id="Vector_3" d="M86.8472 7.96289H94.5395C96.7711 7.96289 98.1067 8.96787 98.1067 10.8048C98.1067 11.8757 97.5995 12.716 96.4837 13.2102C97.8869 13.4573 98.6139 14.8248 98.6139 15.8627C98.6139 17.7409 97.4051 19.1577 94.5057 19.1577H86.8472V7.96289ZM93.1701 12.4771C94.3451 12.4771 95.1143 12.1805 95.1143 11.2497C95.1143 10.3188 94.0661 10.0388 93.2462 10.0388H89.6451V12.4771H93.1701ZM93.5167 17.0571C94.903 17.0571 95.5708 16.7771 95.5708 15.7556C95.5708 14.8577 94.996 14.4047 93.6097 14.4047H89.6451V17.0571H93.5167Z" fill="black"/>
<path id="Vector_4" d="M100.465 7.96289H110.871V10.1541H103.272V12.3453H110.102V14.4129H103.272V16.9912H110.888V19.166H100.474V7.97113L100.465 7.96289Z" fill="black"/>
<path id="Vector_5" d="M112.714 7.96289H119.949C123.026 7.96289 124.142 9.12439 124.142 10.9778C124.142 12.3865 123.474 13.2926 122.037 13.8033C123.407 14.1328 123.677 15.0307 123.77 16.6947C123.838 17.955 123.88 18.6058 124.311 19.166H121.192C120.981 18.7129 120.998 18.4328 120.922 17.2878C120.812 15.5002 120.33 15.0225 118.91 15.0225H115.52V19.166H112.714V7.97113V7.96289ZM118.893 12.8725C119.882 12.8725 121.091 12.6253 121.091 11.4721C121.091 10.187 119.975 10.1376 118.512 10.1376H115.52V12.8725H118.901H118.893Z" fill="black"/>
<path id="Vector_6" d="M68.6222 36.0777C67.6839 36.6049 66.3314 36.885 64.9113 36.885C62.8065 36.885 61.0229 36.2342 60.0677 35.0974C59.6366 34.5538 59.3999 33.8536 59.3661 32.9557H60.9722C60.9722 33.6559 61.2427 34.2243 61.7499 34.6938C62.4684 35.3281 63.5842 35.6246 64.9874 35.6246C65.9764 35.6246 66.8471 35.5011 67.4557 35.1881C68.0897 34.8503 68.5377 34.2902 68.5377 33.59C68.5377 32.7086 67.7262 32.1813 66.2892 31.8354C65.1142 31.5388 63.88 31.3988 62.6543 31.094C61.0652 30.7068 59.7887 29.8831 59.7887 28.4415C59.7887 26.2833 61.9527 25.1465 64.6915 25.1465C67.6501 25.1465 69.6451 26.3245 69.7127 28.6557H68.1066C67.9967 27.1317 66.7034 26.3739 64.6324 26.3739C62.8995 26.3739 61.4963 26.9752 61.4963 28.285C61.4963 29.0923 62.274 29.5453 63.6264 29.8666C64.8014 30.1302 66.0018 30.3197 67.2613 30.6245C68.9012 31.0446 70.2368 31.9754 70.2368 33.4994C70.2368 34.5702 69.5352 35.534 68.6138 36.0777H68.6222Z" fill="black"/>
<path id="Vector_7" d="M72.7305 36.5718V25.377H82.1726V26.6373H74.4296V30.2042H81.7584V31.4645H74.4296V35.3114H82.3586V36.5718H72.722H72.7305Z" fill="black"/>
<path id="Vector_8" d="M94.5057 32.4285H96.2301C95.8497 35.3034 93.8548 36.8851 90.4651 36.8851C88.7575 36.8851 87.2613 36.3743 86.2301 35.6C84.9537 34.5456 84.2098 32.8816 84.2098 31.0693C84.2098 29.2571 84.9706 27.5931 86.2639 26.5057C87.3036 25.6985 88.8252 25.1548 90.5834 25.1548C93.4997 25.1548 95.5538 26.3822 96.0272 28.804H94.3028C94.1084 28.0132 93.728 27.4531 93.1109 27.0659C92.4854 26.6623 91.5217 26.4151 90.4651 26.4151C87.4558 26.4151 85.9088 28.4004 85.9088 31.0117C85.9088 33.623 87.4896 35.6412 90.5412 35.6412C92.1472 35.6412 93.3898 34.9245 94.0154 33.9525C94.2098 33.5653 94.4296 33.0216 94.5057 32.445V32.4285Z" fill="black"/>
<path id="Vector_9" d="M104.066 36.8849C100.685 36.8849 98.6477 35.5174 98.6477 32.8979V25.3853H100.355V32.8979C100.355 33.9523 100.846 34.7019 101.758 35.1632C102.367 35.4763 103.128 35.6328 104.066 35.6328C106.374 35.6328 107.684 34.636 107.684 32.8979V25.3853H109.392V32.8979C109.392 35.4268 107.388 36.8849 104.075 36.8849H104.066Z" fill="black"/>
<path id="Vector_10" d="M121.725 36.5718C121.513 36.2423 121.243 35.5174 121.217 34.8337C121.201 34.6771 121.184 34.463 121.15 33.7793C121.04 32.6013 120.482 31.7775 118.808 31.7775H114.252V36.5718H112.545V25.377H118.724C121.353 25.377 123.069 26.4808 123.069 28.3425C123.069 29.644 122.35 30.6078 120.803 31.102C121.437 31.275 121.953 31.5551 122.24 31.8929C122.578 32.313 122.705 32.9061 122.747 33.7216C122.798 34.7019 122.891 35.6739 123.449 36.5635H121.716L121.725 36.5718ZM120.423 26.975C119.789 26.6455 118.859 26.6373 118.141 26.6373H114.252V30.5172H118.343C120 30.5172 121.336 30.0971 121.336 28.5649C121.336 27.8812 120.998 27.321 120.414 26.9833L120.423 26.975Z" fill="black"/>
<path id="Vector_11" d="M126.103 36.5718V25.377H127.811V36.5718H126.103Z" fill="black"/>
<path id="Vector_12" d="M135.985 26.6373V36.5718H134.278V26.6373H129.704V25.377H140.55V26.6373H135.977H135.985Z" fill="black"/>
<path id="Vector_13" d="M147.988 32.0823H147.972V36.5718H146.264V32.0823H146.247C144.48 29.8499 142.68 27.6093 140.913 25.377H143.035L147.126 30.7643H147.194L151.192 25.377H153.212L147.988 32.0823Z" fill="black"/>
</g>
<g id="Group_2">
<path id="Vector_14" d="M45.4692 26.613C45.4692 7.25481 45.4692 0.565918 45.4692 0.565918H0V43.5659C0 43.5659 9.45057 43.5659 29.7211 43.5659C40.1522 43.5659 45.4692 37.9314 45.4692 26.613Z" fill="#D41434"/>
<path id="Vector_15" d="M45.4692 0.565918H0V43.5659L45.4692 0.565918Z" fill="#FF6D86" fill-opacity="0.42"/>
<g id="Group_3">
<path id="Vector_16" d="M31.2342 35.4354C33.5825 35.4354 35.4861 33.5803 35.4861 31.2919C35.4861 29.0035 33.5825 27.1484 31.2342 27.1484C28.8859 27.1484 26.9823 29.0035 26.9823 31.2919C26.9823 33.5803 28.8859 35.4354 31.2342 35.4354Z" fill="white"/>
<path id="Vector_17" d="M21.716 34.439C23.4994 34.439 24.9451 33.0301 24.9451 31.2923C24.9451 29.5544 23.4994 28.1455 21.716 28.1455C19.9326 28.1455 18.4869 29.5544 18.4869 31.2923C18.4869 33.0301 19.9326 34.439 21.716 34.439Z" fill="white"/>
<path id="Vector_18" d="M12.1217 33.2444C13.2282 33.2444 14.1251 32.3704 14.1251 31.2921C14.1251 30.2139 13.2282 29.3398 12.1217 29.3398C11.0153 29.3398 10.1183 30.2139 10.1183 31.2921C10.1183 32.3704 11.0153 33.2444 12.1217 33.2444Z" fill="white"/>
<path id="Vector_19" d="M12.1217 16.6869C14.47 16.6869 16.3736 14.8318 16.3736 12.5434C16.3736 10.255 14.47 8.3999 12.1217 8.3999C9.77346 8.3999 7.86981 10.255 7.86981 12.5434C7.86981 14.8318 9.77346 16.6869 12.1217 16.6869Z" fill="white"/>
<path id="Vector_20" d="M21.716 15.69C23.4994 15.69 24.9451 14.2811 24.9451 12.5432C24.9451 10.8053 23.4994 9.39648 21.716 9.39648C19.9326 9.39648 18.4869 10.8053 18.4869 12.5432C18.4869 14.2811 19.9326 15.69 21.716 15.69Z" fill="white"/>
<path id="Vector_21" d="M31.2342 14.4959C32.3407 14.4959 33.2376 13.6218 33.2376 12.5436C33.2376 11.4654 32.3407 10.5913 31.2342 10.5913C30.1278 10.5913 29.2308 11.4654 29.2308 12.5436C29.2308 13.6218 30.1278 14.4959 31.2342 14.4959Z" fill="white"/>
<path id="Vector_22" d="M12.1217 25.3941C13.9051 25.3941 15.3508 23.9852 15.3508 22.2473C15.3508 20.5094 13.9051 19.1006 12.1217 19.1006C10.3383 19.1006 8.89264 20.5094 8.89264 22.2473C8.89264 23.9852 10.3383 25.3941 12.1217 25.3941Z" fill="white"/>
<path id="Vector_23" d="M21.716 25.3941C23.4994 25.3941 24.9451 23.9852 24.9451 22.2473C24.9451 20.5094 23.4994 19.1006 21.716 19.1006C19.9326 19.1006 18.4869 20.5094 18.4869 22.2473C18.4869 23.9852 19.9326 25.3941 21.716 25.3941Z" fill="white"/>
<path id="Vector_24" d="M31.2342 25.3941C33.0176 25.3941 34.4633 23.9852 34.4633 22.2473C34.4633 20.5094 33.0176 19.1006 31.2342 19.1006C29.4508 19.1006 28.0051 20.5094 28.0051 22.2473C28.0051 23.9852 29.4508 25.3941 31.2342 25.3941Z" fill="white"/>
</g>
</g>
</g>
</svg>
