<svg width="36" height="39" viewBox="0 0 36 39" fill="none" xmlns="http://www.w3.org/2000/svg">
<g id="diagram 1" clip-path="url(#clip0_0_566)">
<path id="Vector" d="M3.06077 0.565918H11.1379C12.8256 0.565918 14.1987 2.01526 14.1987 3.79673V13.0641C13.2397 13.6887 12.4287 14.5428 11.8348 15.5534H3.0607C1.37299 15.5534 -7.24792e-05 14.1041 -7.24792e-05 12.3226V3.79673C-1.90735e-06 2.01526 1.37306 0.565918 3.06077 0.565918ZM1.54687 12.3226C1.54687 13.2037 2.22602 13.9206 3.06077 13.9206H12.6519V3.79673C12.6519 2.91561 11.9727 2.19873 11.138 2.19873H3.06084C2.22602 2.19873 1.54687 2.91561 1.54687 3.79673V12.3226Z" fill="#D41434"/>
<path id="Vector_2" d="M24.1351 23.5784H32.9392C34.6269 23.5784 36 25.0278 36 26.8093V35.3351C36 37.1166 34.6269 38.566 32.9392 38.566H24.8621C23.1744 38.566 21.8013 37.1166 21.8013 35.3351V26.0479C22.7472 25.4252 23.5474 24.5785 24.1351 23.5784ZM23.3481 35.3351C23.3481 36.2163 24.0273 36.9331 24.862 36.9331H32.9392C33.774 36.9331 34.4531 36.2163 34.4531 35.3351V26.8093C34.4531 25.9281 33.774 25.2113 32.9392 25.2113H23.3482V35.3351H23.3481Z" fill="#D41434"/>
<path id="Vector_3" d="M27.1493 9.0918H30.5804C31.0075 9.0918 31.3538 9.45732 31.3538 9.9082C31.3538 10.3591 31.0075 10.7246 30.5804 10.7246H27.1493C26.7222 10.7246 26.3759 10.3591 26.3759 9.9082C26.3759 9.45732 26.7222 9.0918 27.1493 9.0918Z" fill="black"/>
<path id="Vector_4" d="M8.85066 10.7246H5.41962C4.99247 10.7246 4.64619 10.3591 4.64619 9.9082C4.64619 9.45732 4.99247 9.0918 5.41962 9.0918H8.85066C9.27781 9.0918 9.6241 9.45732 9.6241 9.9082C9.6241 10.3591 9.27781 10.7246 8.85066 10.7246Z" fill="black"/>
<path id="Vector_5" d="M3.06078 23.5783H11.8349C11.1492 22.4117 10.7527 21.0369 10.7527 19.5659C10.7527 15.3564 13.9971 11.9318 17.985 11.9318C19.3848 11.9318 20.6928 12.3542 21.8012 13.084V3.79673C21.8012 2.01526 23.1744 0.565918 24.8621 0.565918H32.9392C34.6269 0.565918 36 2.01526 36 3.79673V12.3226C36 14.1041 34.6269 15.5534 32.9392 15.5534H24.1352C24.8208 16.7201 25.2174 18.0949 25.2174 19.5658C25.2174 23.7754 21.9729 27.2 17.985 27.2C16.5978 27.2 15.3008 26.7853 14.1988 26.0676V35.335C14.1988 37.1164 12.8257 38.5658 11.138 38.5658H3.06084C1.37306 38.5659 0 37.1166 0 35.3351V26.8092C0 25.0278 1.37306 23.5783 3.06078 23.5783ZM34.4531 12.3226V3.79673C34.4531 2.91561 33.774 2.19873 32.9392 2.19873H24.8621C24.0273 2.19873 23.3482 2.91561 23.3482 3.79673V13.9206H32.9392C33.774 13.9207 34.4531 13.2037 34.4531 12.3226ZM23.6704 19.5659C23.6704 16.2567 21.12 13.5646 17.985 13.5646C14.85 13.5646 12.2996 16.2567 12.2996 19.5659C12.2996 22.8751 14.85 25.5672 17.985 25.5672C21.12 25.5672 23.6704 22.8751 23.6704 19.5659ZM1.54688 35.3351C1.54688 36.2162 2.22602 36.9331 3.06078 36.9331H11.1379C11.9727 36.9331 12.6518 36.2162 12.6518 35.3351V25.2111H3.06078C2.22602 25.2111 1.54688 25.928 1.54688 26.8092V35.3351Z" fill="black"/>
<path id="Vector_6" d="M27.1493 32.0288H30.5804C31.0075 32.0288 31.3538 32.3943 31.3538 32.8452C31.3538 33.2961 31.0075 33.6616 30.5804 33.6616H27.1493C26.7222 33.6616 26.3759 33.2961 26.3759 32.8452C26.3759 32.3943 26.7222 32.0288 27.1493 32.0288Z" fill="black"/>
<path id="Vector_7" d="M5.41962 32.0288H8.85066C9.27781 32.0288 9.6241 32.3943 9.6241 32.8452C9.6241 33.2961 9.27781 33.6616 8.85066 33.6616H5.41962C4.99247 33.6616 4.64619 33.2961 4.64619 32.8452C4.64619 32.3943 4.99247 32.0288 5.41962 32.0288Z" fill="black"/>
<path id="Vector_8" d="M16.8563 20.5603H19.1436C19.5708 20.5603 19.9171 20.9258 19.9171 21.3767C19.9171 21.8276 19.5708 22.1931 19.1436 22.1931H16.8563C16.4291 22.1931 16.0829 21.8276 16.0829 21.3767C16.0829 20.9258 16.4291 20.5603 16.8563 20.5603Z" fill="black"/>
<path id="Vector_9" d="M28.8648 7.10332C28.4376 7.10332 28.0912 6.73774 28.0912 6.28677C28.0912 5.8358 28.4376 5.47021 28.8648 5.47021C29.2921 5.47021 29.6384 5.8358 29.6384 6.28677C29.6384 6.73774 29.2921 7.10332 28.8648 7.10332Z" fill="black"/>
<path id="Vector_10" d="M7.13531 7.10327C6.70816 7.10327 6.36188 6.73775 6.36188 6.28687C6.36188 5.83598 6.70816 5.47046 7.13531 5.47046C7.56247 5.47046 7.90875 5.83598 7.90875 6.28687C7.90875 6.73775 7.56247 7.10327 7.13531 7.10327Z" fill="black"/>
<path id="Vector_11" d="M7.13517 30.0396C6.70813 30.0396 6.36195 29.6742 6.36195 29.2234C6.36195 28.7726 6.70813 28.4072 7.13517 28.4072C7.56222 28.4072 7.9084 28.7726 7.9084 29.2234C7.9084 29.6742 7.56222 30.0396 7.13517 30.0396Z" fill="black"/>
<path id="Vector_12" d="M28.8648 30.0398C28.4376 30.0398 28.0913 29.6743 28.0913 29.2234C28.0913 28.7725 28.4376 28.407 28.8648 28.407C29.2919 28.407 29.6382 28.7725 29.6382 29.2234C29.6382 29.6743 29.2919 30.0398 28.8648 30.0398Z" fill="black"/>
<path id="Vector_13" d="M18 18.5715C17.5728 18.5715 17.2266 18.206 17.2266 17.7551C17.2266 17.3042 17.5728 16.9387 18 16.9387C18.4272 16.9387 18.7734 17.3042 18.7734 17.7551C18.7734 18.206 18.4272 18.5715 18 18.5715Z" fill="black"/>
</g>
<defs>
<clipPath id="clip0_0_566">
<rect width="36" height="38" fill="white" transform="matrix(-1 0 0 1 36 0.565918)"/>
</clipPath>
</defs>
</svg>
