<svg width="31" height="31" viewBox="0 0 31 31" fill="none" xmlns="http://www.w3.org/2000/svg">
<g id="brand-google-big-query(1) 1" clip-path="url(#clip0_0_788)">
<path id="Vector" d="M22.9013 25.6719C22.6488 26.1158 22.2826 26.4844 21.8403 26.7398C21.3981 26.9952 20.8958 27.1282 20.3851 27.125H10.9779C10.4631 27.1241 9.95798 26.9848 9.51552 26.7217C9.07305 26.4585 8.70952 26.0812 8.46301 25.6292L2.94501 16.9105C2.70769 16.4783 2.58327 15.9931 2.58327 15.5C2.58327 15.0069 2.70769 14.5217 2.94501 14.0895L8.46301 5.37075C8.70973 4.91927 9.07314 4.54229 9.51528 4.27919C9.95742 4.01608 10.4621 3.8765 10.9766 3.875H20.3864C21.4313 3.875 22.3936 4.44721 22.9013 5.37075L28.0421 14.0895C28.2875 14.5345 28.4161 15.0344 28.4161 15.5426C28.4161 16.0508 28.2875 16.5507 28.0421 16.9957L22.9013 25.7145V25.6719Z" stroke="#D41434" stroke-width="2" stroke-linecap="round" stroke-linejoin="round"/>
<path id="Vector_2" d="M10.3333 14.8542C10.3333 16.0532 10.8096 17.2031 11.6575 18.0509C12.5053 18.8987 13.6552 19.375 14.8542 19.375C16.0532 19.375 17.2031 18.8987 18.0509 18.0509C18.8987 17.2031 19.375 16.0532 19.375 14.8542C19.375 13.6552 18.8987 12.5053 18.0509 11.6575C17.2031 10.8097 16.0532 10.3334 14.8542 10.3334C13.6552 10.3334 12.5053 10.8097 11.6575 11.6575C10.8096 12.5053 10.3333 13.6552 10.3333 14.8542Z" stroke="#D41434" stroke-width="2" stroke-linecap="round" stroke-linejoin="round"/>
<path id="Vector_3" d="M18.0833 18.0834L20.6667 20.6667" stroke="#D41434" stroke-width="2" stroke-linecap="round" stroke-linejoin="round"/>
</g>
<defs>
<clipPath id="clip0_0_788">
<rect width="31" height="31" fill="white"/>
</clipPath>
</defs>
</svg>
