<svg width="32" height="32" viewBox="0 0 32 32" fill="none" xmlns="http://www.w3.org/2000/svg">
<g id="brand-openvpn 1" clip-path="url(#clip0_0_783)">
<rect width="32" height="32" fill="white"/>
<path id="Vector" d="M20.824 26.9906L17.9 19.5213C18.6836 19.0985 19.3038 18.4263 19.6622 17.6112C20.0207 16.7962 20.0969 15.8848 19.8789 15.0215C19.6609 14.1582 19.161 13.3923 18.4585 12.8452C17.756 12.2981 16.8911 12.001 16.0007 12.001C15.1103 12.001 14.2453 12.2981 13.5428 12.8452C12.8403 13.3923 12.3405 14.1582 12.1224 15.0215C11.9044 15.8848 11.9807 16.7962 12.3391 17.6112C12.6976 18.4263 13.3177 19.0985 14.1013 19.5213L11.1773 26.9919" stroke="#D41434" stroke-width="2" stroke-linecap="round" stroke-linejoin="round"/>
<path id="Vector_2" d="M4 16C4 17.5759 4.31039 19.1363 4.91345 20.5922C5.5165 22.0481 6.40042 23.371 7.51472 24.4853C8.62902 25.5996 9.95189 26.4835 11.4078 27.0866C12.8637 27.6896 14.4241 28 16 28C17.5759 28 19.1363 27.6896 20.5922 27.0866C22.0481 26.4835 23.371 25.5996 24.4853 24.4853C25.5996 23.371 26.4835 22.0481 27.0866 20.5922C27.6896 19.1363 28 17.5759 28 16C28 14.4241 27.6896 12.8637 27.0866 11.4078C26.4835 9.95189 25.5996 8.62902 24.4853 7.51472C23.371 6.40042 22.0481 5.5165 20.5922 4.91345C19.1363 4.31039 17.5759 4 16 4C14.4241 4 12.8637 4.31039 11.4078 4.91345C9.95189 5.5165 8.62902 6.40042 7.51472 7.51472C6.40042 8.62902 5.5165 9.95189 4.91345 11.4078C4.31039 12.8637 4 14.4241 4 16Z" stroke="#D41434" stroke-width="2" stroke-linecap="round" stroke-linejoin="round"/>
</g>
<defs>
<clipPath id="clip0_0_783">
<rect width="32" height="32" fill="white"/>
</clipPath>
</defs>
</svg>
