<svg width="32" height="32" viewBox="0 0 32 32" fill="none" xmlns="http://www.w3.org/2000/svg">
<g id="analyze 1" clip-path="url(#clip0_0_718)">
<rect width="32" height="32" fill="white"/>
<path id="Vector" d="M26.6667 14.6667C26.3405 12.3205 25.252 10.1466 23.5689 8.47981C21.8857 6.81305 19.7013 5.74588 17.352 5.44266C15.254 5.16965 13.122 5.51927 11.221 6.44805C9.32008 7.37684 7.73402 8.84383 6.66 10.6667" stroke="#D41434" stroke-width="2" stroke-linecap="round" stroke-linejoin="round"/>
<path id="Vector_2" d="M5.33333 17.3334C5.64179 19.5535 6.63338 21.6227 8.17062 23.254C9.70786 24.8853 11.7146 25.9978 13.9125 26.4374C16.1105 26.877 18.3907 26.6218 20.4371 25.7073C22.4835 24.7927 24.1947 23.2641 25.3333 21.3334" stroke="#D41434" stroke-width="2" stroke-linecap="round" stroke-linejoin="round"/>
<path id="Vector_3" d="M24 21.3333C24 21.687 24.1405 22.0261 24.3905 22.2761C24.6406 22.5262 24.9797 22.6667 25.3333 22.6667C25.687 22.6667 26.0261 22.5262 26.2761 22.2761C26.5262 22.0261 26.6667 21.687 26.6667 21.3333C26.6667 20.9797 26.5262 20.6406 26.2761 20.3905C26.0261 20.1405 25.687 20 25.3333 20C24.9797 20 24.6406 20.1405 24.3905 20.3905C24.1405 20.6406 24 20.9797 24 21.3333Z" stroke="#D41434" stroke-width="2" stroke-linecap="round" stroke-linejoin="round"/>
<path id="Vector_4" d="M5.33333 10.6667C5.33333 11.0203 5.4738 11.3595 5.72385 11.6095C5.9739 11.8596 6.31304 12 6.66666 12C7.02028 12 7.35942 11.8596 7.60947 11.6095C7.85952 11.3595 7.99999 11.0203 7.99999 10.6667C7.99999 10.3131 7.85952 9.97395 7.60947 9.7239C7.35942 9.47385 7.02028 9.33337 6.66666 9.33337C6.31304 9.33337 5.9739 9.47385 5.72385 9.7239C5.4738 9.97395 5.33333 10.3131 5.33333 10.6667Z" stroke="#D41434" stroke-width="2" stroke-linecap="round" stroke-linejoin="round"/>
<path id="Vector_5" d="M12 16C12 17.0609 12.4214 18.0783 13.1716 18.8284C13.9217 19.5786 14.9391 20 16 20C17.0609 20 18.0783 19.5786 18.8284 18.8284C19.5786 18.0783 20 17.0609 20 16C20 14.9391 19.5786 13.9217 18.8284 13.1716C18.0783 12.4214 17.0609 12 16 12C14.9391 12 13.9217 12.4214 13.1716 13.1716C12.4214 13.9217 12 14.9391 12 16Z" stroke="#D41434" stroke-width="2" stroke-linecap="round" stroke-linejoin="round"/>
</g>
<defs>
<clipPath id="clip0_0_718">
<rect width="32" height="32" fill="white"/>
</clipPath>
</defs>
</svg>
