<svg width="61" height="63" viewBox="0 0 61 63" fill="none" xmlns="http://www.w3.org/2000/svg">
<g id="Inner Shield" style="mix-blend-mode:overlay">
<path d="M5.27219 7.4032C4.50413 7.50251 3.55112 8.10171 3.17062 8.38889C2.52497 8.81002 1.92328 9.63745 1.5831 10.1413C1.24292 10.6451 0.978331 11.4628 0.872497 12.4997C0.766662 13.5365 0.963208 16.6761 1.00101 17.8444C1.0388 19.0126 1.19757 21.4879 1.28829 22.5758C1.379 23.6637 1.7721 26.5551 1.93841 27.592C2.10472 28.6288 2.78508 31.4034 3.06479 32.557C3.34449 33.7107 4.31212 36.3538 4.75058 37.544C5.18904 38.7341 5.80137 39.917 6.20959 40.7713C6.61781 41.6255 7.45692 43.1005 8.00877 44.0935C8.56063 45.0865 9.57362 46.4665 10.0952 47.2185C10.5942 47.9379 11.5634 49.0848 12.3216 49.9819L12.4236 50.1026C13.1947 51.0153 14.2077 52.0741 14.9712 52.8334C15.7347 53.5928 17.4129 55.0531 18.6754 56.1118C19.9378 57.1705 21.1927 57.8788 22.1377 58.4848C23.0826 59.0909 24.8138 60.1058 26.0763 60.7556C27.3387 61.4054 29.6973 62.0918 30.8842 62.121C32.071 62.1502 33.2654 61.7121 34.0592 61.4492C34.853 61.1864 37.3325 59.8137 38.1036 59.3902C38.8747 58.9667 41.0292 57.5794 41.5508 57.2363C42.0724 56.8931 44.2874 55.0677 44.7485 54.6807C45.2096 54.2937 47.0693 52.6144 47.6211 52.0814C48.173 51.5483 49.6396 49.942 50.1914 49.3141C50.7433 48.6861 51.7789 47.3354 52.2174 46.7877C52.6558 46.2401 53.495 44.8382 53.8654 44.3052C54.2358 43.7722 55.8762 40.6982 56.3601 39.7271C56.8439 38.756 57.426 37.2081 57.7057 36.4926C57.9854 35.777 58.9454 32.4402 59.1647 31.6662C59.3839 30.8923 59.7241 29.0888 59.8602 28.4097C59.9962 27.7307 60.0945 26.5259 60.2608 25.8031C60.4271 25.0802 60.533 23.2913 60.6161 22.218C60.6993 21.1447 60.7446 19.4288 60.7673 18.6841C60.79 17.9393 60.8127 16.7492 60.8883 15.3108C60.9639 13.8723 60.8354 12.5727 60.5178 11.4482C60.2003 10.3238 59.1496 9.32348 58.6355 8.85618C58.1215 8.38888 57.2067 7.95079 56.4281 7.69524C55.6495 7.43968 54.7952 7.33746 53.7596 7.33746H50.0478C49.2011 7.33746 47.4246 7.34476 45.8522 7.28635C44.2798 7.22794 43.1383 6.77524 41.9817 6.42477C40.8251 6.07429 39.2678 5.24191 38.3757 4.6943C37.4837 4.14668 35.8811 3.05875 34.853 2.28479C33.8249 1.51082 32.827 1.13847 32.4112 0.985136C31.9954 0.831804 30.7405 0.736884 29.6519 0.882906C28.3517 1.10925 26.7339 2.23368 25.6756 2.95653C24.6172 3.67939 22.9466 4.69433 21.5632 5.42449C20.1798 6.15464 18.5091 6.62923 17.0576 6.98701C15.6062 7.34479 14.6839 7.30096 13.8977 7.33017C13.1115 7.35938 9.1276 7.30827 8.228 7.33017C7.32841 7.35208 6.23227 7.27906 5.27219 7.4032Z" fill="#D41434"/>
</g>
</svg>
