<svg width="40" height="41" viewBox="0 0 40 41" fill="none" xmlns="http://www.w3.org/2000/svg">
<g id="rocket 1" clip-path="url(#clip0_0_585)">
<g id="Group">
<path id="Vector" d="M9.91641 30.7043L9.91618 30.7042C10.7515 31.5395 10.7515 32.8986 9.91626 33.7338C9.79282 33.8573 9.65485 33.9654 9.50602 34.0553C9.41587 34.1116 9.30954 34.1578 9.20954 34.2068L3.06251 37.5022C3.12337 37.3838 6.37571 31.4969 6.43837 31.3609C6.54579 31.1151 6.69649 30.8941 6.88633 30.7042C7.30399 30.2866 7.85258 30.0777 8.40126 30.0777C8.94993 30.0777 9.49852 30.2866 9.91618 30.7042L9.91602 30.7041L7.6461 28.4341C6.92188 28.5774 6.2311 28.9288 5.67102 29.4888C5.33868 29.8211 5.07274 30.2065 4.88016 30.6346L0.15696 39.2169C-0.0266336 39.5504 0.0311007 39.9649 0.298835 40.2356C0.464382 40.403 0.685866 40.4907 0.910085 40.4906C1.04844 40.4906 1.1879 40.4573 1.31587 40.3886L9.99462 35.7361C10.421 35.5435 10.8011 35.2789 11.1316 34.9493C11.6916 34.3892 12.043 33.6985 12.1863 32.9742L9.91641 30.7043Z" fill="#D41434"/>
<g id="Group_2">
<path id="Vector_2" d="M25.2556 20.0059C22.7853 20.0571 20.5627 17.8896 20.6122 15.3648C20.5954 11.2609 25.6421 9.17141 28.5389 12.0816C30.3401 13.8098 30.3403 16.9199 28.5389 18.6482C27.6337 19.5534 26.4446 20.0059 25.2556 20.0059ZM25.2556 12.4416C23.6999 12.4093 22.2997 13.7747 22.331 15.3648C22.331 16.1459 22.6352 16.8804 23.1876 17.4327C25.0122 19.2655 28.1909 17.9496 28.1802 15.3647C28.2112 13.7748 26.8114 12.4092 25.2556 12.4416Z" fill="black"/>
</g>
<path id="Vector_3" d="M38.8055 8.92202C39.9987 4.63975 40.0005 1.57014 40.0001 1.44155C39.9991 1.2078 39.903 0.984363 39.7337 0.823035C39.5645 0.661707 39.3368 0.576551 39.1033 0.586473C34.6757 0.779754 30.436 1.80413 26.502 3.63124C21.6773 5.91507 17.5868 9.05507 14.3016 13.4153L7.24125 13.072C6.99883 13.0597 6.7632 13.1514 6.59188 13.3227L0.251719 19.6627C0.0292967 19.8851 -0.0538283 20.2112 0.0349999 20.513C0.123828 20.8148 0.37039 21.0439 0.677812 21.1104L8.45 22.791C7.28313 24.9643 6.55375 26.5069 6.54406 26.5275C6.38945 26.8555 6.45734 27.2452 6.71375 27.5016L9.91609 30.704L9.91625 30.7041L9.91648 30.7043L13.1855 33.9733C13.455 34.243 13.8692 34.3013 14.2008 34.1223C14.3677 34.0323 15.7956 33.2608 17.7644 32.1315L19.4378 39.8703C19.5683 40.5248 20.4191 40.7773 20.8855 40.2963L27.2255 33.9563C27.3969 33.7849 27.4879 33.549 27.4762 33.3069L27.133 26.249C33.3357 21.8836 36.9512 15.3469 38.8055 8.92202ZM37.1336 8.51858C36.8398 9.56546 36.4516 10.7475 35.9402 12.0112L28.5437 4.61475C31.6128 3.35827 34.8645 2.60116 38.2396 2.3578C38.1553 3.54116 37.9011 5.78311 37.1336 8.51858ZM7.53789 14.8073L13.1006 15.0777C11.9008 16.8051 10.5145 19.0637 9.31188 21.2189L2.58156 19.7636L7.53789 14.8073ZM9.95961 23.618L12.8733 26.5317L10.5239 28.8812L8.36141 26.7187C8.66617 26.0984 9.22281 24.989 9.95961 23.618ZM13.9459 32.3031L11.7393 30.0965L14.0887 27.7471L16.9528 30.6112C15.6375 31.367 14.5608 31.9651 13.9459 32.3031ZM25.7408 33.0101L20.7845 37.9665L19.3267 31.2249C21.2566 30.0921 23.466 28.7448 25.4681 27.4016L25.7408 33.0101ZM29.0846 22.4522C27.0073 24.5296 22.2326 27.5197 18.4903 29.718L15.304 26.5317L19.4455 22.3901C19.7812 22.0545 19.7811 21.5104 19.4455 21.1748C19.1099 20.8392 18.5658 20.8392 18.2302 21.1748L14.0886 25.3163L10.8207 22.0483C12.7534 18.5988 15.4734 14.2305 18.1681 11.5357C20.722 8.98178 23.6459 6.90788 26.862 5.36389L35.2002 13.7019C33.8709 16.5233 31.9259 19.6109 29.0846 22.4522Z" fill="black"/>
</g>
</g>
<defs>
<clipPath id="clip0_0_585">
<rect width="40" height="40" fill="white" transform="translate(0 0.565918)"/>
</clipPath>
</defs>
</svg>
