<svg width="43" height="47" viewBox="0 0 43 47" fill="none" xmlns="http://www.w3.org/2000/svg">
<g id="social-media 1" clip-path="url(#clip0_0_544)">
<g id="_x3C_Group_x3E__19_">
<g id="Population_1_">
<g id="Group">
<path id="Vector" d="M21.5 27.2942C24.5214 27.2942 26.9796 29.9238 26.9796 33.156V34.843C27.6332 34.478 28.2517 34.0505 28.8272 33.5669V33.156C28.8272 28.8339 25.5402 25.3176 21.5 25.3176C17.4598 25.3176 14.1728 28.8339 14.1728 33.156V33.5669C14.7483 34.0505 15.3668 34.478 16.0204 34.843V33.156C16.0204 29.9238 18.4786 27.2942 21.5 27.2942Z" fill="black"/>
<path id="Vector_2" d="M28.278 36.336C28.3383 36.3072 28.3949 36.2714 28.4475 36.23C28.3912 36.2656 28.3348 36.3012 28.278 36.336Z" fill="black"/>
<path id="Vector_3" d="M14.5519 36.2302C14.6045 36.2716 14.6611 36.3074 14.7215 36.3362C14.6646 36.3014 14.6082 36.2658 14.5519 36.2302Z" fill="black"/>
</g>
<g id="Group_2">
<path id="Vector_4" d="M21.5 24.5541C18.872 24.5541 16.7341 22.267 16.7341 19.4558C16.7341 16.6446 18.8721 14.3574 21.5 14.3574C24.1279 14.3574 26.2659 16.6446 26.2659 19.4558C26.2659 22.267 24.128 24.5541 21.5 24.5541ZM21.5 16.334C19.8909 16.334 18.5818 17.7345 18.5818 19.4558C18.5818 21.1771 19.8909 22.5776 21.5 22.5776C23.1091 22.5776 24.4182 21.1771 24.4182 19.4558C24.4182 17.7345 23.1091 16.334 21.5 16.334Z" fill="black"/>
</g>
</g>
<g id="Group_3">
<g id="Group_4">
<path id="Vector_5" d="M12.471 12.5094L8.72388 8.50074C9.23366 7.68927 9.53172 6.7133 9.53172 5.66419C9.53172 2.85307 7.39373 0.565918 4.76586 0.565918C2.13799 0.565918 0 2.85307 0 5.66428C0 8.47549 2.13799 10.7626 4.76586 10.7626C5.74655 10.7626 6.65879 10.4439 7.41742 9.89844L11.1645 13.9071C11.5704 13.4106 12.007 12.9437 12.471 12.5094ZM4.76586 8.78608C3.15672 8.78608 1.84766 7.3856 1.84766 5.66428C1.84766 3.94297 3.15672 2.54248 4.76586 2.54248C6.37492 2.54248 7.68407 3.94297 7.68407 5.66428C7.68407 7.3856 6.37492 8.78608 4.76586 8.78608Z" fill="black"/>
<path id="Vector_6" d="M38.2341 36.3693C37.2535 36.3693 36.3412 36.6881 35.5826 37.2335L31.8355 33.2249C31.4296 33.7213 30.993 34.1882 30.5289 34.6226L34.276 38.6312C33.7663 39.4427 33.4682 40.4186 33.4682 41.4677C33.4682 44.279 35.6062 46.5661 38.2341 46.5661C40.862 46.566 43 44.2789 43 41.4677C43 38.6564 40.862 36.3693 38.2341 36.3693ZM38.2341 44.5895C36.6251 44.5895 35.3159 43.189 35.3159 41.4677C35.3159 39.7463 36.625 38.3459 38.2341 38.3459C39.8433 38.3459 41.1523 39.7463 41.1523 41.4677C41.1523 43.189 39.8433 44.5895 38.2341 44.5895Z" fill="black"/>
<path id="Vector_7" d="M11.1645 33.2249L7.41742 37.2335C6.65887 36.6881 5.74655 36.3693 4.76586 36.3693C2.13799 36.3693 0 38.6564 0 41.4677C0 44.2789 2.13799 46.566 4.76586 46.566C7.39373 46.566 9.53172 44.2789 9.53172 41.4677C9.53172 40.4186 9.23375 39.4427 8.72388 38.6311L12.471 34.6225C12.007 34.1882 11.5704 33.7213 11.1645 33.2249ZM4.76586 44.5895C3.15672 44.5895 1.84766 43.189 1.84766 41.4677C1.84766 39.7463 3.15672 38.3459 4.76586 38.3459C6.37492 38.3459 7.68407 39.7463 7.68407 41.4677C7.68407 43.189 6.37492 44.5895 4.76586 44.5895Z" fill="black"/>
<path id="Vector_8" d="M31.8355 13.9071L35.5826 9.89844C36.3411 10.4439 37.2535 10.7626 38.2341 10.7626C40.8621 10.7626 43 8.47549 43 5.66428C43 2.85307 40.862 0.565918 38.2341 0.565918C35.6063 0.565918 33.4683 2.85307 33.4683 5.66428C33.4683 6.71339 33.7663 7.68927 34.2761 8.50083L30.529 12.5095C30.993 12.9437 31.4296 13.4106 31.8355 13.9071ZM38.2341 2.54248C39.8433 2.54248 41.1523 3.94297 41.1523 5.66428C41.1523 7.3856 39.8433 8.78608 38.2341 8.78608C36.6251 8.78608 35.3159 7.3856 35.3159 5.66428C35.3159 3.94297 36.6251 2.54248 38.2341 2.54248Z" fill="black"/>
</g>
</g>
<g id="Group_5">
<path id="Vector_9" d="M21.5 38.2544C13.929 38.2544 7.76939 31.6651 7.76939 23.5659C7.76939 15.4667 13.929 8.87744 21.5 8.87744C29.071 8.87744 35.2306 15.4667 35.2306 23.5659C35.2306 31.6651 29.071 38.2544 21.5 38.2544ZM21.5 10.854C14.9477 10.854 9.61705 16.5566 9.61705 23.5659C9.61705 30.5752 14.9477 36.2778 21.5 36.2778C28.0523 36.2778 33.3829 30.5753 33.3829 23.5659C33.3829 16.5565 28.0523 10.854 21.5 10.854Z" fill="#D41434"/>
</g>
</g>
</g>
<defs>
<clipPath id="clip0_0_544">
<rect width="43" height="46" fill="white" transform="translate(0 0.565918)"/>
</clipPath>
</defs>
</svg>
