<svg width="126" height="28" viewBox="0 0 126 28" fill="none" xmlns="http://www.w3.org/2000/svg">
<g id="Group">
<g id="Group_2">
<path id="Vector" d="M125.102 0.519409H85.3562V27.014H125.102V0.519409Z" fill="#164194"/>
<path id="Vector_2" d="M104.38 6.29585L105.221 5.68432L106.059 6.29585L105.739 5.30649L106.592 4.69495H105.541L105.221 3.69391L104.902 4.69495H103.846L104.699 5.30649L104.38 6.29585Z" fill="#FFED00"/>
<path id="Vector_3" d="M100.041 7.46051L100.882 6.84898L101.72 7.46051L101.4 6.47115L102.249 5.85962H101.201L100.878 4.85468L100.559 5.85962H99.511L100.36 6.47115L100.041 7.46051Z" fill="#FFED00"/>
<path id="Vector_4" d="M97.7039 8.04077L97.3806 9.04571L96.3328 9.04182L97.1819 9.65335L96.8664 10.6427L97.7039 10.0351L98.5452 10.6427L98.2219 9.65335L99.0749 9.04182H98.0271L97.7039 8.04077Z" fill="#FFED00"/>
<path id="Vector_5" d="M96.5391 14.3625L97.3765 14.9779L97.0571 13.9885L97.9101 13.377H96.8623L96.5391 12.3721L96.2158 13.377H95.168L96.0171 13.9885L95.7016 14.9779L96.5391 14.3625Z" fill="#FFED00"/>
<path id="Vector_6" d="M98.0271 17.7241L97.7039 16.723L97.3845 17.7241H96.3328L97.1819 18.3395L96.8664 19.325L97.7039 18.7134L98.5413 19.325L98.2219 18.3395L99.0749 17.7241H98.0271Z" fill="#FFED00"/>
<path id="Vector_7" d="M101.205 20.9064L100.886 19.9053L100.563 20.9064H99.511L100.364 21.5179L100.049 22.5073L100.886 21.8957L101.727 22.5073L101.404 21.5179L102.257 20.9064H101.205Z" fill="#FFED00"/>
<path id="Vector_8" d="M105.541 22.0594L105.221 21.0545L104.902 22.0594H103.846L104.699 22.6671L104.38 23.6603L105.221 23.0488L106.063 23.6603L105.739 22.6671L106.592 22.0594H105.541Z" fill="#FFED00"/>
<path id="Vector_9" d="M109.877 20.9064L109.553 19.9053L109.23 20.9064H108.186L109.035 21.5179L108.716 22.5073L109.553 21.8957L110.395 22.5073L110.075 21.5179L110.932 20.9064H109.877Z" fill="#FFED00"/>
<path id="Vector_10" d="M113.058 17.7241L112.735 16.723L112.415 17.7241H111.367L112.217 18.3395L111.897 19.325L112.735 18.7134L113.576 19.325L113.257 18.3395L114.11 17.7241H113.058Z" fill="#FFED00"/>
<path id="Vector_11" d="M115.259 13.3655H114.207L113.892 12.3606L113.565 13.3655H112.521L113.37 13.9771L113.047 14.9664L113.892 14.3549L114.729 14.9664L114.41 13.9771L115.259 13.3655Z" fill="#FFED00"/>
<path id="Vector_12" d="M111.897 10.6273L112.735 10.0197L113.576 10.6273L113.257 9.63797L114.11 9.03033H113.058L112.735 8.02539L112.415 9.03423L111.367 9.03033L112.22 9.63797L111.897 10.6273Z" fill="#FFED00"/>
<path id="Vector_13" d="M109.564 4.85468L109.249 5.86351L108.197 5.85962L109.05 6.47115L108.731 7.46441L109.572 6.84898L110.406 7.46441L110.09 6.47115L110.939 5.85962H109.888L109.564 4.85468Z" fill="#FFED00"/>
</g>
<g id="Group_3">
<path id="Vector_14" d="M16.1204 17.7671V13.3929H18.7885V13.9148H16.7319V15.2158H18.5626V15.7261H16.7319V17.2413H18.9482V17.7632H16.1204V17.7671Z" fill="#1D1D1B"/>
<path id="Vector_15" d="M22.1465 17.6035C22.0101 17.6385 21.8349 17.6736 21.6128 17.7125C21.3908 17.7515 21.1376 17.7709 20.8455 17.7709C20.5923 17.7709 20.382 17.7359 20.2067 17.6619C20.0353 17.5879 19.8951 17.4827 19.7899 17.3503C19.6847 17.2178 19.6107 17.0581 19.564 16.8751C19.5173 16.692 19.4939 16.4895 19.4939 16.2674V14.425H20.0821V16.1428C20.0821 16.544 20.1444 16.8283 20.2729 16.9997C20.3976 17.1711 20.6118 17.2568 20.9117 17.2568C20.974 17.2568 21.0403 17.2568 21.1065 17.249C21.1727 17.2451 21.2389 17.2412 21.2973 17.2334C21.3558 17.2256 21.4103 17.2217 21.457 17.2139C21.5038 17.2062 21.5388 17.1984 21.5622 17.1906V14.4211H22.1504V17.6074L22.1465 17.6035Z" fill="#1D1D1B"/>
<path id="Vector_16" d="M24.3354 14.4172C24.3861 14.4172 24.4445 14.4172 24.5107 14.425C24.5769 14.4327 24.6392 14.4405 24.7016 14.4483C24.7639 14.46 24.8223 14.4678 24.8768 14.4795C24.9275 14.4912 24.9664 14.499 24.9937 14.5068L24.8924 15.017C24.8457 15.0014 24.7678 14.982 24.6626 14.9586C24.5535 14.9352 24.4172 14.9235 24.2497 14.9235C24.1407 14.9235 24.0316 14.9352 23.9264 14.9586C23.8174 14.982 23.7473 14.9975 23.7161 15.0053V17.7631H23.1279V14.6197C23.2682 14.5691 23.4395 14.5223 23.646 14.4795C23.8524 14.4366 24.0822 14.4133 24.3393 14.4133L24.3354 14.4172Z" fill="#1D1D1B"/>
<path id="Vector_17" d="M28.4248 16.0533C28.4248 16.3143 28.3858 16.548 28.3118 16.7583C28.2378 16.9687 28.1287 17.1478 27.9924 17.2997C27.8561 17.4516 27.6925 17.5685 27.5016 17.6503C27.3108 17.7321 27.1043 17.7749 26.8823 17.7749C26.6603 17.7749 26.4538 17.736 26.263 17.6503C26.0721 17.5685 25.9124 17.4516 25.7722 17.2997C25.6359 17.1478 25.5307 16.9687 25.4528 16.7583C25.3788 16.548 25.3398 16.3143 25.3398 16.0533C25.3398 15.7923 25.3788 15.5625 25.4528 15.3483C25.5268 15.1379 25.6359 14.9549 25.7722 14.803C25.9085 14.6511 26.0721 14.5342 26.263 14.4524C26.4538 14.3706 26.6603 14.3278 26.8823 14.3278C27.1043 14.3278 27.3108 14.3706 27.5016 14.4524C27.6925 14.5342 27.8522 14.6511 27.9924 14.803C28.1287 14.9549 28.2339 15.1379 28.3118 15.3483C28.3858 15.5625 28.4248 15.7962 28.4248 16.0533ZM27.8132 16.0533C27.8132 15.6833 27.7315 15.3911 27.564 15.173C27.3965 14.9549 27.1706 14.8497 26.8862 14.8497C26.6019 14.8497 26.376 14.9588 26.2085 15.173C26.041 15.3911 25.9592 15.6833 25.9592 16.0533C25.9592 16.4233 26.041 16.7155 26.2085 16.9336C26.376 17.1517 26.6019 17.2569 26.8862 17.2569C27.1706 17.2569 27.3965 17.1478 27.564 16.9336C27.7315 16.7155 27.8132 16.4233 27.8132 16.0533Z" fill="#1D1D1B"/>
<path id="Vector_18" d="M32.1099 16.135C32.1099 16.3843 32.0787 16.6141 32.0125 16.8244C31.9463 17.0348 31.8528 17.214 31.7243 17.3659C31.5996 17.5178 31.4438 17.6346 31.2608 17.7203C31.0777 17.806 30.8674 17.845 30.6336 17.845C30.4428 17.845 30.2753 17.8177 30.1312 17.771C29.9871 17.7203 29.878 17.6736 29.8079 17.6268V18.9395H29.2197V14.5925C29.36 14.5575 29.5313 14.5224 29.7417 14.4835C29.9481 14.4445 30.1896 14.425 30.4623 14.425C30.7155 14.425 30.9414 14.464 31.1439 14.5458C31.3465 14.6276 31.5178 14.7406 31.662 14.8886C31.8061 15.0366 31.9151 15.2158 31.9931 15.4261C32.071 15.6403 32.1099 15.8779 32.1099 16.1428V16.135ZM31.4984 16.135C31.4984 15.7533 31.4049 15.4573 31.214 15.2508C31.0232 15.0444 30.7739 14.9431 30.4584 14.9431C30.2831 14.9431 30.1429 14.9509 30.0455 14.9626C29.9481 14.9743 29.8663 14.9898 29.8079 15.0054V17.0737C29.878 17.1322 29.9832 17.1906 30.1156 17.2451C30.2519 17.2996 30.3961 17.3269 30.5558 17.3269C30.7232 17.3269 30.8674 17.2958 30.9881 17.2334C31.1089 17.1711 31.2062 17.0893 31.2802 16.9802C31.3542 16.8712 31.4088 16.7465 31.4438 16.6024C31.4789 16.4583 31.4945 16.3025 31.4945 16.1311L31.4984 16.135Z" fill="#1D1D1B"/>
<path id="Vector_19" d="M32.7217 16.0572C32.7217 15.765 32.7645 15.5119 32.8463 15.2976C32.932 15.0795 33.0411 14.9003 33.1813 14.7562C33.3215 14.6121 33.4812 14.5069 33.6604 14.4329C33.8396 14.3628 34.0265 14.3239 34.2174 14.3239C34.6576 14.3239 34.9964 14.4602 35.234 14.7367C35.4677 15.0133 35.5885 15.434 35.5885 15.9949V16.0922C35.5885 16.1312 35.5885 16.1701 35.5807 16.2013H33.3332C33.3605 16.5441 33.4579 16.8011 33.6292 16.9764C33.8006 17.1517 34.0694 17.2413 34.4355 17.2413C34.642 17.2413 34.8134 17.2218 34.9575 17.1868C35.0977 17.1517 35.2029 17.1167 35.2769 17.0816L35.3587 17.5724C35.2886 17.6113 35.1639 17.6503 34.9847 17.6931C34.8056 17.736 34.603 17.7555 34.3771 17.7555C34.0928 17.7555 33.8435 17.7126 33.637 17.6269C33.4306 17.5412 33.2592 17.4205 33.1229 17.2686C32.9865 17.1167 32.8892 16.9375 32.823 16.731C32.7567 16.5246 32.7256 16.2948 32.7256 16.0455L32.7217 16.0572ZM34.9731 15.7378C34.977 15.4729 34.9107 15.2548 34.7744 15.0834C34.6381 14.912 34.4511 14.8263 34.2096 14.8263C34.0733 14.8263 33.9564 14.8536 33.8513 14.9042C33.75 14.9588 33.6604 15.025 33.5903 15.1107C33.5202 15.1964 33.4617 15.2898 33.4228 15.4028C33.3838 15.5119 33.3566 15.6248 33.3449 15.7378H34.9731Z" fill="#1D1D1B"/>
<path id="Vector_20" d="M35.8646 18.9471C35.814 18.9471 35.7477 18.9393 35.6698 18.9276C35.588 18.9159 35.5218 18.8965 35.4673 18.877L35.5413 18.3979C35.5841 18.4096 35.6309 18.4213 35.6854 18.4291C35.7399 18.4368 35.7906 18.4407 35.8373 18.4407C36.0399 18.4407 36.184 18.3784 36.2697 18.2538C36.3554 18.1291 36.3982 17.9461 36.3982 17.7085V14.4833H36.9864V17.7007C36.9864 18.1213 36.889 18.433 36.6981 18.6394C36.5073 18.8419 36.2268 18.9471 35.8607 18.9471H35.8646ZM36.6904 13.8951C36.5852 13.8951 36.4956 13.8601 36.4216 13.79C36.3476 13.7199 36.3125 13.6264 36.3125 13.5095C36.3125 13.3927 36.3476 13.2992 36.4216 13.2291C36.4956 13.159 36.5852 13.1239 36.6904 13.1239C36.7955 13.1239 36.8851 13.159 36.9591 13.2291C37.0331 13.2992 37.0682 13.3927 37.0682 13.5095C37.0682 13.6264 37.0331 13.7199 36.9591 13.79C36.8851 13.8601 36.7955 13.8951 36.6904 13.8951Z" fill="#1D1D1B"/>
<path id="Vector_21" d="M38.7273 17.2686C38.9688 17.2686 39.1441 17.2374 39.2609 17.1751C39.3778 17.1128 39.4362 17.0115 39.4362 16.8713C39.4362 16.731 39.3778 16.6142 39.2648 16.5285C39.1519 16.4428 38.9649 16.3493 38.7039 16.2441C38.5793 16.1935 38.4585 16.1429 38.3417 16.0883C38.2248 16.0377 38.1275 15.9754 38.0418 15.9014C37.9561 15.8313 37.8899 15.7417 37.8392 15.6443C37.7886 15.543 37.7652 15.4184 37.7652 15.2704C37.7652 14.9782 37.8743 14.7484 38.0885 14.5809C38.3027 14.4095 38.5949 14.3239 38.9649 14.3239C39.0584 14.3239 39.1519 14.3277 39.2415 14.3394C39.3349 14.3511 39.4206 14.3628 39.4985 14.3784C39.5803 14.394 39.6505 14.4095 39.7089 14.4251C39.7712 14.4407 39.8179 14.4563 39.8491 14.468L39.74 14.9743C39.6777 14.9393 39.5765 14.9042 39.444 14.8692C39.3116 14.8341 39.148 14.8146 38.9571 14.8146C38.7935 14.8146 38.6494 14.8458 38.5287 14.912C38.4079 14.9782 38.3456 15.0795 38.3456 15.2197C38.3456 15.2898 38.3612 15.3561 38.3884 15.4106C38.4157 15.4651 38.4585 15.5158 38.5131 15.5586C38.5715 15.6015 38.6416 15.6443 38.7234 15.6832C38.8091 15.7222 38.9104 15.7612 39.0272 15.804C39.183 15.8624 39.3233 15.9209 39.444 15.9793C39.5648 16.0377 39.6699 16.1039 39.7556 16.1779C39.8413 16.2519 39.9075 16.3454 39.9543 16.4506C40.001 16.5558 40.0244 16.6882 40.0244 16.844C40.0244 17.1478 39.9114 17.3776 39.6855 17.5334C39.4596 17.6892 39.1402 17.7671 38.7234 17.7671C38.4313 17.7671 38.2054 17.7438 38.0418 17.6931C37.8782 17.6464 37.7652 17.6074 37.7068 17.5841L37.8159 17.0777C37.8821 17.1011 37.9911 17.14 38.1392 17.1907C38.2872 17.2413 38.4819 17.2647 38.7273 17.2647V17.2686Z" fill="#1D1D1B"/>
<path id="Vector_22" d="M41.9326 15.9636C42.0573 16.061 42.1936 16.1817 42.3338 16.3219C42.4741 16.466 42.6143 16.618 42.7506 16.7854C42.8869 16.9529 43.0155 17.1204 43.1401 17.2918C43.2609 17.4632 43.366 17.6229 43.4478 17.767H42.7584C42.6688 17.619 42.5675 17.471 42.4507 17.3152C42.3338 17.1633 42.2131 17.0153 42.0884 16.875C41.9638 16.7348 41.8353 16.6063 41.7028 16.4855C41.5704 16.3687 41.4496 16.2674 41.3289 16.1895V17.767H40.7407V12.9721L41.3289 12.8708V15.8623C41.4302 15.761 41.5431 15.6481 41.6639 15.5273C41.7846 15.4066 41.9054 15.2819 42.0222 15.1534C42.1391 15.0287 42.252 14.908 42.3572 14.7911C42.4624 14.6743 42.552 14.573 42.6299 14.4834H43.3193C43.2219 14.5886 43.1167 14.7055 43.0038 14.8301C42.8908 14.9547 42.774 15.0833 42.6493 15.2118C42.5286 15.3404 42.4039 15.4689 42.2793 15.5974C42.1547 15.726 42.0378 15.8467 41.9287 15.9597L41.9326 15.9636Z" fill="#1D1D1B"/>
<path id="Vector_23" d="M44.3014 13.8951C44.1962 13.8951 44.1067 13.8601 44.0326 13.79C43.9586 13.7199 43.9236 13.6264 43.9236 13.5095C43.9236 13.3927 43.9586 13.2992 44.0326 13.2291C44.1067 13.159 44.1962 13.1239 44.3014 13.1239C44.4066 13.1239 44.4962 13.159 44.5702 13.2291C44.6442 13.2992 44.6792 13.3927 44.6792 13.5095C44.6792 13.6264 44.6442 13.7199 44.5702 13.79C44.4962 13.8601 44.4066 13.8951 44.3014 13.8951ZM44.5974 17.7669H44.0093V14.4872H44.5974V17.7669Z" fill="#1D1D1B"/>
<path id="Vector_24" d="M45.3918 16.0572C45.3918 15.765 45.4347 15.5119 45.5165 15.2976C45.6022 15.0795 45.7112 14.9003 45.8515 14.7562C45.9917 14.6121 46.1514 14.5069 46.3306 14.4329C46.5097 14.3628 46.6967 14.3239 46.8876 14.3239C47.3277 14.3239 47.6666 14.4602 47.9042 14.7367C48.1379 15.0133 48.2586 15.434 48.2586 15.9949V16.0922C48.2586 16.1312 48.2587 16.1701 48.2509 16.2013H46.0034C46.0306 16.5441 46.128 16.8011 46.2994 16.9764C46.4708 17.1517 46.7396 17.2413 47.1057 17.2413C47.3121 17.2413 47.4835 17.2218 47.6276 17.1868C47.7679 17.1517 47.873 17.1167 47.947 17.0816L48.0288 17.5724C47.9587 17.6113 47.8341 17.6503 47.6549 17.6931C47.4757 17.736 47.2732 17.7555 47.0473 17.7555C46.7629 17.7555 46.5136 17.7126 46.3072 17.6269C46.1008 17.5412 45.9294 17.4205 45.793 17.2686C45.6567 17.1167 45.5593 16.9375 45.4931 16.731C45.4269 16.5246 45.3957 16.2948 45.3957 16.0455L45.3918 16.0572ZM47.6432 15.7378C47.6471 15.4729 47.5809 15.2548 47.4446 15.0834C47.3082 14.912 47.1213 14.8263 46.8798 14.8263C46.7435 14.8263 46.6266 14.8536 46.5214 14.9042C46.4202 14.9588 46.3306 15.025 46.2605 15.1107C46.1903 15.1964 46.1319 15.2898 46.093 15.4028C46.054 15.5119 46.0268 15.6248 46.0151 15.7378H47.6432Z" fill="#1D1D1B"/>
<path id="Vector_25" d="M50.5337 17.7671V13.3929H53.1707V13.9148H51.1452V15.2353H52.9448V15.7533H51.1452V17.7671H50.5337Z" fill="#1D1D1B"/>
<path id="Vector_26" d="M56.3061 17.6035C56.1698 17.6385 55.9945 17.6736 55.7725 17.7125C55.5505 17.7515 55.2973 17.7709 55.0052 17.7709C54.752 17.7709 54.5417 17.7359 54.3664 17.6619C54.195 17.5879 54.0548 17.4827 53.9496 17.3503C53.8444 17.2139 53.7704 17.0581 53.7237 16.8751C53.6769 16.692 53.6536 16.4895 53.6536 16.2674V14.425H54.2417V16.1428C54.2417 16.544 54.304 16.8283 54.4326 16.9997C54.5572 17.1711 54.7715 17.2568 55.0714 17.2568C55.1337 17.2568 55.1999 17.2568 55.2662 17.249C55.3324 17.2451 55.3986 17.2412 55.457 17.2334C55.5154 17.2256 55.57 17.2217 55.6167 17.2139C55.6635 17.2062 55.6985 17.1984 55.7219 17.1906V14.4211H56.31V17.6074L56.3061 17.6035Z" fill="#1D1D1B"/>
<path id="Vector_27" d="M57.2837 14.5808C57.42 14.5457 57.5953 14.5106 57.8212 14.4717C58.0432 14.4327 58.3003 14.4133 58.5924 14.4133C58.8534 14.4133 59.0716 14.4483 59.2429 14.5223C59.4143 14.5963 59.5545 14.6976 59.6558 14.83C59.7571 14.9625 59.8311 15.1222 59.8739 15.3053C59.9168 15.4883 59.9363 15.6948 59.9363 15.9168V17.7592H59.3481V16.0414C59.3481 15.8389 59.3325 15.6675 59.3092 15.5234C59.2819 15.3793 59.2351 15.2663 59.1728 15.1767C59.1105 15.0871 59.0248 15.0248 58.9196 14.9859C58.8145 14.9469 58.682 14.9274 58.5301 14.9274C58.4678 14.9274 58.4016 14.9274 58.3354 14.9352C58.2692 14.9391 58.2029 14.943 58.1445 14.9508C58.0822 14.9586 58.0277 14.9664 57.9809 14.9742C57.9342 14.982 57.8991 14.9897 57.8757 14.9936V17.7631H57.2876V14.5769L57.2837 14.5808Z" fill="#1D1D1B"/>
<path id="Vector_28" d="M62.9939 12.8981L63.5821 12.7968V17.5995C63.4458 17.6385 63.2744 17.6735 63.064 17.7125C62.8537 17.7514 62.6122 17.7709 62.3395 17.7709C62.0864 17.7709 61.8604 17.7319 61.6579 17.6501C61.4553 17.5683 61.284 17.4554 61.1398 17.3074C60.9957 17.1594 60.8866 16.9802 60.8087 16.7659C60.7308 16.5517 60.6919 16.3141 60.6919 16.0492C60.6919 15.7844 60.7231 15.5662 60.7893 15.3559C60.8555 15.1456 60.949 14.9664 61.0775 14.8145C61.2022 14.6626 61.358 14.5457 61.541 14.46C61.7241 14.3743 61.9344 14.3354 62.1681 14.3354C62.359 14.3354 62.5226 14.3627 62.6706 14.4094C62.8147 14.46 62.9238 14.5068 62.9939 14.5535V12.8942V12.8981ZM62.9939 15.1066C62.9238 15.0482 62.8186 14.9898 62.6862 14.9352C62.5499 14.8807 62.4057 14.8534 62.246 14.8534C62.0786 14.8534 61.9344 14.8846 61.8137 14.943C61.6929 15.0053 61.5956 15.0871 61.5216 15.1962C61.4475 15.3053 61.3891 15.4299 61.358 15.5779C61.3229 15.7259 61.3073 15.8818 61.3073 16.0531C61.3073 16.4349 61.4008 16.7309 61.5917 16.9412C61.7825 17.1477 62.0318 17.2528 62.3473 17.2528C62.507 17.2528 62.6395 17.245 62.7485 17.2295C62.8576 17.2139 62.9394 17.1983 62.9978 17.1827V15.1066H62.9939Z" fill="#1D1D1B"/>
<path id="Vector_29" d="M67.1741 17.6035C67.0377 17.6385 66.8625 17.6736 66.6404 17.7125C66.4184 17.7515 66.1652 17.7709 65.8731 17.7709C65.6199 17.7709 65.4096 17.7359 65.2343 17.6619C65.0629 17.5879 64.9227 17.4827 64.8175 17.3503C64.7123 17.2139 64.6383 17.0581 64.5916 16.8751C64.5449 16.692 64.5215 16.4895 64.5215 16.2674V14.425H65.1097V16.1428C65.1097 16.544 65.172 16.8283 65.3005 16.9997C65.4252 17.1711 65.6394 17.2568 65.9393 17.2568C66.0016 17.2568 66.0679 17.2568 66.1341 17.249C66.2003 17.2451 66.2665 17.2412 66.3249 17.2334C66.3834 17.2256 66.4379 17.2217 66.4846 17.2139C66.5314 17.2062 66.5664 17.1984 66.5898 17.1906V14.4211H67.178V17.6074L67.1741 17.6035Z" fill="#1D1D1B"/>
<path id="Vector_30" d="M68.9148 17.2686C69.1563 17.2686 69.3316 17.2374 69.4484 17.1751C69.5653 17.1128 69.6237 17.0115 69.6237 16.8713C69.6237 16.731 69.5653 16.6142 69.4523 16.5285C69.3394 16.4428 69.1524 16.3493 68.8914 16.2441C68.7668 16.1935 68.646 16.1429 68.5292 16.0883C68.4123 16.0377 68.315 15.9754 68.2293 15.9014C68.1436 15.8313 68.0774 15.7417 68.0267 15.6443C67.9761 15.543 67.9527 15.4184 67.9527 15.2704C67.9527 14.9782 68.0618 14.7484 68.276 14.5809C68.4902 14.4134 68.7824 14.3239 69.1524 14.3239C69.2459 14.3239 69.3394 14.3277 69.429 14.3394C69.5224 14.3511 69.6081 14.3628 69.686 14.3784C69.7678 14.394 69.838 14.4095 69.8964 14.4251C69.9587 14.4407 70.0054 14.4563 70.0366 14.468L69.9275 14.9743C69.8652 14.9393 69.764 14.9042 69.6315 14.8692C69.4991 14.8341 69.3355 14.8146 69.1446 14.8146C68.981 14.8146 68.8369 14.8458 68.7162 14.912C68.5954 14.9782 68.5331 15.0795 68.5331 15.2197C68.5331 15.2898 68.5487 15.3561 68.5759 15.4106C68.6032 15.4651 68.646 15.5158 68.7006 15.5586C68.759 15.6015 68.8291 15.6443 68.9109 15.6832C68.9966 15.7222 69.0979 15.7612 69.2147 15.804C69.3705 15.8624 69.5108 15.9209 69.6315 15.9793C69.7523 16.0377 69.8574 16.1039 69.9431 16.1779C70.0288 16.2519 70.095 16.3454 70.1418 16.4506C70.1885 16.5597 70.2119 16.6882 70.2119 16.844C70.2119 17.1478 70.0989 17.3776 69.873 17.5334C69.6471 17.6892 69.3277 17.7671 68.9109 17.7671C68.6188 17.7671 68.3929 17.7438 68.2293 17.6931C68.0657 17.6464 67.9527 17.6074 67.8943 17.5841L68.0034 17.0777C68.0696 17.1011 68.1786 17.14 68.3267 17.1907C68.4747 17.2413 68.6694 17.2647 68.9148 17.2647V17.2686Z" fill="#1D1D1B"/>
<path id="Vector_31" d="M73.1097 14.9273C73.0201 15.0247 72.9032 15.161 72.7591 15.3363C72.615 15.5116 72.4592 15.7103 72.2917 15.9245C72.1242 16.1387 71.9606 16.3646 71.7931 16.5983C71.6256 16.832 71.4815 17.058 71.353 17.2722H73.1564V17.763H70.6519V17.3735C70.7531 17.1865 70.8778 16.984 71.0258 16.7619C71.1738 16.5399 71.3257 16.3179 71.4893 16.0959C71.6529 15.8738 71.8087 15.6674 71.9645 15.4726C72.1164 15.2779 72.2527 15.1104 72.3657 14.978H70.7453V14.4872H73.1097V14.9273Z" fill="#1D1D1B"/>
<path id="Vector_32" d="M73.5732 16.0572C73.5732 15.765 73.6161 15.5119 73.6979 15.2976C73.7836 15.0795 73.8926 14.9003 74.0329 14.7562C74.1731 14.6121 74.3328 14.5069 74.512 14.4329C74.6911 14.3628 74.8781 14.3239 75.069 14.3239C75.5091 14.3239 75.848 14.4602 76.0856 14.7367C76.3193 15.0133 76.44 15.434 76.44 15.9949V16.0922C76.44 16.1312 76.44 16.1701 76.4323 16.2013H74.1848C74.2081 16.5441 74.3094 16.8011 74.4808 16.9764C74.6522 17.1517 74.921 17.2413 75.2871 17.2413C75.4935 17.2413 75.6649 17.2218 75.809 17.1868C75.9493 17.1517 76.0544 17.1167 76.1284 17.0816L76.2102 17.5724C76.1401 17.6113 76.0155 17.6503 75.8363 17.6931C75.6571 17.736 75.4546 17.7555 75.2287 17.7555C74.9443 17.7555 74.695 17.7126 74.4886 17.6269C74.2822 17.5412 74.1108 17.4205 73.9744 17.2686C73.8381 17.1167 73.7407 16.9375 73.6745 16.731C73.6083 16.5246 73.5771 16.2948 73.5771 16.0455L73.5732 16.0572ZM75.8246 15.7378C75.8285 15.4729 75.7623 15.2548 75.626 15.0834C75.4896 14.912 75.3027 14.8263 75.0612 14.8263C74.9249 14.8263 74.808 14.8536 74.7028 14.9042C74.6016 14.9588 74.512 15.025 74.4418 15.1107C74.3717 15.1964 74.3133 15.2898 74.2744 15.4028C74.2354 15.5119 74.2081 15.6248 74.1965 15.7378H75.8246Z" fill="#1D1D1B"/>
<path id="Vector_33" d="M1.60698 24.969C2.24578 24.969 2.56518 24.7509 2.56518 24.3146C2.56518 24.1783 2.53791 24.0653 2.47948 23.9718C2.42106 23.8784 2.34705 23.7966 2.24967 23.7265C2.15229 23.6563 2.04323 23.5979 1.91858 23.5473C1.79394 23.4966 1.66151 23.446 1.52518 23.3954C1.36548 23.3408 1.21357 23.2785 1.06945 23.2084C0.925331 23.1383 0.80069 23.0565 0.695522 22.963C0.590353 22.8695 0.50855 22.7566 0.446228 22.6241C0.383906 22.4956 0.356648 22.3359 0.356648 22.1528C0.356648 21.7711 0.485187 21.4712 0.74616 21.257C1.00713 21.0427 1.36548 20.9337 1.8251 20.9337C2.08997 20.9337 2.33147 20.9609 2.5457 21.0193C2.76383 21.0778 2.91964 21.1401 3.02091 21.2063L2.82615 21.7049C2.73657 21.6504 2.60802 21.5958 2.43274 21.5452C2.25746 21.4946 2.05492 21.4673 1.8251 21.4673C1.70825 21.4673 1.59919 21.479 1.49792 21.5062C1.39664 21.5335 1.30706 21.5686 1.23305 21.6192C1.15904 21.6698 1.09672 21.7322 1.05388 21.8101C1.01103 21.888 0.987656 21.9775 0.987656 22.0827C0.987656 22.1996 1.01102 22.3008 1.05777 22.3787C1.10451 22.4605 1.17072 22.5307 1.25252 22.5891C1.33821 22.6514 1.43559 22.7059 1.54466 22.7566C1.65761 22.8072 1.77837 22.8578 1.9147 22.9085C2.10556 22.9825 2.27694 23.0604 2.43664 23.1344C2.59245 23.2084 2.73267 23.3019 2.84562 23.4071C2.96248 23.5122 3.05207 23.6369 3.11439 23.781C3.17671 23.9251 3.20788 24.1004 3.20788 24.3068C3.20788 24.6886 3.06765 24.9846 2.7872 25.191C2.50675 25.3975 2.11334 25.4987 1.60308 25.4987C1.43169 25.4987 1.27199 25.4871 1.12787 25.4637C0.983755 25.4403 0.855216 25.413 0.738362 25.3819C0.625404 25.3507 0.528026 25.3157 0.446228 25.2806C0.364431 25.2456 0.298217 25.2144 0.255371 25.191L0.438442 24.6847C0.53582 24.7392 0.683837 24.8015 0.878593 24.8677C1.07724 24.9339 1.31874 24.969 1.60308 24.969H1.60698Z" fill="#1D1D1B"/>
<path id="Vector_34" d="M4.42678 22.1411H5.66932V22.6319H4.42678V24.1471C4.42678 24.3107 4.43847 24.447 4.46573 24.5521C4.4891 24.6612 4.52806 24.743 4.57869 24.8053C4.62933 24.8677 4.69165 24.9105 4.76955 24.9339C4.84356 24.9611 4.93314 24.9728 5.03442 24.9728C5.2097 24.9728 5.35383 24.9533 5.45899 24.9144C5.56806 24.8754 5.64206 24.8443 5.68491 24.8287L5.79787 25.3156C5.73944 25.3468 5.63427 25.3818 5.49015 25.4247C5.34214 25.4675 5.17465 25.4909 4.98379 25.4909C4.76177 25.4909 4.5748 25.4636 4.43068 25.4052C4.28656 25.3468 4.16971 25.265 4.08012 25.1481C3.99053 25.0351 3.9282 24.8949 3.89315 24.7274C3.85809 24.5599 3.83862 24.3691 3.83862 24.1509V21.2218L4.42678 21.1205V22.1372V22.1411Z" fill="#1D1D1B"/>
<path id="Vector_35" d="M7.59348 22.149C7.64411 22.149 7.70254 22.149 7.76876 22.1568C7.83498 22.1646 7.8973 22.1723 7.95962 22.1801C8.02194 22.1918 8.08037 22.1996 8.1349 22.2113C8.18554 22.223 8.22449 22.2308 8.25175 22.2386L8.15048 22.7488C8.10373 22.7332 8.02583 22.7138 7.92067 22.6904C7.8116 22.667 7.67527 22.6553 7.50778 22.6553C7.39872 22.6553 7.28966 22.667 7.18449 22.6904C7.07543 22.7138 7.00531 22.7293 6.97415 22.7371V25.4949H6.38599V22.3515C6.52621 22.3009 6.6976 22.2541 6.90404 22.2113C7.11049 22.1685 7.3403 22.1451 7.59738 22.1451L7.59348 22.149Z" fill="#1D1D1B"/>
<path id="Vector_36" d="M11.3996 25.3354C11.2633 25.3704 11.088 25.4055 10.866 25.4445C10.644 25.4834 10.3908 25.5029 10.0987 25.5029C9.84548 25.5029 9.63515 25.4678 9.45987 25.3938C9.28849 25.3198 9.14826 25.2146 9.04309 25.0822C8.93792 24.9498 8.86392 24.7901 8.81718 24.607C8.77044 24.4239 8.74707 24.2214 8.74707 23.9994V22.157H9.33523V23.8747C9.33523 24.2759 9.39756 24.5603 9.52609 24.7316C9.65074 24.903 9.86496 24.9887 10.1649 24.9887C10.2272 24.9887 10.2934 24.9887 10.3596 24.9809C10.4259 24.977 10.4921 24.9731 10.5505 24.9654C10.6089 24.9576 10.6635 24.9537 10.7102 24.9459C10.7569 24.9381 10.792 24.9303 10.8154 24.9225V22.1531H11.4035V25.3393L11.3996 25.3354Z" fill="#1D1D1B"/>
<path id="Vector_37" d="M13.5647 23.6952C13.6894 23.7926 13.8257 23.9133 13.9659 24.0536C14.1061 24.1977 14.2463 24.3496 14.3827 24.5171C14.519 24.6846 14.6475 24.8521 14.7722 25.0234C14.8929 25.1948 14.9981 25.3545 15.0799 25.4986H14.3905C14.3009 25.3506 14.1996 25.2026 14.0828 25.0468C13.9659 24.8949 13.8452 24.7469 13.7205 24.6067C13.5959 24.4664 13.4673 24.3379 13.3349 24.2171C13.2025 24.1003 13.0817 23.999 12.961 23.9211V25.4986H12.3728V20.7037L12.961 20.6025V23.5939C13.0622 23.4927 13.1752 23.3797 13.2959 23.259C13.4167 23.1382 13.5374 23.0136 13.6543 22.885C13.7711 22.7604 13.8841 22.6396 13.9893 22.5228C14.0944 22.4059 14.184 22.3046 14.2619 22.2151H14.9514C14.854 22.3202 14.7488 22.4371 14.6359 22.5617C14.5229 22.6864 14.4061 22.8149 14.2814 22.9434C14.1607 23.072 14.036 23.2005 13.9114 23.3291C13.7867 23.4576 13.6699 23.5784 13.5608 23.6913L13.5647 23.6952Z" fill="#1D1D1B"/>
<path id="Vector_38" d="M16.1902 22.1411H17.4328V22.6319H16.1902V24.1471C16.1902 24.3107 16.2019 24.447 16.2292 24.5521C16.2525 24.6612 16.2915 24.743 16.3421 24.8053C16.3928 24.8677 16.4551 24.9105 16.533 24.9339C16.607 24.9611 16.6966 24.9728 16.7979 24.9728C16.9731 24.9728 17.1173 24.9533 17.2224 24.9144C17.3315 24.8754 17.4055 24.8443 17.4483 24.8287L17.5613 25.3156C17.5029 25.3468 17.3977 25.3818 17.2536 25.4247C17.1056 25.4675 16.9381 25.4909 16.7472 25.4909C16.5252 25.4909 16.3382 25.4636 16.1941 25.4052C16.05 25.3468 15.9331 25.265 15.8435 25.1481C15.754 25.0351 15.6916 24.8949 15.6566 24.7274C15.6215 24.5599 15.6021 24.3691 15.6021 24.1509V21.2218L16.1902 21.1205V22.1372V22.1411Z" fill="#1D1D1B"/>
<path id="Vector_39" d="M20.7549 25.3354C20.6185 25.3704 20.4433 25.4055 20.2212 25.4445C19.9992 25.4834 19.746 25.5029 19.4539 25.5029C19.2007 25.5029 18.9904 25.4678 18.8151 25.3938C18.6437 25.3198 18.5035 25.2146 18.3983 25.0822C18.2932 24.9498 18.2191 24.7901 18.1724 24.607C18.1257 24.4239 18.1023 24.2214 18.1023 23.9994V22.157H18.6905V23.8747C18.6905 24.2759 18.7528 24.5603 18.8813 24.7316C19.006 24.903 19.2202 24.9887 19.5201 24.9887C19.5824 24.9887 19.6487 24.9887 19.7149 24.9809C19.7811 24.977 19.8473 24.9731 19.9057 24.9654C19.9642 24.9576 20.0187 24.9537 20.0654 24.9459C20.1122 24.9381 20.1472 24.9303 20.1706 24.9225V22.1531H20.7588V25.3393L20.7549 25.3354Z" fill="#1D1D1B"/>
<path id="Vector_40" d="M22.9485 22.149C22.9991 22.149 23.0575 22.149 23.1237 22.1568C23.1899 22.1646 23.2523 22.1723 23.3146 22.1801C23.3769 22.1918 23.4353 22.1996 23.4899 22.2113C23.5405 22.223 23.5795 22.2308 23.6067 22.2386L23.5055 22.7488C23.4587 22.7332 23.3808 22.7138 23.2756 22.6904C23.1666 22.667 23.0303 22.6553 22.8628 22.6553C22.7537 22.6553 22.6446 22.667 22.5395 22.6904C22.4304 22.7138 22.3603 22.7293 22.3291 22.7371V25.4949H21.741V22.3515C21.8812 22.3009 22.0526 22.2541 22.259 22.2113C22.4655 22.1685 22.6953 22.1451 22.9523 22.1451L22.9485 22.149Z" fill="#1D1D1B"/>
<path id="Vector_41" d="M25.1994 22.0749C25.437 22.0749 25.6357 22.1061 25.7954 22.1645C25.959 22.2268 26.0875 22.3125 26.1849 22.4216C26.2823 22.5346 26.3524 22.667 26.3952 22.8189C26.4381 22.9708 26.4575 23.1422 26.4575 23.3253V25.378C26.4069 25.3858 26.3368 25.3975 26.2472 25.4131C26.1576 25.4286 26.0564 25.4403 25.9395 25.4559C25.8265 25.4676 25.7019 25.4793 25.5695 25.491C25.437 25.5026 25.3046 25.5065 25.1761 25.5065C24.9891 25.5065 24.8216 25.4871 24.6658 25.4481C24.51 25.4092 24.3737 25.3507 24.2607 25.2689C24.1477 25.1871 24.0582 25.0781 23.9958 24.9456C23.9335 24.8093 23.9023 24.6496 23.9023 24.4588C23.9023 24.2679 23.9374 24.1238 24.0114 23.9913C24.0854 23.8628 24.1867 23.7576 24.3113 23.6758C24.436 23.594 24.584 23.5356 24.7515 23.5006C24.919 23.4616 25.0981 23.4421 25.2812 23.4421C25.3396 23.4421 25.402 23.4421 25.4643 23.4499C25.5266 23.4577 25.5889 23.4655 25.6435 23.4733C25.7019 23.485 25.7486 23.4928 25.7915 23.5006C25.8343 23.5083 25.8616 23.5161 25.8811 23.52V23.3564C25.8811 23.2591 25.8694 23.1656 25.8499 23.0682C25.8304 22.9747 25.7915 22.889 25.737 22.815C25.6824 22.741 25.6084 22.6826 25.5149 22.6397C25.4214 22.5969 25.2968 22.5735 25.1449 22.5735C24.9501 22.5735 24.7826 22.5891 24.6385 22.6164C24.4944 22.6436 24.3853 22.6709 24.3152 22.7021L24.2451 22.2152C24.3191 22.1801 24.4477 22.1489 24.6229 22.1178C24.7982 22.0866 24.9891 22.071 25.1955 22.071L25.1994 22.0749ZM25.2501 25.0119C25.3903 25.0119 25.511 25.0119 25.6201 25.0041C25.7292 24.9963 25.8149 24.9846 25.8889 24.969V23.9913C25.846 23.9719 25.7798 23.9524 25.6824 23.9368C25.5889 23.9212 25.4721 23.9134 25.3396 23.9134C25.2501 23.9134 25.1566 23.9212 25.0592 23.9329C24.9618 23.9446 24.8683 23.9719 24.7865 24.0108C24.7047 24.0498 24.6346 24.1043 24.5801 24.1744C24.5256 24.2445 24.4983 24.3341 24.4983 24.451C24.4983 24.6613 24.5645 24.8093 24.7009 24.8911C24.8372 24.9729 25.0203 25.0158 25.2501 25.0158V25.0119Z" fill="#1D1D1B"/>
<path id="Vector_42" d="M28.3863 25.4989C28.0241 25.4911 27.767 25.4132 27.6151 25.2652C27.4632 25.1172 27.3892 24.8874 27.3892 24.5757V20.6378L27.9773 20.5365V24.4784C27.9773 24.5757 27.9851 24.6536 28.0007 24.7199C28.0163 24.7822 28.0435 24.8328 28.0825 24.8718C28.1214 24.9107 28.1721 24.938 28.2344 24.9575C28.2967 24.9769 28.3746 24.9925 28.4681 25.0042L28.3863 25.495V25.4989Z" fill="#1D1D1B"/>
<path id="Vector_43" d="M29.0906 22.3126C29.2269 22.2775 29.4022 22.2425 29.6281 22.2035C29.8501 22.1646 30.1072 22.1451 30.3993 22.1451C30.6603 22.1451 30.8784 22.1801 31.0498 22.2541C31.2212 22.3282 31.3614 22.4294 31.4627 22.5619C31.564 22.6943 31.638 22.854 31.6808 23.0371C31.7237 23.2201 31.7432 23.4266 31.7432 23.6486V25.491H31.155V23.7732C31.155 23.5707 31.1394 23.3993 31.1121 23.2552C31.0849 23.1111 31.0381 22.9981 30.9758 22.9085C30.9135 22.8189 30.8278 22.7566 30.7226 22.7177C30.6175 22.6787 30.4889 22.6592 30.3331 22.6592C30.2708 22.6592 30.2046 22.6592 30.1384 22.667C30.0721 22.6709 30.0059 22.6748 29.9475 22.6826C29.8852 22.6904 29.8306 22.6982 29.7839 22.706C29.7372 22.7138 29.7021 22.7216 29.6787 22.7255V25.4949H29.0906V22.3087V22.3126Z" fill="#1D1D1B"/>
<path id="Vector_44" d="M32.4988 23.7888C32.4988 23.4967 32.5416 23.2435 32.6234 23.0293C32.7091 22.8111 32.8182 22.632 32.9584 22.4878C33.0986 22.3437 33.2583 22.2386 33.4375 22.1645C33.6167 22.0944 33.8036 22.0555 33.9945 22.0555C34.4347 22.0555 34.7735 22.1918 35.0111 22.4684C35.2448 22.7449 35.3656 23.1656 35.3656 23.7265V23.8239C35.3656 23.8628 35.3656 23.9018 35.3578 23.9329H33.1103C33.1337 24.2757 33.235 24.5328 33.4063 24.7081C33.5777 24.8833 33.8465 24.9729 34.2126 24.9729C34.4191 24.9729 34.5905 24.9535 34.7346 24.9184C34.8748 24.8833 34.98 24.8483 35.054 24.8132L35.1358 25.304C35.0657 25.343 34.941 25.3819 34.7618 25.4248C34.5827 25.4676 34.3801 25.4871 34.1542 25.4871C33.8699 25.4871 33.6206 25.4442 33.4141 25.3585C33.2077 25.2729 33.0363 25.1521 32.9 25.0002C32.7636 24.8483 32.6663 24.6691 32.6001 24.4627C32.5338 24.2562 32.5027 24.0264 32.5027 23.7771L32.4988 23.7888ZM34.7541 23.4694C34.758 23.2045 34.6917 22.9864 34.5554 22.815C34.4191 22.6436 34.2321 22.558 33.9906 22.558C33.8543 22.558 33.7374 22.5852 33.6323 22.6359C33.531 22.6904 33.4414 22.7566 33.3713 22.8423C33.3012 22.928 33.2427 23.0215 33.2038 23.1344C33.1648 23.2435 33.1376 23.3565 33.1259 23.4694H34.7541Z" fill="#1D1D1B"/>
<path id="Vector_45" d="M37.8939 21.6269C37.7888 21.6269 37.6992 21.5919 37.6252 21.5218C37.5512 21.4517 37.5161 21.3582 37.5161 21.2413C37.5161 21.1245 37.5512 21.031 37.6252 20.9609C37.6992 20.8908 37.7888 20.8557 37.8939 20.8557C37.9991 20.8557 38.0887 20.8908 38.1627 20.9609C38.2367 21.031 38.2718 21.1245 38.2718 21.2413C38.2718 21.3582 38.2367 21.4517 38.1627 21.5218C38.0887 21.5919 37.9991 21.6269 37.8939 21.6269ZM38.19 25.4987H37.6018V22.219H38.19V25.4987Z" fill="#1D1D1B"/>
<path id="Vector_46" d="M40.6321 21.1286H41.2428V25.5028H40.6321V21.1286Z" fill="#1D1D1B"/>
<path id="Vector_47" d="M42.2607 22.3126C42.3971 22.2775 42.5724 22.2425 42.7983 22.2035C43.0203 22.1646 43.2774 22.1451 43.5695 22.1451C43.8305 22.1451 44.0486 22.1801 44.22 22.2541C44.3914 22.3282 44.5316 22.4294 44.6329 22.5619C44.7341 22.6943 44.8081 22.854 44.851 23.0371C44.8938 23.2201 44.9133 23.4266 44.9133 23.6486V25.491H44.3252V23.7732C44.3252 23.5707 44.3096 23.3993 44.2862 23.2552C44.2589 23.1111 44.2122 22.9981 44.1499 22.9085C44.0876 22.8189 44.0019 22.7566 43.8967 22.7177C43.7915 22.6787 43.663 22.6592 43.5072 22.6592C43.4449 22.6592 43.3786 22.6592 43.3124 22.667C43.2462 22.6709 43.18 22.6748 43.1216 22.6826C43.0593 22.6904 43.0047 22.6982 42.958 22.706C42.9112 22.7138 42.8762 22.7216 42.8528 22.7255V25.4949H42.2646V22.3087L42.2607 22.3126Z" fill="#1D1D1B"/>
<path id="Vector_48" d="M48.4461 25.4987C48.3292 25.1949 48.2046 24.8482 48.0721 24.4626C47.9397 24.0731 47.819 23.668 47.7099 23.2474C47.6008 23.668 47.4801 24.0731 47.3515 24.4626C47.223 24.8521 47.0984 25.1988 46.9776 25.4987H46.4674C46.2726 25.0664 46.0856 24.5717 45.8987 24.0147C45.7117 23.4577 45.5403 22.8617 45.3767 22.2151H46.0077C46.0506 22.4138 46.1012 22.628 46.1596 22.8578C46.2181 23.0877 46.2804 23.3214 46.3466 23.5512C46.4128 23.781 46.479 24.0069 46.553 24.2211C46.6232 24.4354 46.6933 24.6223 46.7556 24.782C46.8257 24.5834 46.8958 24.373 46.9659 24.1549C47.036 23.9329 47.1022 23.7109 47.1646 23.485C47.2269 23.259 47.2892 23.0409 47.3438 22.8228C47.4022 22.6047 47.4489 22.4021 47.4918 22.2151H47.9786C48.0176 22.406 48.0643 22.6086 48.1189 22.8228C48.1734 23.0409 48.2318 23.259 48.2942 23.485C48.3565 23.7109 48.4227 23.9329 48.4928 24.1549C48.5629 24.3769 48.633 24.5834 48.7031 24.782C48.7655 24.6223 48.8317 24.4354 48.9018 24.2211C48.9719 24.0069 49.0381 23.7849 49.1082 23.5512C49.1745 23.3214 49.2368 23.0877 49.2991 22.8578C49.3575 22.628 49.4082 22.4138 49.451 22.2151H50.0587C49.8951 22.8578 49.7198 23.4577 49.5367 24.0147C49.3497 24.5717 49.1628 25.0625 48.968 25.4987H48.4578H48.4461Z" fill="#1D1D1B"/>
<path id="Vector_49" d="M50.4517 23.7888C50.4517 23.4967 50.4945 23.2435 50.5763 23.0293C50.662 22.8111 50.7711 22.632 50.9113 22.4878C51.0515 22.3437 51.2112 22.2386 51.3904 22.1645C51.5696 22.0944 51.7565 22.0555 51.9474 22.0555C52.3875 22.0555 52.7264 22.1918 52.964 22.4684C53.1977 22.7449 53.3185 23.1656 53.3185 23.7265V23.8239C53.3185 23.8628 53.3185 23.9018 53.3107 23.9329H51.0632C51.0905 24.2757 51.1878 24.5328 51.3592 24.7081C51.5306 24.8833 51.7994 24.9729 52.1655 24.9729C52.372 24.9729 52.5433 24.9535 52.6875 24.9184C52.8277 24.8833 52.9329 24.8483 53.0069 24.8132L53.0887 25.304C53.0186 25.343 52.8939 25.3819 52.7147 25.4248C52.5355 25.4676 52.333 25.4871 52.1071 25.4871C51.8227 25.4871 51.5735 25.4442 51.367 25.3585C51.1606 25.2729 50.9892 25.1521 50.8529 25.0002C50.7165 24.8483 50.6192 24.6691 50.5529 24.4627C50.4867 24.2562 50.4556 24.0264 50.4556 23.7771L50.4517 23.7888ZM52.703 23.4694C52.7069 23.2045 52.6407 22.9864 52.5044 22.815C52.3681 22.6436 52.1811 22.558 51.9396 22.558C51.8033 22.558 51.6864 22.5852 51.5812 22.6359C51.48 22.6904 51.3904 22.7566 51.3203 22.8423C51.2502 22.928 51.1917 23.0215 51.1528 23.1344C51.1138 23.2435 51.0866 23.3565 51.0749 23.4694H52.703Z" fill="#1D1D1B"/>
<path id="Vector_50" d="M54.8916 25.0002C55.1331 25.0002 55.3084 24.969 55.4253 24.9067C55.5421 24.8444 55.6005 24.7431 55.6005 24.6029C55.6005 24.4627 55.5421 24.3458 55.4291 24.2601C55.3162 24.1744 55.1292 24.0809 54.8682 23.9758C54.7436 23.9251 54.6229 23.8745 54.506 23.82C54.3891 23.7693 54.2918 23.707 54.2061 23.633C54.1204 23.5629 54.0542 23.4733 54.0035 23.3759C53.9529 23.2747 53.9295 23.15 53.9295 23.002C53.9295 22.7099 54.0386 22.4801 54.2528 22.3126C54.4671 22.1451 54.7592 22.0555 55.1292 22.0555C55.2227 22.0555 55.3162 22.0594 55.4058 22.0711C55.4993 22.0827 55.5849 22.0944 55.6629 22.11C55.7446 22.1256 55.8148 22.1412 55.8732 22.1568C55.9355 22.1723 55.9822 22.1879 56.0134 22.1996L55.9043 22.706C55.842 22.6709 55.7408 22.6359 55.6083 22.6008C55.4759 22.5657 55.3123 22.5463 55.1214 22.5463C54.9578 22.5463 54.8137 22.5774 54.693 22.6436C54.5722 22.7099 54.5099 22.8111 54.5099 22.9514C54.5099 23.0215 54.5255 23.0877 54.5527 23.1422C54.58 23.1968 54.6229 23.2474 54.6774 23.2902C54.7358 23.3331 54.8059 23.3759 54.8877 23.4149C54.9734 23.4538 55.0747 23.4928 55.1915 23.5356C55.3474 23.5941 55.4876 23.6525 55.6083 23.7109C55.7291 23.7693 55.8342 23.8356 55.9199 23.9096C56.0056 23.9836 56.0718 24.077 56.1186 24.1822C56.1653 24.2913 56.1887 24.4198 56.1887 24.5756C56.1887 24.8794 56.0757 25.1093 55.8498 25.2651C55.6239 25.4209 55.3045 25.4988 54.8877 25.4988C54.5956 25.4988 54.3697 25.4754 54.2061 25.4248C54.0425 25.378 53.9295 25.3391 53.8711 25.3157L53.9802 24.8093C54.0464 24.8327 54.1554 24.8717 54.3035 24.9223C54.4515 24.9729 54.6462 24.9963 54.8916 24.9963V25.0002Z" fill="#1D1D1B"/>
<path id="Vector_51" d="M57.4632 22.1411H58.7057V22.6319H57.4632V24.1471C57.4632 24.3107 57.4748 24.447 57.5021 24.5521C57.5255 24.6612 57.5644 24.743 57.6151 24.8053C57.6657 24.8677 57.728 24.9105 57.8059 24.9339C57.8799 24.9611 57.9695 24.9728 58.0708 24.9728C58.2461 24.9728 58.3902 24.9533 58.4954 24.9144C58.6044 24.8754 58.6784 24.8443 58.7213 24.8287L58.8342 25.3156C58.7758 25.3468 58.6706 25.3818 58.5265 25.4247C58.3785 25.4675 58.211 25.4909 58.0202 25.4909C57.7981 25.4909 57.6112 25.4636 57.4671 25.4052C57.3229 25.3468 57.2061 25.265 57.1165 25.1481C57.0269 25.0351 56.9646 24.8949 56.9295 24.7274C56.8945 24.5599 56.875 24.3691 56.875 24.1509V21.2218L57.4632 21.1205V22.1372V22.1411Z" fill="#1D1D1B"/>
<path id="Vector_52" d="M59.0327 26.1103C59.0794 26.1297 59.1378 26.1531 59.2118 26.1687C59.2858 26.1882 59.3599 26.196 59.43 26.196C59.6598 26.196 59.8428 26.1453 59.9714 26.0402C60.0999 25.9389 60.2207 25.7714 60.3258 25.5377C60.061 25.0313 59.8117 24.4977 59.5858 23.9329C59.356 23.3681 59.1651 22.7955 59.0132 22.2151H59.6442C59.6909 22.406 59.7455 22.6086 59.8117 22.8267C59.8779 23.0448 59.948 23.2707 60.0298 23.5005C60.1116 23.7303 60.1973 23.9641 60.2869 24.1939C60.3804 24.4237 60.4777 24.6496 60.579 24.8638C60.7387 24.4237 60.8789 23.9835 60.9958 23.5512C61.1127 23.1188 61.2256 22.6709 61.3308 22.2151H61.9384C61.7865 22.8345 61.619 23.4265 61.4321 23.9991C61.2451 24.5678 61.0464 25.1014 60.8322 25.6C60.7465 25.7909 60.6608 25.9506 60.5712 26.0908C60.4816 26.2271 60.3804 26.3401 60.2713 26.4297C60.1622 26.5193 60.0376 26.5816 59.9013 26.6244C59.7649 26.6673 59.6091 26.6867 59.4378 26.6867C59.391 26.6867 59.3443 26.6867 59.2936 26.679C59.243 26.6712 59.1924 26.6634 59.1456 26.6556C59.0989 26.6439 59.0521 26.6322 59.0132 26.6205C58.9742 26.6088 58.9431 26.5972 58.9275 26.5894L59.0366 26.1142L59.0327 26.1103Z" fill="#1D1D1B"/>
<path id="Vector_53" d="M63.9483 25.5065C63.6834 25.5065 63.4497 25.4637 63.251 25.3819C63.0524 25.2962 62.8849 25.1793 62.7447 25.0274C62.6083 24.8755 62.5071 24.6964 62.437 24.486C62.3708 24.2796 62.3357 24.0459 62.3357 23.7966C62.3357 23.5473 62.3707 23.3136 62.4448 23.1033C62.5188 22.8929 62.6239 22.7098 62.7564 22.5579C62.8888 22.406 63.0563 22.2853 63.251 22.1996C63.4458 22.1139 63.6639 22.071 63.9054 22.071C64.0534 22.071 64.2015 22.0827 64.3456 22.11C64.4936 22.1334 64.6338 22.1762 64.7701 22.2307L64.6377 22.7293C64.5481 22.6865 64.4468 22.6553 64.33 22.628C64.2131 22.6047 64.0924 22.5891 63.96 22.5891C63.6328 22.5891 63.3796 22.6904 63.2043 22.8968C63.029 23.1033 62.9433 23.4032 62.9433 23.8005C62.9433 23.9758 62.9628 24.1394 63.0018 24.2874C63.0407 24.4354 63.103 24.56 63.1926 24.6652C63.2783 24.7704 63.3874 24.8522 63.5237 24.9067C63.66 24.9651 63.8236 24.9924 64.0145 24.9924C64.1703 24.9924 64.3105 24.9768 64.4391 24.9495C64.5637 24.9184 64.665 24.8872 64.7351 24.8561L64.8169 25.3468C64.7818 25.3663 64.7351 25.3858 64.6728 25.4053C64.6104 25.4247 64.5364 25.4403 64.4585 25.4559C64.3767 25.4715 64.2949 25.4832 64.2015 25.4949C64.1119 25.5065 64.0223 25.5104 63.9405 25.5104L63.9483 25.5065Z" fill="#1D1D1B"/>
<path id="Vector_54" d="M65.1088 26.1103C65.1556 26.1297 65.214 26.1531 65.288 26.1687C65.362 26.1882 65.436 26.196 65.5061 26.196C65.7359 26.196 65.919 26.1453 66.0476 26.0402C66.1761 25.9389 66.2968 25.7714 66.402 25.5377C66.1371 25.0313 65.8918 24.4977 65.6619 23.9329C65.4321 23.3681 65.2413 22.7955 65.0894 22.2151H65.7204C65.7671 22.406 65.8216 22.6086 65.8879 22.8267C65.9541 23.0448 66.0242 23.2707 66.106 23.5005C66.1878 23.7303 66.2735 23.9641 66.3631 24.1939C66.4565 24.4237 66.5539 24.6496 66.6552 24.8638C66.8149 24.4237 66.9551 23.9835 67.072 23.5512C67.1888 23.1188 67.3018 22.6709 67.4069 22.2151H68.0146C67.8627 22.8345 67.6952 23.4265 67.5082 23.9991C67.3213 24.5678 67.1226 25.1014 66.9084 25.6C66.8227 25.7909 66.737 25.9506 66.6474 26.0908C66.5578 26.2271 66.4565 26.3401 66.3475 26.4297C66.2384 26.5193 66.1138 26.5816 65.9774 26.6244C65.8411 26.6673 65.6853 26.6867 65.5139 26.6867C65.4672 26.6867 65.4204 26.6867 65.3698 26.679C65.3192 26.6712 65.2685 26.6634 65.2218 26.6556C65.175 26.6439 65.1283 26.6322 65.0894 26.6205C65.0504 26.6088 65.0192 26.5972 65.0037 26.5894L65.1127 26.1142L65.1088 26.1103Z" fill="#1D1D1B"/>
<path id="Vector_55" d="M68.0616 26.6789C68.011 26.6789 67.9448 26.6711 67.8669 26.6594C67.7851 26.6478 67.7188 26.6283 67.6643 26.6088L67.7383 26.1297C67.7812 26.1414 67.8279 26.1531 67.8824 26.1609C67.937 26.1687 67.9876 26.1726 68.0343 26.1726C68.2369 26.1726 68.381 26.1102 68.4667 25.9856C68.5524 25.8609 68.5952 25.6779 68.5952 25.4403V22.2151H69.1834V25.4325C69.1834 25.8532 69.086 26.1648 68.8952 26.3712C68.7043 26.5738 68.4239 26.6789 68.0577 26.6789H68.0616ZM68.8913 21.6269C68.7861 21.6269 68.6965 21.5919 68.6225 21.5218C68.5485 21.4517 68.5134 21.3582 68.5134 21.2413C68.5134 21.1245 68.5485 21.031 68.6225 20.9609C68.6965 20.8908 68.7861 20.8557 68.8913 20.8557C68.9964 20.8557 69.086 20.8908 69.16 20.9609C69.234 21.031 69.2691 21.1245 69.2691 21.2413C69.2691 21.3582 69.234 21.4517 69.16 21.5218C69.086 21.5919 68.9964 21.6269 68.8913 21.6269Z" fill="#1D1D1B"/>
<path id="Vector_56" d="M70.165 22.3126C70.3014 22.2775 70.4767 22.2425 70.7026 22.2035C70.9285 22.1646 71.1817 22.1451 71.4738 22.1451C71.7348 22.1451 71.9529 22.1801 72.1243 22.2541C72.2957 22.3282 72.4359 22.4294 72.5372 22.5619C72.6384 22.6943 72.7124 22.854 72.7553 23.0371C72.7981 23.2201 72.8176 23.4266 72.8176 23.6486V25.491H72.2294V23.7732C72.2294 23.5707 72.2139 23.3993 72.1866 23.2552C72.1593 23.1111 72.1126 22.9981 72.0503 22.9085C71.988 22.8189 71.9023 22.7566 71.7971 22.7177C71.6919 22.6787 71.5634 22.6592 71.4076 22.6592C71.3453 22.6592 71.279 22.6592 71.2128 22.667C71.1466 22.6709 71.0804 22.6748 71.022 22.6826C70.9596 22.6904 70.9051 22.6982 70.8584 22.706C70.8116 22.7138 70.7766 22.7216 70.7532 22.7255V25.4949H70.165V22.3087V22.3126Z" fill="#1D1D1B"/>
<path id="Vector_57" d="M73.5732 23.7888C73.5732 23.4967 73.6161 23.2435 73.6979 23.0293C73.7836 22.8111 73.8926 22.632 74.0329 22.4878C74.1731 22.3437 74.3328 22.2386 74.512 22.1645C74.6911 22.0944 74.8781 22.0555 75.069 22.0555C75.5091 22.0555 75.848 22.1918 76.0856 22.4684C76.3193 22.7449 76.44 23.1656 76.44 23.7265V23.8239C76.44 23.8628 76.44 23.9018 76.4323 23.9329H74.1848C74.2081 24.2757 74.3094 24.5328 74.4808 24.7081C74.6522 24.8833 74.921 24.9729 75.2871 24.9729C75.4935 24.9729 75.6649 24.9535 75.809 24.9184C75.9493 24.8833 76.0544 24.8483 76.1284 24.8132L76.2102 25.304C76.1401 25.343 76.0155 25.3819 75.8363 25.4248C75.6571 25.4676 75.4546 25.4871 75.2287 25.4871C74.9443 25.4871 74.695 25.4442 74.4886 25.3585C74.2822 25.2729 74.1108 25.1521 73.9744 25.0002C73.8381 24.8483 73.7407 24.6691 73.6745 24.4627C73.6083 24.2562 73.5771 24.0264 73.5771 23.7771L73.5732 23.7888ZM75.8246 23.4694C75.8285 23.2045 75.7623 22.9864 75.626 22.815C75.4896 22.6436 75.3027 22.558 75.0612 22.558C74.9249 22.558 74.808 22.5852 74.7028 22.6359C74.6016 22.6904 74.512 22.7566 74.4418 22.8423C74.3717 22.928 74.3133 23.0215 74.2744 23.1344C74.2354 23.2435 74.2081 23.3565 74.1965 23.4694H75.8246Z" fill="#1D1D1B"/>
</g>
<g id="Group_4">
<path id="Vector_58" d="M9.97769 8.94837C9.52585 8.94837 9.13634 8.88215 8.81305 8.75361C8.48586 8.62118 8.21709 8.43811 8.00675 8.2044C7.79252 7.9668 7.63672 7.69025 7.53545 7.37085C7.43418 7.05145 7.38354 6.70089 7.38354 6.31916V2.17865H8.59882V6.20231C8.59882 6.50223 8.63387 6.75931 8.70009 6.97354C8.7663 7.18778 8.86369 7.35916 8.98833 7.49549C9.11298 7.62792 9.26099 7.7292 9.42848 7.79152C9.59597 7.85384 9.78683 7.8889 9.99717 7.8889C10.2075 7.8889 10.3984 7.85774 10.5698 7.79152C10.7411 7.7292 10.8891 7.62792 11.0138 7.49549C11.1384 7.36306 11.2319 7.18778 11.302 6.97354C11.3683 6.75931 11.4033 6.50223 11.4033 6.20231V2.17865H12.6186V6.31916C12.6186 6.70089 12.5679 7.05145 12.4628 7.37085C12.3576 7.69025 12.1979 7.9668 11.9837 8.2044C11.7695 8.44201 11.4968 8.62508 11.1657 8.75361C10.8346 8.88605 10.4412 8.94837 9.98937 8.94837H9.97769Z" fill="#1D1D1B"/>
<path id="Vector_59" d="M14.0288 4.09909C14.2508 4.03676 14.5429 3.97444 14.8974 3.91601C15.2558 3.85759 15.6492 3.83032 16.0815 3.83032C16.4905 3.83032 16.8294 3.88485 17.1059 3.99781C17.3786 4.11077 17.5967 4.26658 17.7603 4.46523C17.9239 4.66777 18.0369 4.90927 18.1031 5.19361C18.1693 5.47796 18.2044 5.78957 18.2044 6.12455V8.93683H17.0475V6.30762C17.0475 6.03886 17.028 5.81294 16.993 5.62208C16.9579 5.43511 16.8995 5.27931 16.8216 5.16245C16.7437 5.0456 16.6346 4.95991 16.4983 4.90538C16.362 4.85084 16.1945 4.82358 15.9958 4.82358C15.8478 4.82358 15.6959 4.83137 15.5362 4.85084C15.3765 4.87032 15.2597 4.8859 15.1818 4.89759V8.93293H14.0249V4.09519L14.0288 4.09909Z" fill="#1D1D1B"/>
<path id="Vector_60" d="M20.857 2.47488C20.857 2.69301 20.7869 2.86439 20.6467 2.99293C20.5064 3.12147 20.339 3.18379 20.1481 3.18379C19.9572 3.18379 19.7819 3.12147 19.6417 2.99293C19.5015 2.86439 19.4314 2.69301 19.4314 2.47488C19.4314 2.25675 19.5015 2.07758 19.6417 1.94904C19.7819 1.8205 19.9494 1.75818 20.1481 1.75818C20.3467 1.75818 20.5064 1.8205 20.6467 1.94904C20.7869 2.07758 20.857 2.25286 20.857 2.47488ZM20.7324 8.93689H19.5755V3.93555H20.7324V8.93689Z" fill="#1D1D1B"/>
<path id="Vector_61" d="M23.8129 3.71709C24.1946 3.71709 24.5179 3.76383 24.7788 3.86121C25.0398 3.95859 25.2502 4.09102 25.406 4.26241C25.5618 4.43379 25.6747 4.64413 25.7409 4.88952C25.8072 5.13491 25.8422 5.40368 25.8422 5.69581V8.72622C25.663 8.76517 25.3943 8.81191 25.0359 8.86644C24.6776 8.92097 24.2686 8.94824 23.8167 8.94824C23.5168 8.94824 23.2442 8.92097 22.9949 8.86255C22.7456 8.80412 22.5353 8.71453 22.36 8.58599C22.1847 8.45745 22.0484 8.29386 21.9471 8.08742C21.8497 7.88487 21.7991 7.63169 21.7991 7.33176C21.7991 7.03184 21.8536 6.80203 21.9666 6.60338C22.0795 6.40472 22.2275 6.24502 22.4223 6.12038C22.6132 5.99574 22.8352 5.90615 23.0884 5.85162C23.3415 5.79709 23.6025 5.76982 23.8791 5.76982C24.0076 5.76982 24.14 5.77761 24.2803 5.79319C24.4205 5.80877 24.5685 5.83604 24.7282 5.87499V5.68413C24.7282 5.55169 24.7126 5.42315 24.6815 5.30241C24.6503 5.18166 24.5919 5.07259 24.514 4.983C24.4322 4.88952 24.327 4.81941 24.1985 4.76877C24.066 4.71814 23.9024 4.69087 23.7077 4.69087C23.4389 4.69087 23.1935 4.71035 22.9715 4.7493C22.7495 4.78825 22.5664 4.8311 22.4262 4.88173L22.2821 3.94301C22.4301 3.89237 22.6404 3.84173 22.9209 3.7911C23.2013 3.74046 23.5012 3.7132 23.8206 3.7132L23.8129 3.71709ZM23.9063 8.02899C24.2647 8.02899 24.5334 8.00951 24.7204 7.97056V6.68907C24.6581 6.66959 24.5646 6.65012 24.4439 6.63064C24.3231 6.61117 24.1907 6.60338 24.0427 6.60338C23.9141 6.60338 23.7856 6.61117 23.6571 6.63064C23.5246 6.65012 23.4078 6.68517 23.3026 6.73581C23.1974 6.78645 23.1117 6.86045 23.0494 6.95004C22.9871 7.04352 22.952 7.16038 22.952 7.3006C22.952 7.57326 23.0377 7.76412 23.2091 7.86929C23.3805 7.97446 23.6142 8.02899 23.9063 8.02899Z" fill="#1D1D1B"/>
<path id="Vector_62" d="M29.4258 8.93694V2.31134H33.6792V3.33576H30.6294V4.97171H33.3443V5.97665H30.6294V7.91642H33.9091V8.94084H29.4258V8.93694Z" fill="#1D1D1B"/>
<path id="Vector_63" d="M38.8521 8.67975C38.6301 8.73817 38.338 8.7966 37.9835 8.85503C37.6252 8.91735 37.2357 8.94462 36.8072 8.94462C36.406 8.94462 36.071 8.88619 35.7984 8.77323C35.5257 8.66027 35.3115 8.50057 35.1479 8.29413C34.9843 8.09159 34.8674 7.84619 34.7973 7.56185C34.7272 7.2775 34.6921 6.9659 34.6921 6.63091V3.83032H35.849V6.45174C35.849 6.98537 35.9269 7.37099 36.0827 7.6008C36.2385 7.83061 36.5112 7.94357 36.9007 7.94357C37.0409 7.94357 37.1889 7.93578 37.3447 7.9241C37.5005 7.91241 37.6174 7.89683 37.6953 7.87735V3.83422H38.8521V8.68364V8.67975Z" fill="#1D1D1B"/>
<path id="Vector_64" d="M43.1176 4.97938C43.0202 4.94822 42.8878 4.91317 42.7203 4.87811C42.5528 4.84305 42.3542 4.82358 42.1321 4.82358C42.0036 4.82358 41.8673 4.83526 41.727 4.86253C41.5829 4.8898 41.4816 4.90927 41.4271 4.92875V8.93683H40.2703V4.17309C40.4923 4.0913 40.7727 4.01339 41.1077 3.93939C41.4427 3.86538 41.8127 3.83032 42.2217 3.83032C42.2996 3.83032 42.3892 3.83422 42.4905 3.8459C42.5917 3.85369 42.693 3.86927 42.7982 3.88485C42.8995 3.90043 43.0007 3.91991 43.0942 3.94328C43.1916 3.96665 43.2656 3.98613 43.324 4.0056L43.1215 4.97938H43.1176Z" fill="#1D1D1B"/>
<path id="Vector_65" d="M48.5859 6.30765C48.5859 6.70105 48.5275 7.0633 48.4145 7.38659C48.3016 7.70989 48.138 7.99034 47.9276 8.22015C47.7173 8.44996 47.4641 8.62914 47.1681 8.75768C46.8721 8.88622 46.5449 8.94854 46.1865 8.94854C45.8282 8.94854 45.5049 8.88622 45.2127 8.75768C44.9206 8.62914 44.6674 8.44996 44.4571 8.22015C44.2468 7.99034 44.0832 7.71379 43.9663 7.38659C43.8494 7.0594 43.791 6.70105 43.791 6.30765C43.791 5.91424 43.8494 5.55589 43.9663 5.23259C44.0832 4.9093 44.2506 4.63664 44.4649 4.40683C44.6791 4.17701 44.9323 4.00173 45.2244 3.87709C45.5166 3.75245 45.8399 3.69012 46.1904 3.69012C46.541 3.69012 46.8643 3.75245 47.1603 3.87709C47.4563 4.00173 47.7095 4.17701 47.9198 4.40683C48.1302 4.63664 48.2938 4.91319 48.4106 5.23259C48.5275 5.55589 48.5859 5.91424 48.5859 6.30765ZM47.4018 6.30765C47.4018 5.80907 47.2966 5.41566 47.0824 5.12742C46.8682 4.83919 46.5721 4.69117 46.1865 4.69117C45.8009 4.69117 45.5049 4.83529 45.2906 5.12742C45.0764 5.41566 44.9712 5.80907 44.9712 6.30765C44.9712 6.80622 45.0764 7.21131 45.2906 7.50345C45.5049 7.79558 45.8009 7.9436 46.1865 7.9436C46.5721 7.9436 46.8682 7.79558 47.0824 7.50345C47.2966 7.21131 47.4018 6.81012 47.4018 6.30765Z" fill="#1D1D1B"/>
<path id="Vector_66" d="M54.2257 6.44005C54.2257 6.82178 54.175 7.17234 54.0776 7.49174C53.9803 7.81114 53.8361 8.08379 53.6531 8.31361C53.4661 8.54342 53.2363 8.72259 52.9597 8.85113C52.6832 8.97967 52.3677 9.04199 52.0171 9.04199C51.7795 9.04199 51.5653 9.01473 51.3666 8.9563C51.168 8.89788 51.0083 8.83555 50.8798 8.76544V10.7052H49.7229V4.09909C49.9605 4.03676 50.2487 3.97444 50.5915 3.91601C50.9343 3.85759 51.3004 3.83032 51.6821 3.83032C52.0639 3.83032 52.43 3.89264 52.7455 4.01339C53.0571 4.13414 53.322 4.30942 53.544 4.53534C53.7621 4.76126 53.9335 5.03391 54.0504 5.35721C54.1672 5.6805 54.2257 6.04275 54.2257 6.44395V6.44005ZM53.0415 6.45953C53.0415 5.94148 52.9247 5.54028 52.691 5.25594C52.4573 4.9677 52.0833 4.82747 51.5692 4.82747C51.4601 4.82747 51.3472 4.83137 51.2303 4.84305C51.1135 4.85084 50.9966 4.87421 50.8798 4.90538V7.76439C50.981 7.83451 51.1174 7.90072 51.2848 7.95915C51.4523 8.02147 51.6354 8.04874 51.8263 8.04874C52.2469 8.04874 52.5546 7.90462 52.7494 7.62028C52.9442 7.33204 53.0415 6.94642 53.0415 6.46342V6.45953Z" fill="#1D1D1B"/>
<path id="Vector_67" d="M55.0874 6.3465C55.0874 5.90635 55.1536 5.52073 55.2822 5.18965C55.4146 4.85856 55.586 4.58201 55.8041 4.36388C56.0222 4.14575 56.2676 3.97826 56.5481 3.86531C56.8285 3.75235 57.1168 3.69781 57.4089 3.69781C58.0983 3.69781 58.6359 3.91205 59.0215 4.33661C59.4071 4.76508 59.6019 5.39998 59.6019 6.24912C59.6019 6.31144 59.6019 6.38545 59.598 6.46335C59.598 6.54515 59.5902 6.61526 59.5824 6.67758H56.2832C56.3144 7.07878 56.4585 7.39039 56.7078 7.60852C56.961 7.82664 57.3232 7.9396 57.8023 7.9396C58.0828 7.9396 58.3398 7.91623 58.5735 7.8617C58.8072 7.81106 58.9903 7.75653 59.1228 7.6981L59.2747 8.64462C59.2123 8.67578 59.1228 8.71084 59.0137 8.74589C58.9007 8.78095 58.7761 8.81211 58.632 8.84327C58.4878 8.87054 58.332 8.8978 58.1684 8.91338C58.001 8.93286 57.8335 8.94065 57.6621 8.94065C57.2219 8.94065 56.8402 8.87443 56.513 8.74589C56.1897 8.61346 55.921 8.43428 55.7106 8.20057C55.5003 7.96687 55.3445 7.69421 55.2432 7.3787C55.1419 7.0632 55.0913 6.71653 55.0913 6.3426L55.0874 6.3465ZM58.445 5.82845C58.445 5.66875 58.4216 5.51684 58.3788 5.37272C58.3359 5.2286 58.2697 5.10395 58.184 4.99879C58.0983 4.89362 57.9932 4.81182 57.8685 4.7495C57.7439 4.68718 57.5959 4.65991 57.4245 4.65991C57.2531 4.65991 57.0895 4.69497 56.9571 4.76118C56.8246 4.8274 56.7117 4.91699 56.6182 5.02605C56.5247 5.13511 56.4546 5.25976 56.404 5.39998C56.3533 5.54021 56.3183 5.68433 56.2988 5.82845H58.4489H58.445Z" fill="#1D1D1B"/>
<path id="Vector_68" d="M60.1265 10.717C60.0447 10.717 59.9279 10.7092 59.776 10.6936C59.6279 10.678 59.4955 10.6468 59.3787 10.604L59.5306 9.65749C59.6708 9.70033 59.8383 9.7237 60.0369 9.7237C60.3057 9.7237 60.4927 9.6458 60.6017 9.48999C60.7108 9.33419 60.7653 9.10048 60.7653 8.78887V3.93945H61.9222V8.80445C61.9222 9.45494 61.7664 9.93404 61.4587 10.2495C61.1509 10.5612 60.703 10.717 60.1265 10.717ZM62.0468 2.47488C62.0468 2.69301 61.9767 2.86439 61.8365 2.99293C61.6963 3.12147 61.5288 3.18379 61.3379 3.18379C61.147 3.18379 60.9718 3.12147 60.8315 2.99293C60.6913 2.86439 60.6212 2.69301 60.6212 2.47488C60.6212 2.25675 60.6913 2.07758 60.8315 1.94904C60.9718 1.8205 61.1393 1.75818 61.3379 1.75818C61.5366 1.75818 61.6963 1.8205 61.8365 1.94904C61.9767 2.07758 62.0468 2.25286 62.0468 2.47488Z" fill="#1D1D1B"/>
<path id="Vector_69" d="M64.5913 7.99023C64.899 7.99023 65.121 7.95517 65.2612 7.88116C65.4015 7.80716 65.4716 7.68251 65.4716 7.50334C65.4716 7.33585 65.3976 7.19952 65.2456 7.09045C65.0976 6.98139 64.8483 6.86454 64.5056 6.736C64.2952 6.6581 64.1005 6.5763 63.9252 6.49061C63.7499 6.40491 63.598 6.30364 63.4695 6.19068C63.3409 6.07772 63.2397 5.9375 63.1695 5.7739C63.0955 5.61031 63.0605 5.41166 63.0605 5.17795C63.0605 4.71833 63.228 4.35608 63.5669 4.09121C63.9057 3.82634 64.3654 3.69391 64.9418 3.69391C65.234 3.69391 65.5144 3.72117 65.7832 3.77571C66.0519 3.83024 66.2506 3.88087 66.3869 3.93541L66.1766 4.87413C66.048 4.8157 65.8844 4.76507 65.6897 4.71833C65.491 4.67158 65.2612 4.64821 65.0003 4.64821C64.7627 4.64821 64.5718 4.68716 64.4277 4.76896C64.2797 4.85076 64.2095 4.97151 64.2095 5.139C64.2095 5.2208 64.2251 5.2948 64.2524 5.35713C64.2797 5.41945 64.3303 5.48177 64.4004 5.53241C64.4705 5.58694 64.564 5.64147 64.677 5.696C64.7899 5.75053 64.9301 5.80506 65.0976 5.86349C65.3703 5.96476 65.604 6.06604 65.7949 6.16342C65.9857 6.26079 66.1454 6.37375 66.2662 6.4984C66.3908 6.62304 66.4804 6.76326 66.5388 6.92296C66.5973 7.08266 66.6245 7.27353 66.6245 7.49555C66.6245 7.97465 66.4492 8.33689 66.0948 8.58228C65.7403 8.82768 65.234 8.94843 64.5796 8.94843C64.1394 8.94843 63.785 8.91337 63.5162 8.83936C63.2474 8.76536 63.0605 8.70693 62.9514 8.66408L63.154 7.69809C63.3254 7.7682 63.5318 7.83442 63.7694 7.90064C64.007 7.96296 64.2797 7.99802 64.5874 7.99802L64.5913 7.99023Z" fill="#1D1D1B"/>
<path id="Vector_70" d="M68.8089 5.88706C68.9569 5.73515 69.1127 5.57156 69.2763 5.39628C69.4438 5.221 69.6035 5.04572 69.7632 4.87043C69.9229 4.69515 70.0748 4.52766 70.219 4.36407C70.3631 4.20047 70.4838 4.06025 70.5851 3.9395H71.9523C71.6329 4.29785 71.2979 4.66789 70.9435 5.04961C70.589 5.43133 70.2345 5.80526 69.8762 6.16751C70.067 6.32721 70.2696 6.51807 70.4799 6.74788C70.6903 6.9738 70.8928 7.2153 71.0915 7.46848C71.2901 7.72166 71.4732 7.97874 71.6446 8.23193C71.816 8.48511 71.9601 8.72271 72.073 8.94084H70.7331C70.6163 8.74219 70.4877 8.53574 70.3358 8.31762C70.1878 8.09949 70.0242 7.88915 69.8528 7.68661C69.6814 7.48406 69.5062 7.28931 69.327 7.10623C69.1478 6.92316 68.9725 6.77125 68.8011 6.64271V8.93694H67.6443V2.5022L68.8011 2.31134V5.88706H68.8089Z" fill="#1D1D1B"/>
<path id="Vector_71" d="M74.5279 3.71709C74.9097 3.71709 75.233 3.76383 75.4939 3.86121C75.7549 3.95859 75.9652 4.09102 76.121 4.26241C76.2768 4.43379 76.3898 4.64413 76.456 4.88952C76.5222 5.13491 76.5573 5.40368 76.5573 5.69581V8.72622C76.3781 8.76517 76.1094 8.81191 75.751 8.86644C75.3927 8.92097 74.9837 8.94824 74.5318 8.94824C74.2319 8.94824 73.9593 8.92097 73.71 8.86255C73.4607 8.80412 73.2503 8.71453 73.0751 8.58599C72.8998 8.45745 72.7634 8.29386 72.6622 8.08742C72.5648 7.88487 72.5142 7.63169 72.5142 7.33176C72.5142 7.03184 72.5687 6.80203 72.6816 6.60338C72.7946 6.40472 72.9426 6.24502 73.1374 6.12038C73.3282 5.99574 73.5503 5.90615 73.8034 5.85162C74.0566 5.79709 74.3176 5.76982 74.5942 5.76982C74.7227 5.76982 74.8551 5.77761 74.9954 5.79319C75.1356 5.80877 75.2836 5.83604 75.4433 5.87499V5.68413C75.4433 5.55169 75.4277 5.42315 75.3965 5.30241C75.3654 5.18166 75.307 5.07259 75.2291 4.983C75.1473 4.88952 75.0421 4.81941 74.9136 4.76877C74.7811 4.71814 74.6175 4.69087 74.4228 4.69087C74.154 4.69087 73.9086 4.71035 73.6866 4.7493C73.4646 4.78825 73.2815 4.8311 73.1413 4.88173L72.9972 3.94301C73.1452 3.89237 73.3555 3.84173 73.636 3.7911C73.9164 3.74046 74.2163 3.7132 74.5357 3.7132L74.5279 3.71709ZM74.6214 8.02899C74.9798 8.02899 75.2485 8.00951 75.4355 7.97056V6.68907C75.3732 6.66959 75.2797 6.65012 75.159 6.63064C75.0382 6.61117 74.9058 6.60338 74.7577 6.60338C74.6292 6.60338 74.5007 6.61117 74.3721 6.63064C74.2397 6.65012 74.1228 6.68517 74.0177 6.73581C73.9125 6.78645 73.8268 6.86045 73.7645 6.95004C73.7022 7.04352 73.6671 7.16038 73.6671 7.3006C73.6671 7.57326 73.7528 7.76412 73.9242 7.86929C74.0956 7.97446 74.3293 8.02899 74.6214 8.02899Z" fill="#1D1D1B"/>
</g>
</g>
</svg>
