<svg width="71" height="33" viewBox="0 0 71 33" fill="none" xmlns="http://www.w3.org/2000/svg">
<g id="Group">
<g id="Group_2">
<path id="Vector" d="M16.1681 32.3326L0 29.2993V5.05075L16.1681 0V32.3326Z" fill="#164194"/>
<path id="Vector_2" d="M0 23.4714V17.1767C0.812683 17.3977 1.71804 17.501 2.31686 17.141C3.62143 16.3604 5.59967 13.9758 5.59967 13.9758C5.59967 13.9758 4.5553 16.5493 4.95095 17.4903C5.36798 18.4919 7.83811 18.5454 7.83811 18.5454C7.83811 18.5454 5.04362 20.242 3.74618 21.3684C2.40953 22.5161 1.47922 26.7364 1.47922 26.7364C1.47922 26.7364 0.830504 24.031 0 23.4643" fill="#FFED00"/>
<path id="Vector_3" d="M16.168 12.365C15.6084 12.7178 15.0595 12.9959 14.646 13.0743C13.3486 13.3238 11.9549 11.8339 11.9549 11.8339C11.9549 11.8339 12.2828 14.0153 11.463 15.3591C10.604 16.7741 7.83447 18.5492 7.83447 18.5492C7.83447 18.5492 10.8927 17.9575 11.488 18.9056C12.1189 19.9215 12.2044 23.4645 12.2044 23.4645C12.2044 23.4645 13.7621 19.2122 15.1771 18.6312C15.4516 18.5135 15.7973 18.4066 16.1645 18.3032V12.365H16.168Z" fill="#E30613"/>
<path id="Vector_4" d="M5.60312 13.9795C5.60312 13.9795 7.16433 11.5308 7.07165 10.6611C6.97898 9.83415 5.35718 9.53474 5.35718 9.53474C5.35718 9.53474 7.47799 9.01434 8.40474 8.18027C9.29584 7.37472 10.0764 5.71014 10.0764 5.71014C10.0764 5.71014 10.2725 7.08957 11.0673 7.28917C11.8872 7.49591 14.0757 6.61194 14.0757 6.61194C14.0757 6.61194 12.347 8.24799 11.6697 9.13909C10.9604 10.0694 11.9549 11.8373 11.9549 11.8373C11.9549 11.8373 10.1228 11.1993 9.09623 11.3918C8.08751 11.5843 5.59956 13.9831 5.59956 13.9831" fill="white"/>
</g>
<g id="Group_3">
<path id="Vector_5" d="M24.2451 14.9313V8.86829H28.0768V9.80572H25.3465V11.3562H27.7703V12.2937H25.3465V14.9349H24.2451V14.9313Z" fill="#1D1D1B"/>
<path id="Vector_6" d="M32.5253 14.696C32.3221 14.7494 32.0548 14.8029 31.7304 14.8564C31.4025 14.9134 31.0461 14.9384 30.654 14.9384C30.2868 14.9384 29.9803 14.8849 29.7308 14.7815C29.4813 14.6782 29.2852 14.532 29.1355 14.3431C28.9858 14.1578 28.8789 13.9332 28.8147 13.673C28.7506 13.4128 28.7185 13.1276 28.7185 12.8211V10.2583H29.7771V12.6571C29.7771 13.1455 29.8484 13.4983 29.991 13.7086C30.1336 13.9189 30.3831 14.0223 30.7395 14.0223C30.8678 14.0223 31.0033 14.0152 31.1459 14.0045C31.2884 13.9938 31.3954 13.9795 31.4667 13.9617V10.2619H32.5253V14.6995V14.696Z" fill="#1D1D1B"/>
<path id="Vector_7" d="M33.8191 10.5042C34.0223 10.4472 34.2896 10.3902 34.614 10.3367C34.9384 10.2833 35.3019 10.2583 35.6976 10.2583C36.0718 10.2583 36.3819 10.3082 36.635 10.4116C36.8845 10.5149 37.0841 10.6575 37.2338 10.8393C37.3835 11.0246 37.4869 11.2456 37.5475 11.5058C37.6081 11.766 37.6402 12.0512 37.6402 12.3577V14.9312H36.5815V12.5253C36.5815 12.2793 36.5637 12.0726 36.5316 11.8979C36.4996 11.7268 36.4461 11.5843 36.3748 11.4773C36.3 11.3704 36.2037 11.292 36.0754 11.2421C35.9506 11.1922 35.7974 11.1672 35.6156 11.1672C35.4801 11.1672 35.3411 11.1744 35.195 11.1922C35.0489 11.21 34.9419 11.2243 34.8706 11.2349V14.9277H33.812V10.5007L33.8191 10.5042Z" fill="#1D1D1B"/>
<path id="Vector_8" d="M42.7514 14.6853C42.5411 14.7495 42.2773 14.8065 41.9601 14.86C41.6429 14.9135 41.3078 14.9384 40.9585 14.9384C40.6092 14.9384 40.2741 14.8814 39.989 14.7709C39.7038 14.6604 39.4579 14.5 39.2583 14.2933C39.0587 14.0865 38.9019 13.837 38.7949 13.5412C38.688 13.2453 38.6345 12.9138 38.6345 12.5467C38.6345 12.1796 38.6809 11.8552 38.77 11.5629C38.8591 11.2671 38.9945 11.0176 39.1692 10.8073C39.3438 10.597 39.5577 10.4366 39.8072 10.3225C40.0567 10.2085 40.3454 10.1514 40.6734 10.1514C40.8943 10.1514 41.0904 10.1764 41.2579 10.2298C41.4254 10.2833 41.5716 10.3403 41.6963 10.4045V8.20884L42.755 8.03418V14.6853H42.7514ZM39.7145 12.5253C39.7145 12.9923 39.825 13.3594 40.046 13.6232C40.267 13.8869 40.5736 14.0224 40.9656 14.0224C41.1332 14.0224 41.2793 14.0152 41.4005 14.001C41.5181 13.9867 41.6179 13.9689 41.6928 13.9511V11.3277C41.6001 11.2635 41.4753 11.2029 41.3221 11.1495C41.1688 11.0924 41.0048 11.0675 40.8266 11.0675C40.4417 11.0675 40.1601 11.1994 39.9819 11.4596C39.8036 11.7233 39.7145 12.0762 39.7145 12.5289V12.5253Z" fill="#1D1D1B"/>
<path id="Vector_9" d="M47.8024 14.696C47.5992 14.7494 47.3319 14.8029 47.0075 14.8564C46.6796 14.9134 46.3232 14.9384 45.9311 14.9384C45.5639 14.9384 45.2574 14.8849 45.0079 14.7815C44.7584 14.6782 44.5623 14.532 44.4126 14.3431C44.2629 14.1578 44.156 13.9332 44.0918 13.673C44.0277 13.4128 43.9956 13.1276 43.9956 12.8211V10.2583H45.0542V12.6571C45.0542 13.1455 45.1255 13.4983 45.2681 13.7086C45.4107 13.9189 45.6602 14.0223 46.0166 14.0223C46.1449 14.0223 46.2804 14.0152 46.423 14.0045C46.5655 13.9938 46.6725 13.9795 46.7438 13.9617V10.2619H47.8024V14.6995V14.696Z" fill="#1D1D1B"/>
<path id="Vector_10" d="M50.2438 14.065C50.5254 14.065 50.7286 14.0329 50.8569 13.9651C50.9852 13.8974 51.0494 13.7834 51.0494 13.6194C51.0494 13.4661 50.9817 13.3414 50.8426 13.2416C50.7072 13.1418 50.4791 13.0348 50.1654 12.9172C49.9729 12.8459 49.7947 12.7711 49.6379 12.6927C49.4775 12.6142 49.3385 12.5216 49.2208 12.4182C49.1032 12.3148 49.0105 12.1865 48.9464 12.0368C48.8787 11.8871 48.8466 11.7053 48.8466 11.4915C48.8466 11.0709 48.9998 10.7394 49.31 10.497C49.6201 10.2546 50.0371 10.1334 50.5718 10.1334C50.8391 10.1334 51.0957 10.1584 51.3417 10.2083C51.5876 10.2582 51.7694 10.3045 51.8941 10.3544L51.7017 11.2134C51.584 11.16 51.4379 11.1136 51.2561 11.0709C51.0743 11.0281 50.864 11.0067 50.6252 11.0067C50.4078 11.0067 50.2331 11.0423 50.1012 11.1172C49.9658 11.1885 49.9016 11.3025 49.9016 11.4558C49.9016 11.5307 49.9159 11.5984 49.9409 11.6554C49.9658 11.7125 50.0121 11.7695 50.0763 11.8158C50.1405 11.8657 50.226 11.9156 50.3294 11.9655C50.4327 12.0154 50.5611 12.0653 50.7143 12.1188C50.9638 12.2115 51.1777 12.3041 51.3524 12.3933C51.527 12.4824 51.6731 12.5857 51.7836 12.6998C51.8977 12.8138 51.9797 12.9422 52.0332 13.0883C52.0866 13.2344 52.1116 13.4091 52.1116 13.6123C52.1116 14.0507 51.9512 14.3822 51.6268 14.6067C51.3024 14.8313 50.8391 14.9418 50.2403 14.9418C49.8375 14.9418 49.5131 14.9097 49.2707 14.842C49.0248 14.7743 48.8537 14.7208 48.7539 14.6816L48.9393 13.7976C49.0961 13.8618 49.285 13.9224 49.5024 13.983C49.7199 14.04 49.9694 14.0721 50.251 14.0721L50.2438 14.065Z" fill="#1D1D1B"/>
<path id="Vector_11" d="M56.2466 11.0995C56.129 11.2206 55.9757 11.3953 55.7868 11.6163C55.5979 11.8373 55.3947 12.0832 55.1773 12.3541C54.9598 12.625 54.7424 12.9102 54.525 13.2024C54.3075 13.4983 54.1079 13.7799 53.9333 14.0472H56.2965V14.9312H52.6572V14.2753C52.7855 14.0436 52.9459 13.787 53.1384 13.5125C53.3309 13.2381 53.5305 12.9636 53.7337 12.6856C53.9368 12.4076 54.14 12.1438 54.3432 11.8943C54.5464 11.6448 54.7246 11.4238 54.8814 11.2385H52.7713V10.3545H56.2466V11.0995Z" fill="#1D1D1B"/>
<path id="Vector_12" d="M56.8236 12.561C56.8236 12.1582 56.8842 11.8053 57.0019 11.5024C57.123 11.1994 57.2799 10.9463 57.4795 10.7467C57.6791 10.5471 57.9036 10.3938 58.1603 10.2905C58.4169 10.1871 58.6807 10.1372 58.948 10.1372C59.5789 10.1372 60.0708 10.3332 60.4237 10.7218C60.7765 11.1139 60.9512 11.6948 60.9512 12.4719C60.9512 12.5289 60.9512 12.5966 60.9476 12.6679C60.9476 12.7428 60.9405 12.8069 60.9334 12.864H57.9143C57.9429 13.2311 58.0747 13.5163 58.3029 13.7159C58.531 13.9155 58.866 14.0188 59.3045 14.0188C59.5611 14.0188 59.7963 13.9939 60.0102 13.9475C60.2241 13.9012 60.3916 13.8513 60.5128 13.7978L60.6518 14.664C60.5948 14.6925 60.5128 14.7246 60.4094 14.7567C60.306 14.7887 60.192 14.8173 60.0601 14.8458C59.9282 14.8707 59.7856 14.8957 59.6359 14.9099C59.4827 14.9278 59.3294 14.9349 59.1726 14.9349C58.7698 14.9349 58.4205 14.8743 58.1211 14.7567C57.8217 14.6355 57.5793 14.4715 57.3868 14.2576C57.1943 14.0438 57.0518 13.7943 56.9591 13.5056C56.8664 13.2168 56.8201 12.8996 56.8201 12.5574L56.8236 12.561ZM59.8926 12.0869C59.8926 11.9408 59.8712 11.8018 59.832 11.6699C59.7892 11.538 59.7322 11.424 59.6538 11.3277C59.5753 11.2315 59.4791 11.1566 59.365 11.0996C59.251 11.0426 59.1155 11.0176 58.9587 11.0176C58.8019 11.0176 58.6522 11.0497 58.531 11.1103C58.4098 11.1709 58.3064 11.2529 58.2209 11.3527C58.1353 11.4525 58.0712 11.5665 58.0248 11.6948C57.9785 11.8232 57.9464 11.955 57.9286 12.0905H59.8961L59.8926 12.0869Z" fill="#1D1D1B"/>
<path id="Vector_13" d="M24.2451 23.0153V16.9523H28.1374V17.8897H25.3465V19.3868H27.8309V20.3064H25.3465V22.0814H28.3477V23.0189H24.2451V23.0153Z" fill="#1D1D1B"/>
<path id="Vector_14" d="M32.8746 22.7765C32.6715 22.83 32.4041 22.8835 32.0798 22.9369C31.7519 22.994 31.3954 23.0189 31.0033 23.0189C30.6362 23.0189 30.3297 22.9655 30.0802 22.8621C29.8307 22.7587 29.6346 22.6126 29.4849 22.4237C29.3352 22.2383 29.2283 22.0138 29.1641 21.7536C29.0999 21.4934 29.0679 21.2082 29.0679 20.9017V18.3389H30.1265V20.7377C30.1265 21.226 30.1978 21.5789 30.3404 21.7892C30.4829 21.9995 30.7324 22.1029 31.0889 22.1029C31.2172 22.1029 31.3526 22.0957 31.4952 22.085C31.6378 22.0744 31.7447 22.0601 31.816 22.0423V18.3424H32.8746V22.7801V22.7765Z" fill="#1D1D1B"/>
<path id="Vector_15" d="M36.7774 19.3905C36.6883 19.362 36.5707 19.3299 36.4139 19.2978C36.2606 19.2658 36.0788 19.2479 35.8757 19.2479C35.758 19.2479 35.6368 19.2586 35.505 19.2836C35.3731 19.3085 35.2804 19.3264 35.2305 19.3442V23.012H34.1719V18.6563C34.375 18.5814 34.6317 18.5101 34.9382 18.4424C35.2448 18.3747 35.5834 18.3426 35.9576 18.3426C36.0289 18.3426 36.1109 18.3462 36.2036 18.3568C36.2963 18.364 36.3889 18.3782 36.4852 18.3925C36.5778 18.4067 36.667 18.4246 36.7561 18.446C36.8452 18.4673 36.9129 18.4852 36.9664 18.503L36.781 19.3941L36.7774 19.3905Z" fill="#1D1D1B"/>
<path id="Vector_16" d="M41.7818 20.6094C41.7818 20.9694 41.7283 21.3009 41.625 21.5967C41.5216 21.8926 41.3719 22.1492 41.1794 22.3595C40.987 22.5698 40.7553 22.7338 40.4844 22.8514C40.2135 22.969 39.9141 23.026 39.5861 23.026C39.2582 23.026 38.9624 22.969 38.695 22.8514C38.4277 22.7338 38.196 22.5698 38.0036 22.3595C37.8111 22.1492 37.6614 21.8961 37.5544 21.5967C37.4475 21.2973 37.394 20.9694 37.394 20.6094C37.394 20.2494 37.4475 19.9179 37.5544 19.6256C37.6614 19.3298 37.8146 19.0803 38.0107 18.87C38.2067 18.6597 38.4384 18.4993 38.7057 18.3852C38.9731 18.2711 39.2689 18.2141 39.5897 18.2141C39.9105 18.2141 40.2063 18.2711 40.4772 18.3852C40.7481 18.4993 40.9798 18.6597 41.1723 18.87C41.3648 19.0803 41.5145 19.3333 41.6214 19.6256C41.7283 19.9215 41.7818 20.2494 41.7818 20.6094ZM40.6947 20.6094C40.6947 20.1531 40.5984 19.7931 40.4024 19.5294C40.2064 19.2656 39.9355 19.1302 39.5861 19.1302C39.2368 19.1302 38.9624 19.262 38.7699 19.5294C38.5739 19.7967 38.4776 20.1531 38.4776 20.6094C38.4776 21.0656 38.5739 21.4363 38.7699 21.7037C38.9659 21.971 39.2368 22.1064 39.5861 22.1064C39.9355 22.1064 40.2099 21.971 40.4024 21.7037C40.5984 21.4363 40.6947 21.0692 40.6947 20.6094Z" fill="#1D1D1B"/>
<path id="Vector_17" d="M46.943 20.7307C46.943 21.08 46.8966 21.4008 46.8075 21.6931C46.7184 21.9854 46.5865 22.2349 46.419 22.4452C46.2515 22.6555 46.0376 22.8195 45.7845 22.9371C45.5315 23.0547 45.2427 23.1118 44.9219 23.1118C44.7045 23.1118 44.5085 23.0868 44.3267 23.0333C44.1449 22.9799 43.9988 22.9228 43.8811 22.8587V24.6338H42.8225V18.5885C43.0364 18.5315 43.3037 18.4745 43.6174 18.421C43.931 18.3675 44.2661 18.3426 44.6154 18.3426C44.9647 18.3426 45.2998 18.3996 45.5849 18.5101C45.8701 18.6206 46.116 18.781 46.3156 18.9877C46.5152 19.1945 46.6721 19.444 46.779 19.7398C46.8859 20.0357 46.9394 20.3672 46.9394 20.7343L46.943 20.7307ZM45.8594 20.7486C45.8594 20.2745 45.7524 19.9074 45.5386 19.6472C45.3247 19.3834 44.9825 19.2551 44.512 19.2551C44.4122 19.2551 44.3089 19.2586 44.2019 19.2693C44.095 19.2765 43.9881 19.2978 43.8811 19.3264V21.9426C43.9738 22.0068 44.0986 22.0674 44.2518 22.1209C44.4051 22.1743 44.5726 22.2028 44.7473 22.2028C45.1322 22.2028 45.4138 22.0709 45.592 21.8107C45.7703 21.547 45.8594 21.1941 45.8594 20.7521V20.7486Z" fill="#1D1D1B"/>
<path id="Vector_18" d="M47.7307 20.6413C47.7307 20.2385 47.7913 19.8856 47.9089 19.5826C48.0301 19.2797 48.187 19.0266 48.3866 18.827C48.5862 18.6274 48.8107 18.4741 49.0709 18.3707C49.3276 18.2674 49.5913 18.2175 49.8587 18.2175C50.4896 18.2175 50.9814 18.4135 51.3343 18.802C51.6872 19.1941 51.8618 19.7751 51.8618 20.5521C51.8618 20.6092 51.8618 20.6769 51.8583 20.7482C51.8583 20.823 51.8512 20.8872 51.844 20.9442H48.825C48.8535 21.3114 48.9854 21.5965 49.2135 21.7961C49.4452 21.9957 49.7767 22.0991 50.2151 22.0991C50.4717 22.0991 50.707 22.0741 50.9208 22.0278C51.1347 21.9815 51.3022 21.9316 51.4234 21.8781L51.5624 22.7443C51.5054 22.7728 51.4234 22.8048 51.3201 22.8369C51.2167 22.869 51.1026 22.8975 50.9707 22.926C50.8389 22.951 50.6963 22.9759 50.5466 22.9902C50.3933 23.008 50.24 23.0151 50.0832 23.0151C49.6804 23.0151 49.3311 22.9546 49.0317 22.8369C48.7359 22.7193 48.4899 22.5518 48.2975 22.3379C48.105 22.124 47.9624 21.8745 47.8697 21.5858C47.777 21.2971 47.7307 20.9799 47.7307 20.6377V20.6413ZM50.8032 20.1708C50.8032 20.0246 50.7818 19.8856 50.7426 19.7537C50.6999 19.6218 50.6428 19.5078 50.5644 19.4115C50.486 19.3153 50.3898 19.2404 50.2757 19.1834C50.1616 19.1264 50.0262 19.1014 49.8694 19.1014C49.7125 19.1014 49.5628 19.1335 49.4416 19.1941C49.3204 19.2547 49.2171 19.3367 49.1315 19.4329C49.046 19.5292 48.9818 19.6468 48.9355 19.7751C48.8891 19.9034 48.8571 20.0353 48.8392 20.1708H50.8068H50.8032Z" fill="#1D1D1B"/>
<path id="Vector_19" d="M52.3431 24.6407C52.2682 24.6407 52.1613 24.6335 52.0223 24.6193C51.8868 24.605 51.7656 24.5765 51.6587 24.5373L51.7977 23.6712C51.926 23.7104 52.0793 23.7318 52.2611 23.7318C52.507 23.7318 52.6781 23.6605 52.7779 23.5179C52.8777 23.3753 52.9276 23.1615 52.9276 22.8763V18.4386H53.9862V22.8906C53.9862 23.4858 53.8437 23.9278 53.5621 24.213C53.2805 24.4981 52.8706 24.6407 52.3431 24.6407ZM54.1003 17.0984C54.1003 17.298 54.0361 17.4549 53.9078 17.5725C53.7795 17.6901 53.6262 17.7471 53.4516 17.7471C53.2769 17.7471 53.1165 17.6901 52.9882 17.5725C52.8599 17.4549 52.7957 17.298 52.7957 17.0984C52.7957 16.8988 52.8599 16.7348 52.9882 16.6172C53.1165 16.4996 53.2698 16.4426 53.4516 16.4426C53.6334 16.4426 53.7795 16.4996 53.9078 16.6172C54.0361 16.7348 54.1003 16.8952 54.1003 17.0984Z" fill="#1D1D1B"/>
<path id="Vector_20" d="M56.4281 22.149C56.7097 22.149 56.9129 22.1169 57.0412 22.0492C57.1695 21.9815 57.2337 21.8674 57.2337 21.7034C57.2337 21.5502 57.166 21.4254 57.027 21.3256C56.8915 21.2258 56.6634 21.1189 56.3497 21.0013C56.1573 20.93 55.979 20.8551 55.8222 20.7767C55.6618 20.6983 55.5228 20.6056 55.4052 20.5022C55.2875 20.3989 55.1984 20.2706 55.1307 20.1209C55.063 19.9712 55.0309 19.7894 55.0309 19.5755C55.0309 19.1549 55.1842 18.8234 55.4943 18.581C55.8044 18.3387 56.225 18.2175 56.7561 18.2175C57.0234 18.2175 57.28 18.2424 57.526 18.2923C57.7719 18.3422 57.9537 18.3886 58.0785 18.4385L57.886 19.2975C57.7684 19.244 57.6222 19.1977 57.4404 19.1513C57.2587 19.1086 57.0484 19.0872 56.8095 19.0872C56.5921 19.0872 56.4175 19.1228 56.2856 19.1977C56.1501 19.2725 56.086 19.383 56.086 19.5363C56.086 19.6111 56.1002 19.6789 56.1252 19.7359C56.1501 19.7929 56.1965 19.85 56.2606 19.8963C56.3248 19.9462 56.4103 19.9961 56.5137 20.046C56.6171 20.0959 56.7454 20.1458 56.8987 20.1993C57.1482 20.2919 57.362 20.3846 57.5367 20.4737C57.7113 20.5628 57.8575 20.6662 57.968 20.7803C58.082 20.8943 58.164 21.0226 58.2175 21.1688C58.2709 21.3149 58.2959 21.4896 58.2959 21.6928C58.2959 22.1312 58.1355 22.4627 57.8111 22.6872C57.4868 22.9118 57.0234 23.0223 56.4246 23.0223C56.0218 23.0223 55.6974 22.9902 55.4551 22.9225C55.2091 22.8547 55.038 22.8013 54.9382 22.7621L55.1236 21.8781C55.2804 21.9423 55.4693 22.0029 55.6868 22.0635C55.9042 22.1205 56.1537 22.1526 56.4353 22.1526L56.4281 22.149Z" fill="#1D1D1B"/>
<path id="Vector_21" d="M60.2884 20.2244C60.4238 20.0853 60.5664 19.9356 60.7161 19.7752C60.8658 19.6148 61.0155 19.4544 61.1616 19.294C61.3078 19.1336 61.4468 18.9804 61.5787 18.8307C61.7106 18.681 61.8211 18.5526 61.9173 18.4422H63.1684C62.8761 18.7701 62.5696 19.1087 62.2488 19.458C61.9244 19.8073 61.6001 20.1495 61.2757 20.481C61.4504 20.6271 61.6321 20.8053 61.8246 21.0121C62.0171 21.2188 62.2024 21.4398 62.3842 21.6715C62.566 21.9067 62.7335 22.1384 62.8904 22.3701C63.0472 22.6054 63.1791 22.8192 63.2825 23.0188H62.0563C61.9494 22.8371 61.8317 22.6481 61.6927 22.4485C61.5573 22.2489 61.4076 22.0565 61.2507 21.8711C61.0939 21.6858 60.9335 21.5075 60.7696 21.34C60.6056 21.1725 60.4452 21.0335 60.2884 20.9158V23.0153H59.2297V16.3998L60.2884 16.2251V20.2244Z" fill="#1D1D1B"/>
<path id="Vector_22" d="M65.1786 17.0984C65.1786 17.298 65.1144 17.4549 64.9861 17.5725C64.8578 17.6901 64.7045 17.7471 64.5299 17.7471C64.3552 17.7471 64.1948 17.6901 64.0665 17.5725C63.9382 17.4549 63.874 17.298 63.874 17.0984C63.874 16.8988 63.9382 16.7348 64.0665 16.6172C64.1948 16.4996 64.3481 16.4426 64.5299 16.4426C64.7117 16.4426 64.8578 16.4996 64.9861 16.6172C65.1144 16.7348 65.1786 16.8952 65.1786 17.0984ZM65.0645 23.0153H64.0059V18.4386H65.0645V23.0153Z" fill="#1D1D1B"/>
<path id="Vector_23" d="M66.1055 20.6413C66.1055 20.2385 66.1661 19.8856 66.2837 19.5826C66.4049 19.2797 66.5617 19.0266 66.7613 18.827C66.9609 18.6274 67.1855 18.4741 67.4457 18.3707C67.7023 18.2674 67.9661 18.2175 68.2334 18.2175C68.8643 18.2175 69.3562 18.4135 69.7091 18.802C70.0619 19.1941 70.2366 19.7751 70.2366 20.5521C70.2366 20.6092 70.2366 20.6769 70.233 20.7482C70.233 20.823 70.2259 20.8872 70.2188 20.9442H67.1997C67.2283 21.3114 67.3601 21.5965 67.5883 21.7961C67.8199 21.9957 68.1514 22.0991 68.5898 22.0991C68.8465 22.0991 69.0817 22.0741 69.2956 22.0278C69.5095 21.9815 69.677 21.9316 69.7982 21.8781L69.9372 22.7443C69.8802 22.7728 69.7982 22.8048 69.6948 22.8369C69.5914 22.869 69.4774 22.8975 69.3455 22.926C69.2136 22.951 69.071 22.9759 68.9213 22.9902C68.7681 23.008 68.6148 23.0151 68.458 23.0151C68.0552 23.0151 67.7059 22.9546 67.4065 22.8369C67.1106 22.7193 66.8647 22.5518 66.6722 22.3379C66.4797 22.124 66.3372 21.8745 66.2445 21.5858C66.1518 21.2971 66.1055 20.9799 66.1055 20.6377V20.6413ZM69.178 20.1708C69.178 20.0246 69.1566 19.8856 69.1174 19.7537C69.0746 19.6218 69.0176 19.5078 68.9392 19.4115C68.8607 19.3153 68.7645 19.2404 68.6504 19.1834C68.5364 19.1264 68.4009 19.1014 68.2441 19.1014C68.0873 19.1014 67.9376 19.1335 67.8164 19.1941C67.6952 19.2547 67.5918 19.3367 67.5063 19.4329C67.4207 19.5292 67.3566 19.6468 67.3102 19.7751C67.2639 19.9034 67.2318 20.0353 67.214 20.1708H69.1815H69.178Z" fill="#1D1D1B"/>
</g>
</g>
</svg>
